SplineFontDB: 3.0
FontName: LinBiolinumSlantedOB
FullName: Linux Biolinum Slanted O Bold
FamilyName: Linux Biolinum Slanted O
Weight: Bold
Copyright: Linux Libertine by Philipp H. Poll,\nOpen Font under Terms of following Free Software Licenses:\nGPL (General Public License) with font-exception and OFL (Open Font License).\nCreated with FontForge (http://fontforge.sf.net)\nSept 2003, 2004, 2005, 2006, 2007, 2008, 2009, 2010, 2011
UComments: "2003-08-29: Created.+AAoA-2004-07-25: v(1.0) release candidate+AAoA-2005-12-28: v(1.1.0) stable+AAoA-2006-01-01: v(2.0.0) stable+AAoA-2006-09-05: v(2.2.0) stable+AAoA-2006-12-04: v(2.3.0) stable+AAoA-2007-03-11: v(2.4.0) stable+AAoA-2007-12-00: v(2.7.0) stable+AAoA-2008-06-00: v(2.8.14) stable+AAoA" 
Version: 1.1.0
ItalicAngle: 0
UnderlinePosition: -98
UnderlineWidth: 40
Ascent: 754
Descent: 246
LayerCount: 2
Layer: 0 0 "Back"  1
Layer: 1 0 "Fore"  0
NeedsXUIDChange: 1
XUID: [1021 993 1524925707 2876416]
FSType: 0
OS2Version: 0
OS2_WeightWidthSlopeOnly: 0
OS2_UseTypoMetrics: 0
CreationTime: 1156455862
ModificationTime: 1308587684
PfmFamily: 33
TTFWeight: 700
TTFWidth: 5
LineGap: 0
VLineGap: 0
OS2TypoAscent: 894
OS2TypoAOffset: 0
OS2TypoDescent: -246
OS2TypoDOffset: 0
OS2TypoLinegap: 0
OS2WinAscent: 894
OS2WinAOffset: 0
OS2WinDescent: 246
OS2WinDOffset: 0
HheadAscent: 894
HheadAOffset: 0
HheadDescent: -246
HheadDOffset: 0
OS2FamilyClass: 2050
OS2Vendor: 'PfEd'
Lookup: 3 0 0 "'aalt' Alle Alternativen zeigen"  {"'aalt' Alle Alternativen zeigen 1"  } ['aalt' ('DFLT' <'dflt' > 'cyrl' <'dflt' > 'grek' <'dflt' > 'latn' <'AZE ' 'CRT ' 'DEU ' 'MOL ' 'ROM ' 'TRK ' 'dflt' > ) ]
Lookup: 1 0 0 "'locl' Localized Forms Romaenisch"  {"'locl' Localized Forms Romaenisch 1"  } ['locl' ('latn' <'MOL ' 'ROM ' > ) ]
Lookup: 1 0 0 "'smcp' Gemeine nach Kapitaelchen i > i.sc"  {"'smcp' Gemeine nach Kapitaelchen i > i.sc 1"  } ['smcp' ('DFLT' <'dflt' > 'cyrl' <'dflt' > 'grek' <'dflt' > 'latn' <'DEU ' 'MOL ' 'ROM ' 'dflt' > ) ]

StartChar: exclam
Encoding: 33 33 0
Width: 270
VWidth: 999
Flags: HW
HStem: -20 141<93.5841 174.231> 638 20G<120 147>
VStem: 62 142<7.33871 89.5176> 63 141<439.802 636.71>
LayerCount: 2
Fore
SplineSet
271.862304688 658 m 0
 301.862304688 658 338.973632812 635 328.345703125 585 c 0
 314.529296875 520 287.6015625 478 258.322265625 392 c 0
 221.366210938 284 207.612304688 224 202.63671875 210 c 0
 199.298828125 199 183.385742188 190 172.385742188 190 c 0
 160.385742188 190 149.874023438 197 150.149414062 203 c 0
 152.612304688 224 165.743164062 314 173.322265625 392 c 0
 182.02734375 480 172.466796875 515 187.345703125 585 c 0
 198.823242188 639 247.862304688 658 271.862304688 658 c 0
72.203125 48 m 1
 73.265625 53 l 1
 93.2802734375 86 115.53125 106 156.719726562 121 c 1
 160.719726562 121 l 1
 194.956054688 108 209.91796875 89 215.265625 53 c 1
 214.203125 48 l 1
 191.48828125 7 168.662109375 -11 130.749023438 -20 c 1
 126.749023438 -20 l 1
 87.662109375 -11 74.275390625 6 72.203125 48 c 1
EndSplineSet
Colour: ff80cc
EndChar

StartChar: quotedbl
Encoding: 34 34 1
Width: 375
VWidth: 999
Flags: HW
HStem: 421 223<94 126 108 126> 422 223<237 269 251 269>
LayerCount: 2
Fore
SplineSet
340.69921875 422 m 1
 326.548828125 426 l 1
 326.548828125 426 328.55859375 586 329.833007812 592 c 0
 334.72265625 615 363.311523438 646 406.311523438 646 c 0
 448.311523438 646 447.2734375 627 443.447265625 609 c 0
 440.258789062 594 367.974609375 428 367.974609375 428 c 1
 340.69921875 422 l 1
197.486328125 421 m 1
 183.336914062 425 l 1
 183.336914062 425 185.345703125 585 186.62109375 591 c 0
 191.509765625 614 220.098632812 645 263.098632812 645 c 0
 305.098632812 645 304.060546875 626 300.234375 608 c 0
 297.045898438 593 224.76171875 427 224.76171875 427 c 1
 197.486328125 421 l 1
EndSplineSet
Colour: ff00ff
EndChar

StartChar: numbersign
Encoding: 35 35 2
Width: 514
Flags: HW
HStem: 187 66<37.5 127.5 192.5 280.5 341.5 451.5> 360 66<63.5 154.5 218.5 305.5 368.5 476.5> 579 20G<187.5 248.5 338.5 395.5>
DStem2: 99.5 14 154.5 14 0.158649 0.987335<8.72568 175.251 250.727 350.344 425.661 592.345> 251.5 14 304.5 14 0.155356 0.987859<8.23384 175.405 250.08 350.188 425.174 592.19>
LayerCount: 2
Fore
SplineSet
342.276367188 253 m 1
 382.020507812 360 l 1
 288.020507812 360 l 1
 274.15625 323 260.141601562 290 246.276367188 253 c 1
 342.276367188 253 l 1
435.020507812 360 m 1
 395.276367188 253 l 1
 513.276367188 253 l 1
 491.248046875 187 l 1
 372.248046875 187 l 1
 349.495117188 127 329.803710938 72 307.475585938 14 c 1
 254.475585938 14 l 1
 320.248046875 187 l 1
 224.248046875 187 l 1
 200.495117188 127 180.803710938 72 157.475585938 14 c 1
 102.475585938 14 l 1
 167.248046875 187 l 1
 68.248046875 187 l 1
 91.2763671875 253 l 1
 191.276367188 253 l 1
 205.141601562 290 218.15625 323 231.020507812 360 c 1
 131.020507812 360 l 1
 154.048828125 426 l 1
 254.048828125 426 l 1
 276.376953125 484 297.493164062 541 319.821289062 599 c 1
 375.821289062 599 l 1
 309.048828125 426 l 1
 406.048828125 426 l 1
 428.376953125 484 448.493164062 541 470.821289062 599 c 1
 522.821289062 599 l 1
 459.048828125 426 l 1
 576.048828125 426 l 1
 553.020507812 360 l 1
 435.020507812 360 l 1
EndSplineSet
EndChar

StartChar: dollar
Encoding: 36 36 3
Width: 514
VWidth: 999
Flags: HMW
HStem: -9.5 48.2<265.254 316.267> 563.7 46.3<212.171 263.503>
VStem: 60 117<411.835 524.114> 349 127<90.6723 213.211>
DStem2: 214.555 -98.2666 255.5 -93.25 0.0737434 0.997277<7.80138 89.0172 140.296 354.51 472.331 660.578 710.162 793.883>
LayerCount: 2
Fore
SplineSet
328.640625 372.799804688 m 1
 383.318359375 563.700195312 l 1
 334.889648438 559.799804688 287.252929688 518.700195312 277.751953125 474 c 0
 265.444335938 416.099609375 296.942382812 388.799804688 328.640625 372.799804688 c 1
334.727539062 252.299804688 m 1
 273.526367188 38.7001953125 l 1
 323.688476562 43.7001953125 365.430664062 77.2998046875 378.333007812 138 c 0
 389.087890625 188.599609375 377.354492188 228.900390625 334.727539062 252.299804688 c 1
259.680664062 -9.5 m 1
 235.689453125 -93.2001953125 l 1
 227.497070312 -97.400390625 203.706054688 -98.2998046875 193.706054688 -98.2998046875 c 1
 219.081054688 -9.5 l 1
 118.379882812 -4.7998046875 53.5888671875 31 53.5888671875 31 c 1
 52.0146484375 33 l 1
 64.9658203125 61 83.1689453125 109 94.1826171875 142 c 1
 112.395507812 143 l 1
 131.553710938 101.400390625 183.626953125 54.7001953125 233.7421875 41.599609375 c 1
 298.771484375 268.5 l 1
 224.034179688 302.200195312 135.521484375 355.299804688 155.4375 449 c 0
 176.927734375 550.099609375 287.659179688 610 396.559570312 610 c 1
 419.357421875 689.5 l 1
 429.301757812 693 448.620117188 694.5 461.420898438 694.5 c 1
 436.470703125 607.700195312 l 1
 521.799804688 598.900390625 571.732421875 568 571.732421875 568 c 1
 573.094726562 565 l 1
 559.142578125 537 542.365234375 491 531.350585938 458 c 1
 503.138671875 457 l 1
 491.703125 494 462.307617188 540.599609375 422.100585938 557.5 c 1
 364.7890625 357.5 l 1
 436.509765625 328.900390625 534.64453125 275.900390625 512.34765625 171 c 0
 493.004882812 80 399.326171875 -2.7001953125 259.680664062 -9.5 c 1
EndSplineSet
EndChar

StartChar: percent
Encoding: 37 37 4
Width: 637
VWidth: 999
Flags: HW
HStem: -19 39<464.6 519.99> 214 36<494.292 553.315> 297 39<145.6 200.99> 474 45<285.497 457.718> 530 36<175.292 234.315>
VStem: 51 93<336.471 492.517> 243 42<385.167 510.902> 370 93<20.4706 176.517> 562 42<69.1669 208.803>
DStem2: 96 -4 150 -16 0.588938 0.808178<22.1045 620.449 651.051 709.262>
LayerCount: 2
Fore
SplineSet
474.265625 53 m 0
 471.438476562 39.7001953125 470.250976562 20 487.250976562 20 c 0
 507.951171875 20 531.201171875 36.7001953125 549.752929688 60 c 0
 572.389648438 88.400390625 588.952148438 126.799804688 595.37109375 157 c 0
 606.424804688 209 582.487304688 214 568.487304688 214 c 0
 548.586914062 214 525.447265625 191.700195312 509.434570312 162 c 0
 490.943359375 127.700195312 480.76953125 83.599609375 474.265625 53 c 0
389.342773438 91 m 0
 406.34765625 171 476.138671875 250 565.138671875 250 c 0
 613.138671875 250 653.100585938 231 637.796875 159 c 0
 616.752929688 60 545.9609375 -19 466.9609375 -19 c 0
 434.661132812 -19 407.467773438 -10.5 395.337890625 11 c 0
 385.1640625 29 381.478515625 54 389.342773438 91 c 0
222.43359375 369 m 0
 219.606445312 355.700195312 218.418945312 336 235.418945312 336 c 0
 256.119140625 336 279.369140625 352.700195312 297.920898438 376 c 0
 320.557617188 404.400390625 337.120117188 442.799804688 343.5390625 473 c 0
 354.591796875 525 330.655273438 530 316.655273438 530 c 0
 296.754882812 530 273.615234375 507.700195312 257.6015625 478 c 0
 239.111328125 443.700195312 228.9375 399.599609375 222.43359375 369 c 0
137.510742188 407 m 0
 154.514648438 487 224.306640625 566 313.306640625 566 c 0
 339.306640625 566 362.916992188 560.400390625 376.709960938 543.900390625 c 1
 418.190429688 542.400390625 456.916992188 519 474.31640625 519 c 0
 516.31640625 519 584.591796875 525 634.944335938 569 c 1
 677.481445312 548 l 1
 146.598632812 -16 l 1
 95.1494140625 -4 l 1
 567.640625 497 l 1
 525.239257812 481 484.751953125 474 454.751953125 474 c 0
 433.251953125 474 405.901367188 482.700195312 388.748046875 492.799804688 c 1
 388.279296875 487.299804688 387.303710938 481.299804688 385.96484375 475 c 0
 364.920898438 376 294.12890625 297 215.12890625 297 c 0
 182.829101562 297 155.635742188 305.5 143.505859375 327 c 0
 133.33203125 345 129.645507812 370 137.510742188 407 c 0
EndSplineSet
EndChar

StartChar: parenleft
Encoding: 40 40 5
Width: 338
VWidth: 999
Flags: HW
VStem: 44 131<111.849 388.582>
LayerCount: 2
Fore
SplineSet
97.564453125 252 m 0
 133.69921875 422 284.596679688 605 425.27734375 707 c 1
 451.326171875 679 l 1
 411.673828125 643 285.104492188 518 229.202148438 255 c 0
 173.299804688 -8 244.455078125 -139 269.377929688 -177 c 1
 231.638671875 -204 l 1
 93.498046875 -40 69.060546875 117.900390625 97.564453125 252 c 0
EndSplineSet
Substitution2: "'c2sc' Versale nach Kapitaelchen 1" parenleft.sc
AlternateSubs2: "'aalt' Alle Alternativen zeigen 1" parenleft.sc
Substitution2: "'sinf' Wissenschaftliche Indices 1" parenleft.inferior
Substitution2: "'sups' Hochgestellte 1" parenleft.superior
Substitution2: "'case' Versalformen 1" parenleft.sc
EndChar

StartChar: parenright
Encoding: 41 41 6
Width: 338
VWidth: 999
Flags: HW
VStem: 163 131<115.418 392.151>
LayerCount: 2
Fore
SplineSet
347.564453125 252 m 0
 311.4296875 82 160.532226562 -101 19.8505859375 -203 c 1
 -6.197265625 -175 l 1
 33.455078125 -139 160.024414062 -14 215.926757812 249 c 0
 271.829101562 512 200.673828125 643 175.750976562 681 c 1
 213.490234375 708 l 1
 351.630859375 544 376.068359375 386.099609375 347.564453125 252 c 0
EndSplineSet
Substitution2: "'c2sc' Versale nach Kapitaelchen 1" parenright.sc
AlternateSubs2: "'aalt' Alle Alternativen zeigen 1" parenright.sc
Substitution2: "'sinf' Wissenschaftliche Indices 1" parenright.inferior
Substitution2: "'sups' Hochgestellte 1" parenright.superior
Substitution2: "'case' Versalformen 1" parenright.sc
Colour: ff00ff
EndChar

StartChar: asterisk
Encoding: 42 42 7
Width: 433
VWidth: 999
Flags: HMW
HStem: 571 69<91 156 274 348>
VStem: 173 78<622 713>
LayerCount: 2
Fore
SplineSet
317.306640625 566 m 1
 304.732421875 568 292.794921875 573 277.370117188 571 c 0
 230.668945312 563 194.668945312 563 204.234375 608 c 0
 207.209960938 622 220.036132812 640 244.036132812 640 c 0
 278.036132812 640 288.021484375 607 327.983398438 588 c 1
 332.485351562 628 311.799804688 653 317.326171875 679 c 0
 321.790039062 700 345.615234375 718 363.615234375 718 c 0
 381.615234375 718 401.27734375 707 396.17578125 683 c 0
 390.4375 656 359.360351562 618 350.983398438 588 c 1
 400.021484375 607 418.4609375 642 451.4609375 642 c 0
 482.4609375 642 485.360351562 618 483.234375 608 c 0
 476.857421875 578 440.732421875 568 405.732421875 568 c 0
 386.732421875 568 369.732421875 568 351.094726562 565 c 1
 377.442382812 529 428.8671875 531 418.02734375 480 c 0
 414.201171875 462 393.86328125 451 379.86328125 451 c 0
 330.86328125 451 347.041992188 513 330.331054688 552 c 1
 295.766601562 507 297.86328125 451 238.86328125 451 c 0
 221.86328125 451 212.625976562 464 215.814453125 479 c 0
 227.29296875 533 276.229492188 528 317.306640625 566 c 1
EndSplineSet
EndChar

StartChar: plus
Encoding: 43 43 8
Width: 520
Flags: HW
HStem: 202 60<60 230 290 460> 413 20G<230 290>
VStem: 230 60<32 202 262 433>
LayerCount: 2
Fore
SplineSet
345.689453125 262 m 1
 515.689453125 262 l 1
 502.936523438 202 l 1
 332.936523438 202 l 1
 296.801757812 32 l 1
 236.801757812 32 l 1
 272.936523438 202 l 1
 102.936523438 202 l 1
 115.689453125 262 l 1
 285.689453125 262 l 1
 322.037109375 433 l 1
 382.037109375 433 l 1
 345.689453125 262 l 1
EndSplineSet
AlternateSubs2: "'aalt' Alle Alternativen zeigen 1" plus.superior plus.inferior uni2098
Substitution2: "'sinf' Wissenschaftliche Indices 1" plus.inferior
Substitution2: "'sups' Hochgestellte 1" plus.superior
EndChar

StartChar: slash
Encoding: 47 47 9
Width: 342
VWidth: 999
Flags: HW
HStem: 626 20G<245.277 312>
VStem: 15 297
DStem2: 15 -59 75 -59 0.318647 0.947874<19.1188 743.77>
LayerCount: 2
Fore
SplineSet
449.311523438 646 m 1
 62.458984375 -59 l 1
 2.458984375 -59 l 1
 389.311523438 646 l 1
 449.311523438 646 l 1
EndSplineSet
Ligature2: "'frac' Brueche 1" uni2215
AlternateSubs2: "'aalt' Alle Alternativen zeigen 1" uni2215
EndChar

StartChar: one
Encoding: 49 49 10
Width: 514
VWidth: 999
Flags: HW
HStem: -3 21G<220 298 298 379> 492 43<104 187.913>
VStem: 231 136<2.80533 495.947>
LayerCount: 2
Fore
SplineSet
407.172851562 189 m 2
 390.380859375 110 382.752929688 60 379 0 c 1
 376.362304688 -3 l 1
 376.362304688 -3 334 0 298 0 c 0
 261 0 220.362304688 -3 220.362304688 -3 c 1
 220 0 l 1
 240.903320312 56 254.59375 111 271.172851562 189 c 2
 323.037109375 433 l 2
 330.689453125 469 335.853515625 498 318.853515625 498 c 0
 298.853515625 498 253.853515625 498 208.578125 492 c 1
 215.717773438 535 l 1
 313.181640625 556 431.196289062 589 500.659179688 610 c 1
 504.659179688 610 507.659179688 610 506.596679688 605 c 0
 501.62109375 591 483.90625 550 460.950195312 442 c 2
 407.172851562 189 l 2
EndSplineSet
AlternateSubs2: "'aalt' Alle Alternativen zeigen 1" one.oldstyle one.superior one.fitted
Substitution2: "'sups' Hochgestellte 1" one.superior
Substitution2: "'sinf' Wissenschaftliche Indices 1" one.inferior
Substitution2: "'pnum' Proportionalziffern 1" one.fitted
Substitution2: "'onum' Minuskelziffern 1" one.taboldstyle
EndChar

StartChar: two
Encoding: 50 50 11
Width: 514
VWidth: 487
Flags: HW
HStem: 0 100<194 454.031> 471 21G<66 126.5> 556 54<160.372 269.431>
VStem: 302 155<375.178 523.963>
LayerCount: 2
Fore
SplineSet
344.181640625 556 m 0
 295.181640625 556 255.655273438 530 210.114257812 471 c 1
 166.327148438 472 l 1
 162.119140625 551 l 1
 165.96875 555 l 1
 195.645507812 577 291.659179688 610 363.659179688 610 c 0
 482.659179688 610 576.244140625 561 553.288085938 453 c 0
 537.133789062 377 479.84375 338 411.153320312 283 c 2
 290.53515625 186 l 2
 265.284179688 166 218.65625 116 215.255859375 100 c 1
 297.255859375 100 l 2
 397.255859375 100 426.318359375 105 485.168945312 109 c 1
 479.405273438 96 467.903320312 56 465.139648438 43 c 0
 462.376953125 30 460.913085938 9 461.149414062 -4 c 1
 386.787109375 -1 363 0 288 0 c 0
 212 0 135.58984375 -2.400390625 38.1494140625 -4 c 1
 38 0 l 1
 50.541015625 59 90.318359375 105 209.57421875 205 c 1
 299.090820312 278 l 1
 370.84375 338 384.897460938 390 398.500976562 454 c 0
 411.678710938 516 380.181640625 556 344.181640625 556 c 0
EndSplineSet
AlternateSubs2: "'aalt' Alle Alternativen zeigen 1" two.oldstyle two.superior two.fitted
Substitution2: "'sups' Hochgestellte 1" two.superior
Substitution2: "'sinf' Wissenschaftliche Indices 1" two.inferior
Substitution2: "'pnum' Proportionalziffern 1" two.fitted
Substitution2: "'onum' Minuskelziffern 1" two.taboldstyle
EndChar

StartChar: three
Encoding: 51 51 12
Width: 514
VWidth: 487
Flags: HW
HStem: -11 42<148.621 265.088> 292 40<153 238.195> 568 42<163.612 272.43>
VStem: 311 127<402.012 529.108> 315 152<96.8234 254.248>
LayerCount: 2
Fore
SplineSet
219.588867188 31 m 0
 254.588867188 31 327.965820312 61 352.622070312 177 c 0
 372.815429688 272 321.491210938 294 264.491210938 294 c 0
 255.491210938 294 227.491210938 294 215.06640625 292 c 1
 223.568359375 332 l 1
 327.056640625 339 392.409179688 383 410.051757812 466 c 0
 421.31640625 519 388.732421875 568 349.732421875 568 c 0
 278.732421875 568 258.442382812 529 212.901367188 470 c 1
 169.114257812 471 l 1
 164.90625 550 l 1
 168.755859375 554 l 1
 198.432617188 576 279.659179688 610 367.659179688 610 c 0
 489.659179688 610 560.432617188 576 540.452148438 482 c 0
 522.59765625 398 455.969726562 348 378.930664062 329 c 1
 378.29296875 326 l 1
 450.805664062 319 525.666015625 276 505.259765625 180 c 0
 479.328125 58 352.26171875 -11 208.662109375 -11 c 0
 115.26171875 -11 69.888671875 23 49.5654296875 45 c 1
 46.6279296875 50 l 1
 85.419921875 129 l 1
 129.6328125 130 l 1
 150.091796875 71 144.588867188 31 219.588867188 31 c 0
EndSplineSet
AlternateSubs2: "'aalt' Alle Alternativen zeigen 1" three.oldstyle three.superior three.fitted
Substitution2: "'sups' Hochgestellte 1" three.superior
Substitution2: "'sinf' Wissenschaftliche Indices 1" three.inferior
Substitution2: "'pnum' Proportionalziffern 1" three.fitted
Substitution2: "'onum' Minuskelziffern 1" three.taboldstyle
EndChar

StartChar: four
Encoding: 52 52 13
Width: 514
Flags: HW
HStem: -3 21G<251 322 322 396> 162 47<76.8153 261 385 495.734> 590 20G<249.33 387>
VStem: 261 124<2.47862 162 209 498>
LayerCount: 2
Fore
SplineSet
366.853515625 498 m 1
 298.548828125 426 188.279296875 293 120.424804688 209 c 1
 305.424804688 209 l 1
 366.853515625 498 l 1
295.434570312 162 m 1
 118.434570312 162 l 2
 94.4345703125 162 90.859375 164 86.921875 169 c 2
 75.748046875 187 l 1
 72.0859375 198 60.787109375 206 61.63671875 210 c 0
 62.2744140625 213 68.5498046875 219 71.400390625 223 c 0
 179.756835938 347 325.741210938 513 411.659179688 610 c 1
 431.27734375 608.200195312 477.391601562 607.799804688 514.659179688 610 c 1
 516.234375 608 l 1
 511.888671875 593.200195312 429.424804688 209 429.424804688 209 c 1
 527.424804688 209 l 2
 538.424804688 209 541.149414062 203 539.0234375 193 c 0
 536.47265625 181 517.434570312 162 503.434570312 162 c 2
 419.434570312 162 l 1
 406.830078125 98 400.265625 53 396 0 c 1
 393.362304688 -3 l 1
 393.362304688 -3 354 0 322 0 c 0
 289 0 251.362304688 -3 251.362304688 -3 c 1
 251 0 l 1
 268.415039062 49 281.830078125 98 295.434570312 162 c 1
EndSplineSet
AlternateSubs2: "'aalt' Alle Alternativen zeigen 1" four.oldstyle four.superior four.fitted
Substitution2: "'sups' Hochgestellte 1" four.superior
Substitution2: "'sinf' Wissenschaftliche Indices 1" four.inferior
Substitution2: "'pnum' Proportionalziffern 1" four.fitted
Substitution2: "'onum' Minuskelziffern 1" four.taboldstyle
EndChar

StartChar: five
Encoding: 53 53 14
Width: 514
VWidth: 487
Flags: HW
HStem: -10 49<150.017 277.346> 327 53<155.543 282.882> 505 94<163.244 434.427> 511 99<162 245.242 249.509 295.837 299.432 435>
VStem: 324 142<112.507 282.815>
LayerCount: 2
Fore
SplineSet
239.874023438 -10 m 0
 144.874023438 -10 91 0 57.439453125 35 c 1
 55.501953125 40 l 1
 93.2939453125 119 l 1
 127.506835938 120 l 1
 147.965820312 61 173.290039062 39 232.290039062 39 c 0
 277.290039062 39 341.004882812 80 361.834960938 178 c 0
 374.865234375 239.299804688 374.223632812 283.799804688 345.361328125 307.5 c 0
 332.3359375 318.200195312 312.706054688 327 287.505859375 327 c 0
 238.606445312 327 212.779296875 313.700195312 173.291015625 286 c 1
 150.885742188 293.5 l 1
 173.637695312 329.5 234.775390625 563.5 231.809570312 606 c 1
 234.447265625 609 l 1
 268.809570312 606 337.321289062 599 374.321289062 599 c 0
 427.321289062 599 515.383789062 604 573.659179688 610 c 1
 579.021484375 607 l 1
 543.616210938 511 l 1
 501.766601562 507 435.340820312 505 405.340820312 505 c 0
 359.340820312 505 304.19140625 509 271.041992188 513 c 1
 232.795898438 366 l 1
 256.49609375 374 300.271484375 380 354.771484375 380 c 0
 400.771484375 380 446.649414062 363.900390625 474.23828125 337.5 c 0
 504.573242188 308.5 521.03125 258.900390625 509.787109375 206 c 0
 482.154296875 76 359.874023438 -10 239.874023438 -10 c 0
EndSplineSet
AlternateSubs2: "'aalt' Alle Alternativen zeigen 1" five.oldstyle five.superior five.fitted
Substitution2: "'sups' Hochgestellte 1" five.superior
Substitution2: "'sinf' Wissenschaftliche Indices 1" five.inferior
Substitution2: "'pnum' Proportionalziffern 1" five.fitted
Substitution2: "'onum' Minuskelziffern 1" five.taboldstyle
EndChar

StartChar: six
Encoding: 54 54 15
Width: 514
Flags: HW
HStem: -10 39<224.347 310.848> 315 50<204.23 295.75> 569 41<339.203 447.96>
VStem: 44 126<115.719 300.126> 343 134<109.662 262.764>
LayerCount: 2
Fore
SplineSet
232.428710938 289 m 1
 229.090820312 278 223.776367188 253 221.438476562 242 c 0
 184.454101562 68 231.1640625 29 281.1640625 29 c 0
 317.1640625 29 359.579101562 78 382.53515625 186 c 0
 395.182617188 245.5 369.955078125 315 311.955078125 315 c 0
 293.955078125 315 275.923828125 312.5 232.428710938 289 c 1
570.944335938 569 m 1
 513.306640625 566 442.393554688 557 373.19140625 509 c 0
 317.950195312 470.700195312 269.553710938 402.5 246.75 330.5 c 1
 286.788085938 349.5 331.9453125 362 356.583007812 365 c 1
 519.338867188 361.5 530.776367188 253 520.361328125 204 c 0
 501.549804688 115.5 416.874023438 -10 260.874023438 -10 c 0
 159.874023438 -10 50.8017578125 32 96.2890625 246 c 0
 116.694335938 342 170.754882812 447.200195312 261.041992188 513 c 0
 350.963867188 578.5 431.703125 605.5 573.659179688 610 c 1
 579.418945312 600.400390625 576.637695312 581.200195312 570.944335938 569 c 1
EndSplineSet
AlternateSubs2: "'aalt' Alle Alternativen zeigen 1" six.oldstyle six.superior six.fitted
Substitution2: "'sups' Hochgestellte 1" six.superior
Substitution2: "'sinf' Wissenschaftliche Indices 1" six.inferior
Substitution2: "'pnum' Proportionalziffern 1" six.fitted
Substitution2: "'onum' Minuskelziffern 1" six.taboldstyle
EndChar

StartChar: seven
Encoding: 55 55 16
Width: 514
VWidth: 487
Flags: HMW
HStem: -13 22G<144 235> 511 89<120 359>
LayerCount: 2
Fore
SplineSet
480.427734375 496 m 1
 421.427734375 496 310.727539062 488 181.239257812 481 c 1
 186.427734375 496 198.780273438 540 201.96875 555 c 0
 205.157226562 570 207.258789062 594 208.447265625 609 c 1
 249.171875 603 377.321289062 599 526.321289062 599 c 0
 557.321289062 599 576.171875 603 592.021484375 607 c 1
 601.770507812 587 l 1
 431.955078125 315 342.221679688 161 249.086914062 -9 c 1
 130.236328125 -13 l 1
 128.724609375 -6 l 1
 223.544921875 139 365.892578125 310 480.427734375 496 c 1
EndSplineSet
AlternateSubs2: "'aalt' Alle Alternativen zeigen 1" seven.oldstyle seven.superior seven.fitted
Substitution2: "'sups' Hochgestellte 1" seven.superior
Substitution2: "'sinf' Wissenschaftliche Indices 1" seven.inferior
Substitution2: "'pnum' Proportionalziffern 1" seven.fitted
Substitution2: "'onum' Minuskelziffern 1" seven.taboldstyle
EndChar

StartChar: nine
Encoding: 57 57 17
Width: 514
VWidth: 487
Flags: HW
HStem: -10 41<74.0399 182.797> 235 50<226.25 317.77> 571 39<211.152 297.653>
VStem: 45 134<337.236 490.338> 352 126<299.874 484.281>
LayerCount: 2
Fore
SplineSet
417.10546875 311 m 1
 420.443359375 322 425.756835938 347 428.095703125 358 c 0
 465.080078125 532 418.370117188 571 368.370117188 571 c 0
 332.370117188 571 289.954101562 522 266.998046875 414 c 0
 254.3515625 354.5 279.579101562 285 337.579101562 285 c 0
 355.579101562 285 373.610351562 287.5 417.10546875 311 c 1
78.5888671875 31 m 1
 136.2265625 34 207.139648438 43 276.342773438 91 c 0
 331.583984375 129.299804688 379.979492188 197.5 402.784179688 269.5 c 1
 362.745117188 250.5 317.588867188 238 292.951171875 235 c 1
 130.194335938 238.5 118.756835938 347 129.172851562 396 c 0
 147.983398438 484.5 232.659179688 610 388.659179688 610 c 0
 489.659179688 610 598.732421875 568 553.245117188 354 c 0
 532.83984375 258 478.778320312 152.799804688 388.4921875 87 c 0
 298.5703125 21.5 217.831054688 -5.5 75.8740234375 -10 c 1
 70.115234375 -0.400390625 72.896484375 18.7998046875 78.5888671875 31 c 1
EndSplineSet
AlternateSubs2: "'aalt' Alle Alternativen zeigen 1" nine.oldstyle nine.superior nine.fitted
Substitution2: "'sups' Hochgestellte 1" nine.superior
Substitution2: "'sinf' Wissenschaftliche Indices 1" nine.inferior
Substitution2: "'pnum' Proportionalziffern 1" nine.fitted
Substitution2: "'onum' Minuskelziffern 1" nine.taboldstyle
Colour: ff00ff
EndChar

StartChar: colon
Encoding: 58 58 18
Width: 253
VWidth: 999
Flags: HW
HStem: 0 141<92.5841 173.231> 291 141<92.5841 173.231>
VStem: 61 142<27.3387 109.518 318.339 400.518>
LayerCount: 2
Fore
SplineSet
137.307617188 359 m 1
 138.370117188 364 l 1
 158.384765625 397 180.635742188 417 221.82421875 432 c 1
 225.82421875 432 l 1
 260.061523438 419 275.022460938 400 280.370117188 364 c 1
 279.307617188 359 l 1
 256.592773438 318 233.766601562 300 195.853515625 291 c 1
 191.853515625 291 l 1
 152.766601562 300 139.380859375 317 137.307617188 359 c 1
75.4541015625 68 m 1
 76.5166015625 73 l 1
 96.53125 106 118.782226562 126 159.970703125 141 c 1
 163.970703125 141 l 1
 198.20703125 128 213.168945312 109 218.516601562 73 c 1
 217.454101562 68 l 1
 194.739257812 27 171.913085938 9 134 0 c 1
 130 0 l 1
 90.9130859375 9 77.5263671875 26 75.4541015625 68 c 1
EndSplineSet
Colour: ff00ff
EndChar

StartChar: less
Encoding: 60 60 19
Width: 512
Flags: HW
HStem: 408 20G<416 471>
DStem2: 42 272 153 240 0.939793 0.341743<93.3813 428.46> 153 240 42 208 0.939793 -0.341743<0 335.079>
LayerCount: 2
Fore
SplineSet
204.013671875 240 m 1
 499.482421875 134 l 1
 482.052734375 52 l 1
 86.2119140625 208 l 1
 99.8154296875 272 l 1
 561.974609375 428 l 1
 544.544921875 346 l 1
 204.013671875 240 l 1
EndSplineSet
EndChar

StartChar: equal
Encoding: 61 61 20
Width: 551
Flags: HW
HStem: 123 70<59 493> 271 70<59 493>
LayerCount: 2
Fore
SplineSet
534.0234375 193 m 1
 519.14453125 123 l 1
 85.14453125 123 l 1
 100.0234375 193 l 1
 534.0234375 193 l 1
565.481445312 341 m 1
 550.602539062 271 l 1
 116.602539062 271 l 1
 131.481445312 341 l 1
 565.481445312 341 l 1
EndSplineSet
AlternateSubs2: "'aalt' Alle Alternativen zeigen 1" equal.superior
Substitution2: "'sinf' Wissenschaftliche Indices 1" equal.inferior
Substitution2: "'sups' Hochgestellte 1" equal.superior
EndChar

StartChar: greater
Encoding: 62 62 21
Width: 512
Flags: HW
HStem: 408 20G<42 97>
LayerCount: 2
Fore
SplineSet
411.013671875 240 m 1
 115.544921875 346 l 1
 132.974609375 428 l 1
 528.815429688 272 l 1
 515.211914062 208 l 1
 53.052734375 52 l 1
 70.482421875 134 l 1
 411.013671875 240 l 1
EndSplineSet
Colour: ff00ff
EndChar

StartChar: question
Encoding: 63 63 22
Width: 464
VWidth: 487
Flags: HW
HStem: -20 141<164.584 245.231> 610 49<154.851 257.81>
VStem: 133 142<7.33871 89.5176> 177 66<176.069 309.679> 295 128<436.782 568.365>
LayerCount: 2
Fore
SplineSet
344.659179688 610 m 0
 288.659179688 610 237.244140625 561 201.678710938 516 c 1
 168.891601562 517 l 1
 169.045898438 593 l 1
 172.896484375 597 l 1
 201.75390625 617.5 291.575195312 659 364.075195312 659 c 0
 408.174804688 659 457.446289062 655.099609375 488.973632812 635 c 0
 530.461914062 608.599609375 541.967773438 559.700195312 530.978515625 508 c 0
 514.186523438 429 430.771484375 380 376.544921875 346 c 0
 343.095703125 324.599609375 307.192382812 302 291.462890625 228 c 2
 283.172851562 189 l 2
 281.685546875 182 254.984375 174 246.984375 174 c 0
 238.984375 174 215.685546875 182 217.172851562 189 c 2
 225.887695312 230 l 2
 235.028320312 273 259.568359375 332 337.109375 391 c 0
 384.974609375 428 394.413085938 467.700195312 402.12890625 504 c 0
 409.780273438 540 391.659179688 610 344.659179688 610 c 0
143.203125 48 m 1
 144.265625 53 l 1
 164.280273438 86 186.53125 106 227.719726562 121 c 1
 231.719726562 121 l 1
 265.956054688 108 280.91796875 89 286.265625 53 c 1
 285.203125 48 l 1
 262.48828125 7 239.662109375 -11 201.749023438 -20 c 1
 197.749023438 -20 l 1
 158.662109375 -11 145.275390625 6 143.203125 48 c 1
EndSplineSet
Colour: ff80cc
EndChar

StartChar: at
Encoding: 64 64 23
Width: 1068
Flags: HMW
HStem: -170 49<435.509 699.945> 19 42<663 767.608> 30 47<467.725 559.656> 377 38<534.462 633.144> 584 47<435.721 652.987>
VStem: 92 114<110.363 336.661> 337 117<88.8325 253.701> 865 105<193.312 386.348>
DStem2: 617 193 713 141 0.222927 0.974835<-83.5955 129.137>
LayerCount: 2
Fore
SplineSet
714.018554688 320 m 0
 721.458007812 355 702.133789062 377 677.133789062 377 c 0
 580.833984375 377 510.455078125 265.599609375 488.859375 164 c 0
 478.869140625 117 479.3671875 77 526.3671875 77 c 0
 556.3671875 77 612.743164062 107 658.0234375 193 c 0
 675.038085938 226 708.916992188 296 714.018554688 320 c 0
715.94140625 75 m 0
 713.178710938 62 719.965820312 61 730.965820312 61 c 0
 767.965820312 61 892.419921875 129 923.028320312 273 c 0
 970.002929688 494 785.1328125 584 668.1328125 584 c 0
 513.1328125 584 303.563476562 459 254.462890625 228 c 0
 223.004882812 80 291.280273438 -121 535.280273438 -121 c 0
 612.280273438 -121 728.381835938 -97 801.22265625 -46 c 1
 812.372070312 -50 814.696289062 -72 813.932617188 -85 c 1
 739.517578125 -134 628.865234375 -170 505.865234375 -170 c 0
 268.865234375 -170 90.51171875 -7 138.974609375 221 c 0
 182.974609375 428 434.123046875 631 687.123046875 631 c 0
 913.123046875 631 1071.17675781 476 1031.00390625 287 c 0
 1001.24609375 147 836.0390625 19 702.0390625 19 c 0
 632.0390625 19 621.690429688 55 626.154296875 76 c 1
 577.077148438 38 504.376953125 30 480.376953125 30 c 0
 364.376953125 30 361.869140625 117 370.583984375 158 c 0
 401.404296875 303 557.2109375 415 672.2109375 415 c 0
 720.2109375 415 775.59765625 398 788.133789062 377 c 1
 832.1484375 410 l 1
 856.810546875 399 l 1
 742.970703125 141 l 2
 731.444335938 115 718.280273438 86 715.94140625 75 c 0
EndSplineSet
EndChar

StartChar: A
Encoding: 65 65 24
Width: 701
Flags: HMW
HStem: -3 21G<26 70.5 115 128.893 503.999 515.5 654 670.5> 221 53<223.642 411.509> 638 20G<267 451>
DStem2: 20 -3 200.278 219.172 0.407548 0.913184<44.0152 286.317 337.696 574.92> 405 658 323.043 494 0.382928 -0.923778<120.116 356.239>
AnchorPoint: "unten_punkt" 249.044 -108 basechar 0
AnchorPoint: "unten_anhang" 61.7002 8 basechar 0
AnchorPoint: "top_akzent" 513.62 798 basechar 0
AnchorPoint: "top_punkt" 492.79 700 basechar 0
LayerCount: 2
Fore
SplineSet
469.974609375 275.099609375 m 1
 459.14453125 338 446.060546875 411 428.002929688 494 c 1
 422.102539062 494 l 1
 282.244140625 275.900390625 l 1
 313.346679688 274.5 357.340820312 274 386.240234375 274 c 0
 409.940429688 274 441.446289062 274.5 469.974609375 275.099609375 c 1
246.892578125 219.200195312 m 1
 194.916015625 135.099609375 148.74609375 56.2001953125 120.362304688 -3 c 1
 109 0 87 0 76 0 c 0
 65 0 32 0 19.3623046875 -3 c 1
 167.336914062 218 311.674804688 436 454.862304688 658 c 1
 544.862304688 658 l 1
 584.3125 439 649.830078125 98 678.362304688 -3 c 1
 662 0 605 0 588 0 c 0
 571 0 524 0 506.362304688 -3 c 1
 504.974609375 18.7001953125 499.216796875 93.7001953125 479.198242188 219.700195312 c 1
 446.647460938 220.400390625 412.075195312 221 379.974609375 221 c 0
 344.275390625 221 285.083984375 220.099609375 246.892578125 219.200195312 c 1
EndSplineSet
Position2: "'cpsp' Versalabstaende 1" dx=2 dy=0 dh=5 dv=0
Substitution2: "'c2sc' Versale nach Kapitaelchen 1" a.sc
EndChar

StartChar: B
Encoding: 66 66 25
Width: 675
VWidth: 999
Flags: HW
HStem: -3 53<215.709 439.082> 322 53<245 401.023> 595 53<214.342 397.138>
VStem: 103 142<61.1856 322 375 585.479> 426 149<431.082 565.301> 473 161<105.896 265.022>
AnchorPoint: "unten_punkt" 265.044 -108 basechar 0
AnchorPoint: "unten_anhang" 270 0 basechar 0
AnchorPoint: "top_punkt" 450.79 700 basechar 0
AnchorPoint: "top_akzent" 470.62 798 basechar 0
LayerCount: 2
Fore
SplineSet
361.90625 550 m 2
 324.708984375 375 l 1
 402.708984375 375 l 2
 485.708984375 375 512.72265625 408 528.239257812 481 c 0
 546.795898438 568.299804688 518.470703125 595 462.470703125 595 c 0
 381.470703125 595 368.920898438 583 361.90625 550 c 2
313.443359375 322 m 1
 265.618164062 97 l 2
 258.603515625 64 272.627929688 50 342.627929688 50 c 0
 476.627929688 50 493.405273438 96 508.072265625 165 c 0
 523.206054688 236.200195312 523.443359375 322 406.443359375 322 c 2
 313.443359375 322 l 1
314.098632812 645 m 0
 377.098632812 645 441.736328125 648 476.736328125 648 c 0
 662.736328125 648 694.03125 560 679.790039062 493 c 0
 668.099609375 438 604.833984375 385 548.520507812 360 c 1
 630.206054688 335 693.515625 280 673.110351562 184 c 0
 654.830078125 98 559.362304688 -3 360.362304688 -3 c 0
 271.362304688 -3 249 0 177 0 c 0
 142 0 91.3623046875 -3 91.3623046875 -3 c 1
 91 0 l 1
 110.478515625 54 129.569335938 125 145.51171875 200 c 2
 197.587890625 445 l 2
 213.529296875 520 223.983398438 588 228.098632812 645 c 1
 230.736328125 648 l 1
 230.736328125 648 280.098632812 645 314.098632812 645 c 0
EndSplineSet
Position2: "'cpsp' Versalabstaende 1" dx=2 dy=0 dh=5 dv=0
Substitution2: "'c2sc' Versale nach Kapitaelchen 1" b.sc
EndChar

StartChar: C
Encoding: 67 67 26
Width: 691
VWidth: 999
Flags: HW
HStem: -10 60<329.73 503.017> 602 56<312.155 487.312>
VStem: 37 163<216.639 441.231>
AnchorPoint: "unten_punkt" 365.619 -110 basechar 0
AnchorPoint: "unten_anhang" 380.512 -7 basechar 0
AnchorPoint: "top_punkt" 534.79 700 basechar 0
AnchorPoint: "top_akzent" 555.62 798 basechar 0
LayerCount: 2
Fore
SplineSet
545.862304688 658 m 0
 667.862304688 658 754.296875 613 754.296875 613 c 1
 755.659179688 610 l 1
 733.380859375 560.700195312 722.467773438 531 708.02734375 480 c 1
 677.814453125 479 l 1
 654.244140625 561 609.958984375 602 519.958984375 602 c 0
 437.958984375 602 314.142578125 537 270.994140625 334 c 0
 241.0234375 193 302.627929688 50 411.627929688 50 c 0
 504.627929688 50 553.241210938 67 643.544921875 139 c 1
 660.318359375 105 l 1
 557.826171875 18 469.07421875 -10 379.874023438 -10 c 0
 295.07421875 -10 222.831054688 15.2001953125 175.903320312 56 c 0
 103.909179688 118.599609375 83.2314453125 217.5 103.955078125 315 c 0
 127.315429688 424.900390625 193.118164062 522.299804688 285.1328125 584 c 0
 358.005859375 632.799804688 454.862304688 658 545.862304688 658 c 0
EndSplineSet
Position2: "'cpsp' Versalabstaende 1" dx=2 dy=0 dh=5 dv=0
Substitution2: "'c2sc' Versale nach Kapitaelchen 1" c.sc
EndChar

StartChar: D
Encoding: 68 68 27
Width: 771
VWidth: 999
Flags: HW
HStem: -2 53<216.409 485.935> 595 53<217.556 448.867>
VStem: 101 144<64.2018 579.471> 563 165<184.471 417.062>
LayerCount: 2
Fore
SplineSet
266.467773438 101 m 2
 259.666015625 69 270.840820312 51 368.840820312 51 c 0
 509.840820312 51 580.4296875 82 623.366210938 284 c 0
 656.099609375 438 675.470703125 595 459.470703125 595 c 0
 410.470703125 595 368.283203125 580 360.84375 545 c 2
 266.467773438 101 l 2
312.098632812 645 m 0
 388.098632812 645 432.736328125 648 508.736328125 648 c 0
 700.736328125 648 833.002929688 494 793.467773438 308 c 0
 741.178710938 62 529.575195312 -2 388.575195312 -2 c 0
 285.575195312 -2 258 0 175 0 c 0
 140 0 89.3623046875 -3 89.3623046875 -3 c 1
 89 0 l 1
 108.478515625 54 127.569335938 125 143.51171875 200 c 2
 195.587890625 445 l 2
 211.529296875 520 221.983398438 588 226.098632812 645 c 1
 228.736328125 648 l 1
 228.736328125 648 278.098632812 645 312.098632812 645 c 0
EndSplineSet
Position2: "'cpsp' Versalabstaende 1" dx=2 dy=0 dh=5 dv=0
Substitution2: "'c2sc' Versale nach Kapitaelchen 1" d.sc
EndChar

StartChar: E
Encoding: 69 69 28
Width: 584
VWidth: 999
Flags: HW
HStem: 0 73<244.435 487.022> 311 61<240 463.736> 577 68<244.435 479.755>
VStem: 96 144<74.1699 311 372 575.826>
AnchorPoint: "unten_anhang" 299.851 4 basechar 0
AnchorPoint: "unten_punkt" 276.257 -107 basechar 0
AnchorPoint: "top_punkt" 448.79 700 basechar 0
AnchorPoint: "top_akzent" 474.108 805 basechar 0
LayerCount: 2
Fore
SplineSet
282.51171875 200 m 2
 278.897460938 183 261.618164062 97 263.516601562 73 c 1
 397.516601562 73 554.193359375 95 554.193359375 95 c 1
 555.342773438 91 l 1
 552.642578125 83 543.77734375 46 541.65234375 36 c 0
 539.526367188 26 537.975585938 14 536 0 c 1
 533.362304688 -3 l 1
 517.787109375 -1 495 0 474 0 c 2
 170 0 l 2
 135 0 84.3623046875 -3 84.3623046875 -3 c 1
 84 0 l 1
 103.478515625 54 122.569335938 125 138.51171875 200 c 2
 190.587890625 445 l 2
 206.529296875 520 216.983398438 588 221.098632812 645 c 1
 223.736328125 648 l 1
 223.736328125 648 273.098632812 645 307.098632812 645 c 2
 601.098632812 645 l 2
 622.098632812 645 645.311523438 646 661.736328125 648 c 1
 663.098632812 645 l 1
 659.123046875 631 655.360351562 618 653.659179688 610 c 0
 651.74609375 601 647.645507812 577 646.944335938 569 c 1
 644.094726562 565 l 1
 644.094726562 565 504.645507812 577 370.645507812 577 c 1
 358.543945312 553 338.201171875 462 334.587890625 445 c 2
 319.071289062 372 l 1
 437.071289062 372 488.133789062 377 548.196289062 382 c 1
 550.55859375 379 l 1
 546.645507812 370 541.607421875 351 539.694335938 342 c 0
 537.78125 333 534.530273438 313 534.6171875 304 c 1
 530.979492188 301 l 1
 463.467773438 308 354.10546875 311 306.10546875 311 c 1
 282.51171875 200 l 2
EndSplineSet
Position2: "'cpsp' Versalabstaende 1" dx=2 dy=0 dh=5 dv=0
Substitution2: "'c2sc' Versale nach Kapitaelchen 1" e.sc
EndChar

StartChar: F
Encoding: 70 70 29
Width: 539
VWidth: 999
Flags: HW
HStem: -3 21G<86 172 172 252> 311 61<242 465.736> 577 68<246.435 481.755>
VStem: 98 144<2.67992 311 372 575.826>
AnchorPoint: "unten_anhang" 154.787 -1 basechar 0
AnchorPoint: "unten_punkt" 197.406 -111 basechar 0
AnchorPoint: "top_punkt" 455.79 700 basechar 0
AnchorPoint: "top_akzent" 475.62 798 basechar 0
LayerCount: 2
Fore
SplineSet
600.098632812 645 m 2
 624.098632812 645 647.311523438 646 663.736328125 648 c 1
 665.098632812 645 l 1
 661.123046875 631 657.360351562 618 655.659179688 610 c 0
 653.74609375 601 649.645507812 577 648.944335938 569 c 1
 646.094726562 565 l 1
 646.094726562 565 506.645507812 577 372.645507812 577 c 1
 360.543945312 553 340.201171875 462 336.587890625 445 c 2
 321.071289062 372 l 1
 439.071289062 372 490.133789062 377 550.196289062 382 c 1
 552.55859375 379 l 1
 548.645507812 370 543.607421875 351 541.694335938 342 c 0
 539.78125 333 536.530273438 313 536.6171875 304 c 1
 532.979492188 301 l 1
 465.467773438 308 356.10546875 311 308.10546875 311 c 1
 284.51171875 200 l 2
 268.569335938 125 256.116210938 57 252 0 c 1
 249.362304688 -3 l 1
 249.362304688 -3 206 0 172 0 c 0
 137 0 86.3623046875 -3 86.3623046875 -3 c 1
 86 0 l 1
 105.478515625 54 124.569335938 125 140.51171875 200 c 2
 192.587890625 445 l 2
 208.529296875 520 218.983398438 588 223.098632812 645 c 1
 225.736328125 648 l 1
 225.736328125 648 275.098632812 645 309.098632812 645 c 2
 600.098632812 645 l 2
EndSplineSet
Position2: "'cpsp' Versalabstaende 1" dx=2 dy=0 dh=5 dv=0
Substitution2: "'c2sc' Versale nach Kapitaelchen 1" f.sc
EndChar

StartChar: G
Encoding: 71 71 30
Width: 760
VWidth: 999
Flags: HW
HStem: -10 55<337.32 524.526> 602 56<309.401 496.285>
VStem: 39 158<214.24 438.594> 546 138<83.3557 304.327>
AnchorPoint: "unten_anhang" 381.425 2 basechar 0
AnchorPoint: "unten_punkt" 357.406 -111 basechar 0
AnchorPoint: "top_punkt" 527.79 700 basechar 0
AnchorPoint: "top_akzent" 548.62 798 basechar 0
LayerCount: 2
Fore
SplineSet
570.869140625 117 m 2
 586.810546875 192 597.138671875 250 601.254882812 307 c 1
 603.892578125 310 l 1
 603.892578125 310 651.254882812 307 685.254882812 307 c 0
 720.254882812 307 758.892578125 310 758.892578125 310 c 1
 759.254882812 307 l 1
 739.989257812 254 729.061523438 212 713.120117188 137 c 0
 706.233398438 104.599609375 707.13671875 90.5 711.642578125 83 c 1
 711.004882812 80 l 1
 631.473632812 23.400390625 511.374023438 -10 394.874023438 -10 c 0
 312.57421875 -10 239.415039062 7.599609375 188.203125 48 c 0
 114.39453125 106.299804688 82.53125 204.799804688 104.254882812 307 c 0
 128.2734375 420 189.97265625 515.5 277.219726562 575 c 0
 357.91015625 630 451.862304688 658 551.862304688 658 c 0
 673.862304688 658 781.296875 613 781.296875 613 c 1
 782.659179688 610 l 1
 760.380859375 560.700195312 749.467773438 531 735.02734375 480 c 1
 704.814453125 479 l 1
 681.244140625 561 604.05859375 602 525.958984375 602 c 0
 390.958984375 602 300.727539062 488 266.505859375 327 c 0
 238.448242188 195 293.565429688 45 429.565429688 45 c 0
 483.565429688 45 522.840820312 51 563.642578125 83 c 1
 570.869140625 117 l 2
EndSplineSet
Position2: "'cpsp' Versalabstaende 1" dx=2 dy=0 dh=5 dv=0
Substitution2: "'c2sc' Versale nach Kapitaelchen 1" g.sc
EndChar

StartChar: grave
Encoding: 96 96 31
Width: 392
VWidth: 999
Flags: HW
LayerCount: 2
Fore
SplineSet
347.21484375 702 m 1
 389.857421875 578 l 2
 392.370117188 571 395.03125 560 393.331054688 552 c 0
 391.41796875 543 374.930664062 536 365.930664062 536 c 0
 357.930664062 536 345.993164062 541 332.181640625 556 c 2
 233.5 661 l 1
 237.837890625 672 l 1
 247.750976562 681 291.639648438 704 327.639648438 704 c 0
 332.639648438 704 343.427734375 703 347.21484375 702 c 1
EndSplineSet
Substitution2: "'case' Versalformen 1" grave.cap
Colour: ff00ff
EndChar

StartChar: ograve
Encoding: 242 242 32
Width: 566
VWidth: 999
Flags: HW
HStem: -10 50<234.308 349.488> 389 50<221.27 336.971>
VStem: 41 142<105.349 313.203> 383 142<109.544 320.837>
LayerCount: 2
Fore
SplineSet
399.262695312 674 m 1
 441.90625 550 l 2
 444.41796875 543 447.080078125 532 445.379882812 524 c 0
 443.466796875 515 426.978515625 508 417.978515625 508 c 0
 409.978515625 508 398.041992188 513 384.229492188 528 c 2
 285.547851562 633 l 1
 289.88671875 644 l 1
 299.799804688 653 343.688476562 676 379.688476562 676 c 0
 384.688476562 676 395.475585938 675 399.262695312 674 c 1
84.57421875 205 m 0
 117.520507812 360 235.482421875 439.799804688 378.3125 439 c 0
 547.3125 439 597.26953125 340 570.487304688 214 c 0
 541.111328125 75.7998046875 433.874023438 -10 280.874023438 -10 c 0
 131.874023438 -10 56.3037109375 72 84.57421875 205 c 0
360.684570312 389 m 0
 274.684570312 389 249.955078125 315 231.462890625 228 c 0
 215.095703125 151 201.501953125 40 305.501953125 40 c 0
 350.501953125 40 398.303710938 72 422.748046875 187 c 0
 452.29296875 326 445.684570312 389 360.684570312 389 c 0
EndSplineSet
Substitution2: "'smcp' Gemeine nach Kapitaelchen 1" ograve.sc
AlternateSubs2: "'aalt' Alle Alternativen zeigen 1" ograve.sc
Colour: ff00ff
EndChar

StartChar: oacute
Encoding: 243 243 33
Width: 566
VWidth: 999
Flags: HW
HStem: -10 50<234.308 349.488> 389 50<221.27 336.971> 507 171
VStem: 41 142<105.349 313.203> 213 184 383 142<109.544 320.837>
LayerCount: 2
Fore
SplineSet
447.688476562 676 m 1
 450.900390625 677 459.11328125 678 464.11328125 678 c 0
 494.11328125 678 520.137695312 664 526.01171875 654 c 1
 531.123046875 631 l 1
 388.166992188 523 l 2
 371.616210938 511 351.766601562 507 341.766601562 507 c 0
 333.766601562 507 322.466796875 515 323.7421875 521 c 0
 325.017578125 527 328.930664062 536 336.84375 545 c 2
 447.688476562 676 l 1
84.57421875 205 m 0
 117.520507812 360 235.482421875 439.799804688 378.3125 439 c 0
 547.3125 439 597.26953125 340 570.487304688 214 c 0
 541.111328125 75.7998046875 433.874023438 -10 280.874023438 -10 c 0
 131.874023438 -10 56.3037109375 72 84.57421875 205 c 0
360.684570312 389 m 0
 274.684570312 389 249.955078125 315 231.462890625 228 c 0
 215.095703125 151 201.501953125 40 305.501953125 40 c 0
 350.501953125 40 398.303710938 72 422.748046875 187 c 0
 452.29296875 326 445.684570312 389 360.684570312 389 c 0
EndSplineSet
Substitution2: "'smcp' Gemeine nach Kapitaelchen 1" oacute.sc
AlternateSubs2: "'aalt' Alle Alternativen zeigen 1" oacute.sc
Colour: ff00ff
EndChar

StartChar: ocircumflex
Encoding: 244 244 34
Width: 566
VWidth: 999
Flags: HW
HStem: -10 50<234.308 349.488> 389 50<221.27 336.971>
VStem: 41 142<105.349 313.203> 383 142<109.544 320.837>
LayerCount: 2
Fore
SplineSet
543.954101562 522 m 1
 511.853515625 498 l 1
 468.7421875 521 440.35546875 538 410.219726562 575 c 1
 359.930664062 536 325.7421875 521 276.853515625 498 c 1
 254.954101562 522 l 1
 356.234375 608 366.78515625 620 410.987304688 668 c 1
 450.987304688 668 l 1
 477.509765625 614 485.68359375 596 543.954101562 522 c 1
84.57421875 205 m 0
 117.520507812 360 235.482421875 439.799804688 378.3125 439 c 0
 547.3125 439 597.26953125 340 570.487304688 214 c 0
 541.111328125 75.7998046875 433.874023438 -10 280.874023438 -10 c 0
 131.874023438 -10 56.3037109375 72 84.57421875 205 c 0
360.684570312 389 m 0
 274.684570312 389 249.955078125 315 231.462890625 228 c 0
 215.095703125 151 201.501953125 40 305.501953125 40 c 0
 350.501953125 40 398.303710938 72 422.748046875 187 c 0
 452.29296875 326 445.684570312 389 360.684570312 389 c 0
EndSplineSet
Substitution2: "'smcp' Gemeine nach Kapitaelchen 1" ocircumflex.sc
AlternateSubs2: "'aalt' Alle Alternativen zeigen 1" ocircumflex.sc
Colour: ff00ff
EndChar

StartChar: otilde
Encoding: 245 245 35
Width: 566
VWidth: 999
Flags: HW
HStem: -10 50<234.308 349.488> 389 50<221.27 336.971> 513 66<298.778 385.61> 565 67<176.161 268.179>
VStem: 41 142<105.349 313.203> 130 36<521.639 551.509> 383 142<109.544 320.837> 401 36<598.092 625.75>
LayerCount: 2
Fore
SplineSet
475.0703125 579 m 0
 496.0703125 579 514.896484375 597 535.547851562 633 c 1
 569.635742188 624 l 1
 542.03125 560 500.041992188 513 449.041992188 513 c 0
 411.041992188 513 399.591796875 525 385.993164062 541 c 0
 372.393554688 557 353.094726562 565 335.094726562 565 c 0
 306.094726562 565 290.268554688 547 275.678710938 516 c 1
 241.166992188 523 l 1
 269.770507812 587 304.3359375 632 352.3359375 632 c 0
 388.3359375 632 407.360351562 618 424.958984375 602 c 0
 442.770507812 587 456.0703125 579 475.0703125 579 c 0
84.57421875 205 m 0
 117.520507812 360 235.482421875 439.799804688 378.3125 439 c 0
 547.3125 439 597.26953125 340 570.487304688 214 c 0
 541.111328125 75.7998046875 433.874023438 -10 280.874023438 -10 c 0
 131.874023438 -10 56.3037109375 72 84.57421875 205 c 0
360.684570312 389 m 0
 274.684570312 389 249.955078125 315 231.462890625 228 c 0
 215.095703125 151 201.501953125 40 305.501953125 40 c 0
 350.501953125 40 398.303710938 72 422.748046875 187 c 0
 452.29296875 326 445.684570312 389 360.684570312 389 c 0
EndSplineSet
Substitution2: "'smcp' Gemeine nach Kapitaelchen 1" otilde.sc
AlternateSubs2: "'aalt' Alle Alternativen zeigen 1" otilde.sc
Colour: ff00ff
EndChar

StartChar: odieresis
Encoding: 246 246 36
Width: 566
VWidth: 999
Flags: HW
HStem: -10 50<234.308 349.488> 389 50<221.27 336.971> 509 125<135.107 228.707 344.293 437.893>
VStem: 41 142<105.349 313.203> 120 124<524.537 618.707> 329 124<524.537 618.707> 383 142<109.544 320.837>
LayerCount: 2
Fore
SplineSet
450.370117188 571 m 0
 457.809570312 606 491.760742188 634 526.760742188 634 c 0
 559.760742188 634 581.809570312 606 574.370117188 571 c 0
 567.35546875 538 533.19140625 509 500.19140625 509 c 0
 465.19140625 509 443.35546875 538 450.370117188 571 c 0
241.370117188 571 m 0
 248.809570312 606 282.760742188 634 315.760742188 634 c 0
 350.760742188 634 372.809570312 606 365.370117188 571 c 0
 358.35546875 538 324.19140625 509 289.19140625 509 c 0
 256.19140625 509 234.35546875 538 241.370117188 571 c 0
84.57421875 205 m 0
 117.520507812 360 235.482421875 439.799804688 378.3125 439 c 0
 547.3125 439 597.26953125 340 570.487304688 214 c 0
 541.111328125 75.7998046875 433.874023438 -10 280.874023438 -10 c 0
 131.874023438 -10 56.3037109375 72 84.57421875 205 c 0
360.684570312 389 m 0
 274.684570312 389 249.955078125 315 231.462890625 228 c 0
 215.095703125 151 201.501953125 40 305.501953125 40 c 0
 350.501953125 40 398.303710938 72 422.748046875 187 c 0
 452.29296875 326 445.684570312 389 360.684570312 389 c 0
EndSplineSet
Substitution2: "'smcp' Gemeine nach Kapitaelchen 1" odieresis.sc
AlternateSubs2: "'aalt' Alle Alternativen zeigen 1" odieresis.sc
Colour: ff00ff
EndChar

StartChar: divide
Encoding: 247 247 37
Width: 545
VWidth: 999
Flags: HW
HStem: 15.2 118.2<234.731 302.325> 198 70<72 472> 333.2 118.2<234.731 302.325>
VStem: 208.3 119<38.1509 107.028> 208.3 119<356.151 425.028>
LayerCount: 2
Fore
SplineSet
291.239257812 390.200195312 m 1
 292.131835938 394.400390625 l 1
 308.919921875 422.099609375 327.569335938 438.799804688 362.047851562 451.400390625 c 1
 365.34765625 451.400390625 l 1
 394.03125 440.5 406.651367188 424.599609375 411.131835938 394.400390625 c 1
 410.239257812 390.200195312 l 1
 391.227539062 355.799804688 372.017578125 340.700195312 340.223632812 333.200195312 c 1
 336.923828125 333.200195312 l 1
 304.118164062 340.700195312 292.958007812 355 291.239257812 390.200195312 c 1
223.646484375 72.2001953125 m 1
 224.5390625 76.400390625 l 1
 241.327148438 104.099609375 259.9765625 120.799804688 294.455078125 133.400390625 c 1
 297.754882812 133.400390625 l 1
 326.438476562 122.5 339.05859375 106.599609375 343.5390625 76.400390625 c 1
 342.646484375 72.2001953125 l 1
 323.634765625 37.7998046875 304.424804688 22.7001953125 272.630859375 15.2001953125 c 1
 269.331054688 15.2001953125 l 1
 236.525390625 22.7001953125 225.364257812 37 223.646484375 72.2001953125 c 1
528.96484375 268 m 1
 514.0859375 198 l 1
 114.0859375 198 l 1
 128.96484375 268 l 1
 528.96484375 268 l 1
EndSplineSet
Colour: ff00ff
EndChar

StartChar: ugrave
Encoding: 249 249 38
Width: 591
VWidth: 999
Flags: HW
HStem: -10 77<154.5 299.051> -3 21<385 394.667 512.5 521> 412 20<65 137 137 213 365 435 435 513>
VStem: 71 132<78.6508 426.332> 372 132<116.229 426.381>
LayerCount: 2
Fore
SplineSet
391.262695312 674 m 1
 433.90625 550 l 2
 436.41796875 543 439.080078125 532 437.379882812 524 c 0
 435.466796875 515 418.978515625 508 409.978515625 508 c 0
 401.978515625 508 390.041992188 513 376.229492188 528 c 2
 277.547851562 633 l 1
 281.88671875 644 l 1
 291.799804688 653 335.688476562 676 371.688476562 676 c 0
 376.688476562 676 387.475585938 675 391.262695312 674 c 1
385.603515625 64 m 1
 316.850585938 4 242.874023438 -10 201.874023438 -10 c 0
 102.874023438 -10 82.1162109375 57 97.7822265625 126 c 2
 125.926757812 249 l 2
 142.430664062 321 150.071289062 372 156.186523438 429 c 1
 158.82421875 432 l 1
 158.82421875 432 194.186523438 429 228.186523438 429 c 0
 263.186523438 429 303.82421875 432 303.82421875 432 c 1
 304.186523438 429 l 1
 288.240234375 377.5 275.568359375 324 257.926757812 249 c 2
 236.796875 159 l 2
 217.3671875 77 244.241210938 67 274.241210938 67 c 0
 319.041015625 67 395.59375 111 407.921875 169 c 2
 424.926757812 249 l 2
 441.081054688 325 451.283203125 373 456.186523438 429 c 1
 458.82421875 432 l 1
 458.82421875 432 492.186523438 429 526.186523438 429 c 0
 561.186523438 429 603.82421875 432 603.82421875 432 c 1
 604.186523438 429 l 1
 583.920898438 376 572.868164062 324 556.926757812 249 c 2
 544.810546875 192 l 2
 528.869140625 117 522.139648438 43 521 0 c 1
 518.362304688 -3 l 1
 505.787109375 -1 458.099609375 0 445.5 0 c 0
 431 0 401.0234375 -1.2998046875 387.362304688 -3 c 0
 381.362304688 -3 378.575195312 -2 379 0 c 2
 387.603515625 64 l 1
 385.603515625 64 l 1
EndSplineSet
Substitution2: "'smcp' Gemeine nach Kapitaelchen 1" ugrave.sc
AlternateSubs2: "'aalt' Alle Alternativen zeigen 1" ugrave.sc
Colour: ff00ff
EndChar

StartChar: uacute
Encoding: 250 250 39
Width: 591
VWidth: 999
Flags: HW
HStem: -10 77<154.5 299.051> -3 21<385 394.667 512.5 521> 412 20<65 137 137 213 365 435 435 513> 507 171
VStem: 71 132<78.6508 426.332> 207 184 372 132<116.229 426.381>
LayerCount: 2
Fore
SplineSet
441.688476562 676 m 1
 444.900390625 677 453.11328125 678 458.11328125 678 c 0
 488.11328125 678 514.137695312 664 520.01171875 654 c 1
 525.123046875 631 l 1
 382.166992188 523 l 2
 365.616210938 511 345.766601562 507 335.766601562 507 c 0
 327.766601562 507 316.466796875 515 317.7421875 521 c 0
 319.017578125 527 322.930664062 536 330.84375 545 c 2
 441.688476562 676 l 1
385.603515625 64 m 1
 316.850585938 4 242.874023438 -10 201.874023438 -10 c 0
 102.874023438 -10 82.1162109375 57 97.7822265625 126 c 2
 125.926757812 249 l 2
 142.430664062 321 150.071289062 372 156.186523438 429 c 1
 158.82421875 432 l 1
 158.82421875 432 194.186523438 429 228.186523438 429 c 0
 263.186523438 429 303.82421875 432 303.82421875 432 c 1
 304.186523438 429 l 1
 288.240234375 377.5 275.568359375 324 257.926757812 249 c 2
 236.796875 159 l 2
 217.3671875 77 244.241210938 67 274.241210938 67 c 0
 319.041015625 67 395.59375 111 407.921875 169 c 2
 424.926757812 249 l 2
 441.081054688 325 451.283203125 373 456.186523438 429 c 1
 458.82421875 432 l 1
 458.82421875 432 492.186523438 429 526.186523438 429 c 0
 561.186523438 429 603.82421875 432 603.82421875 432 c 1
 604.186523438 429 l 1
 583.920898438 376 572.868164062 324 556.926757812 249 c 2
 544.810546875 192 l 2
 528.869140625 117 522.139648438 43 521 0 c 1
 518.362304688 -3 l 1
 505.787109375 -1 458.099609375 0 445.5 0 c 0
 431 0 401.0234375 -1.2998046875 387.362304688 -3 c 0
 381.362304688 -3 378.575195312 -2 379 0 c 2
 387.603515625 64 l 1
 385.603515625 64 l 1
EndSplineSet
Substitution2: "'smcp' Gemeine nach Kapitaelchen 1" uacute.sc
AlternateSubs2: "'aalt' Alle Alternativen zeigen 1" uacute.sc
Colour: ff00ff
EndChar

StartChar: ucircumflex
Encoding: 251 251 40
Width: 591
VWidth: 999
Flags: HW
HStem: -10 77<154.5 299.051> -3 21<385 394.667 512.5 521> 412 20<65 137 137 213 365 435 435 513>
VStem: 71 132<78.6508 426.332> 372 132<116.229 426.381>
LayerCount: 2
Fore
SplineSet
553.954101562 522 m 1
 521.853515625 498 l 1
 478.7421875 521 450.35546875 538 420.219726562 575 c 1
 369.930664062 536 335.7421875 521 286.853515625 498 c 1
 264.954101562 522 l 1
 366.234375 608 376.78515625 620 420.987304688 668 c 1
 460.987304688 668 l 1
 487.509765625 614 495.68359375 596 553.954101562 522 c 1
385.603515625 64 m 1
 316.850585938 4 242.874023438 -10 201.874023438 -10 c 0
 102.874023438 -10 82.1162109375 57 97.7822265625 126 c 2
 125.926757812 249 l 2
 142.430664062 321 150.071289062 372 156.186523438 429 c 1
 158.82421875 432 l 1
 158.82421875 432 194.186523438 429 228.186523438 429 c 0
 263.186523438 429 303.82421875 432 303.82421875 432 c 1
 304.186523438 429 l 1
 288.240234375 377.5 275.568359375 324 257.926757812 249 c 2
 236.796875 159 l 2
 217.3671875 77 244.241210938 67 274.241210938 67 c 0
 319.041015625 67 395.59375 111 407.921875 169 c 2
 424.926757812 249 l 2
 441.081054688 325 451.283203125 373 456.186523438 429 c 1
 458.82421875 432 l 1
 458.82421875 432 492.186523438 429 526.186523438 429 c 0
 561.186523438 429 603.82421875 432 603.82421875 432 c 1
 604.186523438 429 l 1
 583.920898438 376 572.868164062 324 556.926757812 249 c 2
 544.810546875 192 l 2
 528.869140625 117 522.139648438 43 521 0 c 1
 518.362304688 -3 l 1
 505.787109375 -1 458.099609375 0 445.5 0 c 0
 431 0 401.0234375 -1.2998046875 387.362304688 -3 c 0
 381.362304688 -3 378.575195312 -2 379 0 c 2
 387.603515625 64 l 1
 385.603515625 64 l 1
EndSplineSet
Substitution2: "'smcp' Gemeine nach Kapitaelchen 1" ucircumflex.sc
AlternateSubs2: "'aalt' Alle Alternativen zeigen 1" ucircumflex.sc
Colour: ff00ff
EndChar

StartChar: ebreve
Encoding: 277 277 41
Width: 500
VWidth: 999
Flags: HW
HStem: -10 76<219.536 361.445> 230 45<172 326> 394 50<209.436 302.919> 523 70<188.939 331.578>
VStem: 40 128<118.935 230 275 309.906> 121 33<633.075 669.182> 326 127<259 359.972> 369 32<634.158 669.281>
LayerCount: 2
Fore
SplineSet
298.750976562 681 m 1
 289.2734375 627 325.045898438 593 388.045898438 593 c 0
 435.045898438 593 497.147460938 617 513.750976562 681 c 1
 542.5625 666 l 1
 510.244140625 561 424.166992188 523 373.166992188 523 c 0
 292.166992188 523 252.345703125 585 262.5625 666 c 1
 298.750976562 681 l 1
230.453125 275 m 1
 382.453125 275 l 1
 384.877929688 277 387.641601562 290 388.916992188 296 c 0
 405.920898438 376 367.747070312 394 340.747070312 394 c 0
 329.447265625 394 301.541992188 388.799804688 280.583007812 365 c 0
 262.66796875 344.700195312 238.892578125 310 230.453125 275 c 1
469.419921875 129 m 1
 479.419921875 129 480.59375 111 477.830078125 98 c 1
 412.313476562 25 336.874023438 -10 267.874023438 -10 c 0
 196.774414062 -10 145.854492188 5.900390625 115.501953125 40 c 0
 80.94921875 78.7998046875 70.501953125 143.5 82.9365234375 202 c 0
 115.458007812 355 243.275390625 444 357.375 444 c 0
 504.375 444 527.607421875 351 509.540039062 266 c 0
 506.564453125 252 496.887695312 230 472.887695312 230 c 2
 216.887695312 230 l 1
 215.825195312 225 214.974609375 221 213.487304688 214 c 0
 187.342773438 91 245.028320312 66 323.028320312 66 c 0
 361.028320312 66 419.4921875 87 469.419921875 129 c 1
EndSplineSet
Colour: ff00ff
EndChar

StartChar: Edotaccent
Encoding: 278 278 42
Width: 584
VWidth: 999
Flags: HW
HStem: 0 73<244.435 487.022> 311 61<240 463.736> 577 68<244.435 479.755> 691 142<240.5 349.5>
VStem: 96 144<74.1699 311 372 575.826> 220 150<711.5 812.5>
LayerCount: 2
Fore
SplineSet
381.967773438 762 m 0
 390.470703125 802 430.059570312 833 472.059570312 833 c 0
 514.059570312 833 540.470703125 802 531.967773438 762 c 0
 523.465820312 722 483.876953125 691 441.876953125 691 c 0
 399.876953125 691 373.465820312 722 381.967773438 762 c 0
282.51171875 200 m 2
 278.897460938 183 261.618164062 97 263.516601562 73 c 1
 397.516601562 73 554.193359375 95 554.193359375 95 c 1
 555.342773438 91 l 1
 552.642578125 83 543.77734375 46 541.65234375 36 c 0
 539.526367188 26 537.975585938 14 536 0 c 1
 533.362304688 -3 l 1
 517.787109375 -1 495 0 474 0 c 2
 170 0 l 2
 135 0 84.3623046875 -3 84.3623046875 -3 c 1
 84 0 l 1
 103.478515625 54 122.569335938 125 138.51171875 200 c 2
 190.587890625 445 l 2
 206.529296875 520 216.983398438 588 221.098632812 645 c 1
 223.736328125 648 l 1
 223.736328125 648 273.098632812 645 307.098632812 645 c 2
 601.098632812 645 l 2
 622.098632812 645 645.311523438 646 661.736328125 648 c 1
 663.098632812 645 l 1
 659.123046875 631 655.360351562 618 653.659179688 610 c 0
 651.74609375 601 647.645507812 577 646.944335938 569 c 1
 644.094726562 565 l 1
 644.094726562 565 504.645507812 577 370.645507812 577 c 1
 358.543945312 553 338.201171875 462 334.587890625 445 c 2
 319.071289062 372 l 1
 437.071289062 372 488.133789062 377 548.196289062 382 c 1
 550.55859375 379 l 1
 546.645507812 370 541.607421875 351 539.694335938 342 c 0
 537.78125 333 534.530273438 313 534.6171875 304 c 1
 530.979492188 301 l 1
 463.467773438 308 354.10546875 311 306.10546875 311 c 1
 282.51171875 200 l 2
EndSplineSet
Position2: "'cpsp' Versalabstaende 1" dx=2 dy=0 dh=5 dv=0
Colour: ff00ff
EndChar

StartChar: edotaccent
Encoding: 279 279 43
Width: 500
VWidth: 999
Flags: HW
HStem: -10 76<219.536 361.445> 230 45<172 326> 394 50<209.436 302.919> 536 142<191.5 300.5>
VStem: 40 128<118.935 230 275 309.906> 171 150<556.5 657.5> 326 127<259 359.972>
LayerCount: 2
Fore
SplineSet
300.021484375 607 m 0
 308.524414062 647 348.11328125 678 390.11328125 678 c 0
 432.11328125 678 458.524414062 647 450.021484375 607 c 0
 441.51953125 567 401.930664062 536 359.930664062 536 c 0
 317.930664062 536 291.51953125 567 300.021484375 607 c 0
230.453125 275 m 1
 382.453125 275 l 1
 384.877929688 277 387.641601562 290 388.916992188 296 c 0
 405.920898438 376 367.747070312 394 340.747070312 394 c 0
 329.447265625 394 301.541992188 388.799804688 280.583007812 365 c 0
 262.66796875 344.700195312 238.892578125 310 230.453125 275 c 1
469.419921875 129 m 1
 479.419921875 129 480.59375 111 477.830078125 98 c 1
 412.313476562 25 336.874023438 -10 267.874023438 -10 c 0
 196.774414062 -10 145.854492188 5.900390625 115.501953125 40 c 0
 80.94921875 78.7998046875 70.501953125 143.5 82.9365234375 202 c 0
 115.458007812 355 243.275390625 444 357.375 444 c 0
 504.375 444 527.607421875 351 509.540039062 266 c 0
 506.564453125 252 496.887695312 230 472.887695312 230 c 2
 216.887695312 230 l 1
 215.825195312 225 214.974609375 221 213.487304688 214 c 0
 187.342773438 91 245.028320312 66 323.028320312 66 c 0
 361.028320312 66 419.4921875 87 469.419921875 129 c 1
EndSplineSet
Colour: ff00ff
EndChar

StartChar: Eogonek
Encoding: 280 280 44
Width: 584
VWidth: 999
Flags: HW
HStem: -193 44<421.48 488.62> 0 73<244.435 487.022> 311 61<240 463.736> 577 68<244.435 479.755>
VStem: 96 144<74.1699 311 372 575.826> 331 86<-146.871 -45.1739>
LayerCount: 2
Fore
SplineSet
492.029296875 -141 m 1
 458.015625 -174 418.9765625 -193 384.9765625 -193 c 0
 362.176757812 -193 339.0390625 -188 325.377929688 -177 c 0
 310.192382812 -164.700195312 300.391601562 -144 306.130859375 -117 c 0
 318.586914062 -58.400390625 354.80078125 -25.400390625 413.400390625 0 c 1
 170 0 l 2
 135 0 84.3623046875 -3 84.3623046875 -3 c 1
 84 0 l 1
 103.478515625 54 122.569335938 125 138.51171875 200 c 2
 190.587890625 445 l 2
 206.529296875 520 216.983398438 588 221.098632812 645 c 1
 223.736328125 648 l 1
 223.736328125 648 273.098632812 645 307.098632812 645 c 2
 601.098632812 645 l 2
 622.098632812 645 645.311523438 646 661.736328125 648 c 1
 663.098632812 645 l 1
 659.123046875 631 655.360351562 618 653.659179688 610 c 0
 651.74609375 601 647.645507812 577 646.944335938 569 c 1
 644.094726562 565 l 1
 644.094726562 565 504.645507812 577 370.645507812 577 c 1
 358.543945312 553 338.201171875 462 334.587890625 445 c 2
 319.071289062 372 l 1
 437.071289062 372 488.133789062 377 548.196289062 382 c 1
 550.55859375 379 l 1
 546.645507812 370 541.607421875 351 539.694335938 342 c 0
 537.78125 333 534.530273438 313 534.6171875 304 c 1
 530.979492188 301 l 1
 463.467773438 308 354.10546875 311 306.10546875 311 c 1
 282.51171875 200 l 2
 278.897460938 183 261.618164062 97 263.516601562 73 c 1
 397.516601562 73 554.193359375 95 554.193359375 95 c 1
 555.342773438 91 l 1
 552.642578125 83 543.77734375 46 541.65234375 36 c 0
 539.526367188 26 537.975585938 14 536 0 c 1
 533.362304688 -3 l 1
 519.4453125 -1.2001953125 499.7578125 -0.2001953125 480.700195312 0 c 1
 426.536132812 -8.2998046875 403.459960938 -63.7001953125 395.744140625 -100 c 0
 391.280273438 -121 391.329101562 -149 417.329101562 -149 c 0
 434.329101562 -149 458.155273438 -131 475.34375 -116 c 1
 478.130859375 -117 l 1
 492.029296875 -141 l 1
EndSplineSet
Position2: "'cpsp' Versalabstaende 1" dx=2 dy=0 dh=5 dv=0
Substitution2: "'c2sc' Versale nach Kapitaelchen 1" eogonek.sc
Colour: ff80cc
EndChar

StartChar: eogonek
Encoding: 281 281 45
Width: 500
VWidth: 999
Flags: HW
HStem: -193 44<275.348 367.284> -10 76<219.536 361.445> 230 45<172 326> 394 50<209.436 302.919>
VStem: 40 128<118.935 230 275 309.906> 211 86<-147.208 -59.7294> 326 127<259 359.972>
LayerCount: 2
Fore
SplineSet
372.029296875 -141 m 1
 338.015625 -174 292.9765625 -193 258.9765625 -193 c 0
 209.9765625 -193 176.140625 -164 186.130859375 -117 c 0
 194.52734375 -77.5 234.35546875 -40.2001953125 280.458984375 -9.599609375 c 1
 276.1953125 -9.900390625 272.07421875 -10 267.874023438 -10 c 0
 196.774414062 -10 145.854492188 5.900390625 115.501953125 40 c 0
 80.94921875 78.7998046875 70.501953125 143.5 82.9365234375 202 c 0
 115.458007812 355 243.275390625 444 357.375 444 c 0
 504.375 444 527.607421875 351 509.540039062 266 c 0
 506.564453125 252 496.887695312 230 472.887695312 230 c 2
 216.887695312 230 l 1
 215.825195312 225 214.974609375 221 213.487304688 214 c 0
 187.342773438 91 245.028320312 66 323.028320312 66 c 0
 361.028320312 66 419.4921875 87 469.419921875 129 c 1
 479.419921875 129 480.59375 111 477.830078125 98 c 1
 453.734375 71.2001953125 428.421875 49.5 402.471679688 32.7998046875 c 1
 408.739257812 27 l 1
 337.536132812 -21 285.734375 -53 274.46875 -106 c 0
 270.004882812 -127 271.329101562 -149 297.329101562 -149 c 0
 314.329101562 -149 338.155273438 -131 355.34375 -116 c 1
 358.130859375 -117 l 1
 372.029296875 -141 l 1
230.453125 275 m 1
 382.453125 275 l 1
 384.877929688 277 387.641601562 290 388.916992188 296 c 0
 405.920898438 376 367.747070312 394 340.747070312 394 c 0
 329.447265625 394 301.541992188 388.799804688 280.583007812 365 c 0
 262.66796875 344.700195312 238.892578125 310 230.453125 275 c 1
EndSplineSet
AlternateSubs2: "'aalt' Alle Alternativen zeigen 1" eogonek.sc
Substitution2: "'smcp' Gemeine nach Kapitaelchen 1" eogonek.sc
Colour: ff00ff
EndChar

StartChar: Ecaron
Encoding: 282 282 46
Width: 584
VWidth: 999
Flags: HW
HStem: 0 73<244.435 487.022> 311 61<240 463.736> 577 68<244.435 479.755> 684 149
VStem: 96 144<74.1699 311 372 575.826> 148 295
LayerCount: 2
Fore
SplineSet
318.470703125 802 m 1
 341.059570312 833 l 1
 383.233398438 815 421.407226562 797 460.15625 777 c 1
 506.407226562 797 554.233398438 815 604.059570312 833 c 1
 613.470703125 802 l 1
 560.818359375 766 502.678710938 723 455.388671875 684 c 1
 425.388671875 684 l 1
 395.103515625 725 354.60546875 765 318.470703125 802 c 1
282.51171875 200 m 2
 278.897460938 183 261.618164062 97 263.516601562 73 c 1
 397.516601562 73 554.193359375 95 554.193359375 95 c 1
 555.342773438 91 l 1
 552.642578125 83 543.77734375 46 541.65234375 36 c 0
 539.526367188 26 537.975585938 14 536 0 c 1
 533.362304688 -3 l 1
 517.787109375 -1 495 0 474 0 c 2
 170 0 l 2
 135 0 84.3623046875 -3 84.3623046875 -3 c 1
 84 0 l 1
 103.478515625 54 122.569335938 125 138.51171875 200 c 2
 190.587890625 445 l 2
 206.529296875 520 216.983398438 588 221.098632812 645 c 1
 223.736328125 648 l 1
 223.736328125 648 273.098632812 645 307.098632812 645 c 2
 601.098632812 645 l 2
 622.098632812 645 645.311523438 646 661.736328125 648 c 1
 663.098632812 645 l 1
 659.123046875 631 655.360351562 618 653.659179688 610 c 0
 651.74609375 601 647.645507812 577 646.944335938 569 c 1
 644.094726562 565 l 1
 644.094726562 565 504.645507812 577 370.645507812 577 c 1
 358.543945312 553 338.201171875 462 334.587890625 445 c 2
 319.071289062 372 l 1
 437.071289062 372 488.133789062 377 548.196289062 382 c 1
 550.55859375 379 l 1
 546.645507812 370 541.607421875 351 539.694335938 342 c 0
 537.78125 333 534.530273438 313 534.6171875 304 c 1
 530.979492188 301 l 1
 463.467773438 308 354.10546875 311 306.10546875 311 c 1
 282.51171875 200 l 2
EndSplineSet
Position2: "'cpsp' Versalabstaende 1" dx=2 dy=0 dh=5 dv=0
Substitution2: "'c2sc' Versale nach Kapitaelchen 1" ecaron.sc
Colour: ff00ff
EndChar

StartChar: ecaron
Encoding: 283 283 47
Width: 500
VWidth: 999
Flags: HW
HStem: -10 76<219.536 361.445> 230 45<172 326> 394 50<209.436 302.919>
VStem: 40 128<118.935 230 275 309.906> 326 127<259 359.972>
LayerCount: 2
Fore
SplineSet
253.098632812 645 m 1
 284.137695312 664 l 1
 325.611328125 638 354.572265625 619 384.708007812 582 c 1
 434.998046875 621 469.611328125 638 519.137695312 664 c 1
 542.098632812 645 l 1
 441.819335938 559 425.206054688 542 381.002929688 494 c 1
 348.002929688 494 l 1
 321.481445312 548 311.370117188 571 253.098632812 645 c 1
230.453125 275 m 1
 382.453125 275 l 1
 384.877929688 277 387.641601562 290 388.916992188 296 c 0
 405.920898438 376 367.747070312 394 340.747070312 394 c 0
 329.447265625 394 301.541992188 388.799804688 280.583007812 365 c 0
 262.66796875 344.700195312 238.892578125 310 230.453125 275 c 1
469.419921875 129 m 1
 479.419921875 129 480.59375 111 477.830078125 98 c 1
 412.313476562 25 336.874023438 -10 267.874023438 -10 c 0
 196.774414062 -10 145.854492188 5.900390625 115.501953125 40 c 0
 80.94921875 78.7998046875 70.501953125 143.5 82.9365234375 202 c 0
 115.458007812 355 243.275390625 444 357.375 444 c 0
 504.375 444 527.607421875 351 509.540039062 266 c 0
 506.564453125 252 496.887695312 230 472.887695312 230 c 2
 216.887695312 230 l 1
 215.825195312 225 214.974609375 221 213.487304688 214 c 0
 187.342773438 91 245.028320312 66 323.028320312 66 c 0
 361.028320312 66 419.4921875 87 469.419921875 129 c 1
EndSplineSet
AlternateSubs2: "'aalt' Alle Alternativen zeigen 1" ecaron.sc
Substitution2: "'smcp' Gemeine nach Kapitaelchen 1" ecaron.sc
Colour: ff00ff
EndChar

StartChar: Gcircumflex
Encoding: 284 284 48
Width: 760
VWidth: 999
Flags: HW
HStem: -10 55<337.32 524.526> 602 56<309.401 496.285> 684 149
VStem: 39 158<214.24 438.594> 246 295 546 138<83.3557 304.327>
LayerCount: 2
Fore
SplineSet
692.977539062 715 m 1
 670.388671875 684 l 1
 628.21484375 702 590.041015625 720 551.291992188 740 c 1
 505.041015625 720 457.21484375 702 407.388671875 684 c 1
 397.977539062 715 l 1
 450.629882812 751 508.76953125 794 556.059570312 833 c 1
 586.059570312 833 l 1
 616.344726562 792 656.842773438 752 692.977539062 715 c 1
570.869140625 117 m 2
 586.810546875 192 597.138671875 250 601.254882812 307 c 1
 603.892578125 310 l 1
 603.892578125 310 651.254882812 307 685.254882812 307 c 0
 720.254882812 307 758.892578125 310 758.892578125 310 c 1
 759.254882812 307 l 1
 739.989257812 254 729.061523438 212 713.120117188 137 c 0
 706.233398438 104.599609375 707.13671875 90.5 711.642578125 83 c 1
 711.004882812 80 l 1
 631.473632812 23.400390625 511.374023438 -10 394.874023438 -10 c 0
 312.57421875 -10 239.415039062 7.599609375 188.203125 48 c 0
 114.39453125 106.299804688 82.53125 204.799804688 104.254882812 307 c 0
 128.2734375 420 189.97265625 515.5 277.219726562 575 c 0
 357.91015625 630 451.862304688 658 551.862304688 658 c 0
 673.862304688 658 781.296875 613 781.296875 613 c 1
 782.659179688 610 l 1
 760.380859375 560.700195312 749.467773438 531 735.02734375 480 c 1
 704.814453125 479 l 1
 681.244140625 561 604.05859375 602 525.958984375 602 c 0
 390.958984375 602 300.727539062 488 266.505859375 327 c 0
 238.448242188 195 293.565429688 45 429.565429688 45 c 0
 483.565429688 45 522.840820312 51 563.642578125 83 c 1
 570.869140625 117 l 2
EndSplineSet
Position2: "'cpsp' Versalabstaende 1" dx=2 dy=0 dh=5 dv=0
Colour: ff00ff
EndChar

StartChar: gcircumflex
Encoding: 285 285 49
Width: 561
VWidth: 999
Flags: HW
HStem: -238 45<186.075 347.737> -18 77<180.026 292.771> -17 83<218.306 376.027> 141 40<204.851 304.686> 399 40<209.818 307.53>
VStem: 32 119<-160.411 -47.0122> 54 133<213.662 359.842> 59 112<65.7191 118.083> 326 133<216.765 354.388> 400 130<-132.575 -41.5108>
LayerCount: 2
Fore
SplineSet
513.954101562 522 m 1
 481.853515625 498 l 1
 438.7421875 521 410.35546875 538 380.219726562 575 c 1
 329.930664062 536 295.7421875 521 246.853515625 498 c 1
 224.954101562 522 l 1
 326.234375 608 336.78515625 620 380.987304688 668 c 1
 420.987304688 668 l 1
 447.509765625 614 455.68359375 596 513.954101562 522 c 1
520.428710938 289 m 0
 500.639648438 195.900390625 403.970703125 141 287.970703125 141 c 0
 253.870117188 141 227.833007812 146 214.80859375 152 c 1
 200.1953125 135 197.166015625 123.099609375 193.743164062 107 c 0
 184.603515625 64 213.541015625 59 241.541015625 59 c 0
 246.541015625 59 246.752929688 60 260.965820312 61 c 0
 284.603515625 64 308.028320312 66 325.028320312 66 c 0
 417.028320312 66 539.77734375 46 515.545898438 -68 c 0
 504.1953125 -121.400390625 449.046875 -171.5 383.8828125 -200.5 c 0
 317.169921875 -230.200195312 239.711914062 -238 174.411132812 -238 c 0
 85.2119140625 -238 -12.849609375 -211 5.642578125 -124 c 0
 10.9140625 -99.2001953125 22.5458984375 -68 44.22265625 -46 c 1
 71.1982421875 -32 112.659179688 -17.599609375 137.149414062 -4 c 1
 83.4560546875 4.5 65.8017578125 32 74.7294921875 74 c 0
 81.701171875 106.799804688 132.3203125 145 180.008789062 160 c 1
 183.072265625 165 l 1
 183.072265625 165 159.987304688 172.599609375 147.397460938 183 c 0
 125.5234375 201 102.67578125 229 114.579101562 285 c 0
 134.984375 381 236.3125 439 344.3125 439 c 0
 365.8125 439 398.07421875 436 414.784179688 430.400390625 c 1
 490.212890625 434.299804688 553.640625 434.900390625 602.3125 439 c 1
 604.674804688 436 l 1
 600.76171875 427 597.423828125 416 595.510742188 407 c 0
 593.59765625 398 592.684570312 389 592.771484375 380 c 1
 589.133789062 377 l 1
 554.84375 379.400390625 519.555664062 385.099609375 489.861328125 385.599609375 c 1
 516.498046875 364.599609375 527.76171875 323.5 520.428710938 289 c 0
387.215820312 288 m 0
 403.158203125 363 399.810546875 399 339.810546875 399 c 0
 287.810546875 399 262.669921875 356 248.641601562 290 c 0
 233.125 217 235.47265625 181 296.47265625 181 c 0
 344.47265625 181 372.125 217 387.215820312 288 c 0
179.598632812 -16 m 1
 147.860351562 -43 135.9296875 -70.900390625 128.89453125 -104 c 0
 114.440429688 -172 177.9765625 -193 211.9765625 -193 c 0
 297.9765625 -193 367.69140625 -152 380.657226562 -91 c 0
 395.366210938 -21.7998046875 328.38671875 -17 272.38671875 -17 c 0
 258.586914062 -17 231.673828125 -18 202.173828125 -18 c 0
 193.173828125 -18 185.829101562 -16.7998046875 179.598632812 -16 c 1
EndSplineSet
Colour: ff00ff
EndChar

StartChar: Gbreve
Encoding: 286 286 50
Width: 760
VWidth: 999
Flags: HW
HStem: -10 55<337.32 524.526> 602 56<309.401 496.285> 705 80<320.019 476.065>
VStem: 39 158<214.24 438.594> 249 31<817.906 834.806> 518 30<819.862 834.867> 546 138<83.3557 304.327>
LayerCount: 2
Fore
SplineSet
725.059570312 833 m 1
 702.967773438 762 621.852539062 705 548.852539062 705 c 0
 468.852539062 705 417.180664062 763 426.059570312 833 c 1
 458.759765625 841 l 1
 460.533203125 807 507.856445312 785 565.856445312 785 c 0
 619.856445312 785 681.533203125 807 696.759765625 841 c 1
 725.059570312 833 l 1
570.869140625 117 m 2
 586.810546875 192 597.138671875 250 601.254882812 307 c 1
 603.892578125 310 l 1
 603.892578125 310 651.254882812 307 685.254882812 307 c 0
 720.254882812 307 758.892578125 310 758.892578125 310 c 1
 759.254882812 307 l 1
 739.989257812 254 729.061523438 212 713.120117188 137 c 0
 706.233398438 104.599609375 707.13671875 90.5 711.642578125 83 c 1
 711.004882812 80 l 1
 631.473632812 23.400390625 511.374023438 -10 394.874023438 -10 c 0
 312.57421875 -10 239.415039062 7.599609375 188.203125 48 c 0
 114.39453125 106.299804688 82.53125 204.799804688 104.254882812 307 c 0
 128.2734375 420 189.97265625 515.5 277.219726562 575 c 0
 357.91015625 630 451.862304688 658 551.862304688 658 c 0
 673.862304688 658 781.296875 613 781.296875 613 c 1
 782.659179688 610 l 1
 760.380859375 560.700195312 749.467773438 531 735.02734375 480 c 1
 704.814453125 479 l 1
 681.244140625 561 604.05859375 602 525.958984375 602 c 0
 390.958984375 602 300.727539062 488 266.505859375 327 c 0
 238.448242188 195 293.565429688 45 429.565429688 45 c 0
 483.565429688 45 522.840820312 51 563.642578125 83 c 1
 570.869140625 117 l 2
EndSplineSet
Position2: "'cpsp' Versalabstaende 1" dx=2 dy=0 dh=5 dv=0
Substitution2: "'c2sc' Versale nach Kapitaelchen 1" gbreve.sc
Colour: ff00ff
EndChar

StartChar: gbreve
Encoding: 287 287 51
Width: 561
VWidth: 999
Flags: HW
HStem: -238 45<186.075 347.737> -18 77<180.026 292.771> -17 83<218.306 376.027> 141 40<204.851 304.686> 399 40<209.818 307.53> 523 70<189.939 332.577>
VStem: 32 119<-160.411 -47.0122> 54 133<213.662 359.842> 59 112<65.7191 118.083> 122 33<633.075 669.182> 326 133<216.765 354.388> 370 32<634.158 669.281> 400 130<-132.575 -41.5108>
LayerCount: 2
Fore
SplineSet
299.750976562 681 m 1
 290.2734375 627 326.045898438 593 389.045898438 593 c 0
 436.045898438 593 498.147460938 617 514.750976562 681 c 1
 543.5625 666 l 1
 511.244140625 561 425.166992188 523 374.166992188 523 c 0
 293.166992188 523 253.345703125 585 263.5625 666 c 1
 299.750976562 681 l 1
520.428710938 289 m 0
 500.639648438 195.900390625 403.970703125 141 287.970703125 141 c 0
 253.870117188 141 227.833007812 146 214.80859375 152 c 1
 200.1953125 135 197.166015625 123.099609375 193.743164062 107 c 0
 184.603515625 64 213.541015625 59 241.541015625 59 c 0
 246.541015625 59 246.752929688 60 260.965820312 61 c 0
 284.603515625 64 308.028320312 66 325.028320312 66 c 0
 417.028320312 66 539.77734375 46 515.545898438 -68 c 0
 504.1953125 -121.400390625 449.046875 -171.5 383.8828125 -200.5 c 0
 317.169921875 -230.200195312 239.711914062 -238 174.411132812 -238 c 0
 85.2119140625 -238 -12.849609375 -211 5.642578125 -124 c 0
 10.9140625 -99.2001953125 22.5458984375 -68 44.22265625 -46 c 1
 71.1982421875 -32 112.659179688 -17.599609375 137.149414062 -4 c 1
 83.4560546875 4.5 65.8017578125 32 74.7294921875 74 c 0
 81.701171875 106.799804688 132.3203125 145 180.008789062 160 c 1
 183.072265625 165 l 1
 183.072265625 165 159.987304688 172.599609375 147.397460938 183 c 0
 125.5234375 201 102.67578125 229 114.579101562 285 c 0
 134.984375 381 236.3125 439 344.3125 439 c 0
 365.8125 439 398.07421875 436 414.784179688 430.400390625 c 1
 490.212890625 434.299804688 553.640625 434.900390625 602.3125 439 c 1
 604.674804688 436 l 1
 600.76171875 427 597.423828125 416 595.510742188 407 c 0
 593.59765625 398 592.684570312 389 592.771484375 380 c 1
 589.133789062 377 l 1
 554.84375 379.400390625 519.555664062 385.099609375 489.861328125 385.599609375 c 1
 516.498046875 364.599609375 527.76171875 323.5 520.428710938 289 c 0
387.215820312 288 m 0
 403.158203125 363 399.810546875 399 339.810546875 399 c 0
 287.810546875 399 262.669921875 356 248.641601562 290 c 0
 233.125 217 235.47265625 181 296.47265625 181 c 0
 344.47265625 181 372.125 217 387.215820312 288 c 0
179.598632812 -16 m 1
 147.860351562 -43 135.9296875 -70.900390625 128.89453125 -104 c 0
 114.440429688 -172 177.9765625 -193 211.9765625 -193 c 0
 297.9765625 -193 367.69140625 -152 380.657226562 -91 c 0
 395.366210938 -21.7998046875 328.38671875 -17 272.38671875 -17 c 0
 258.586914062 -17 231.673828125 -18 202.173828125 -18 c 0
 193.173828125 -18 185.829101562 -16.7998046875 179.598632812 -16 c 1
EndSplineSet
AlternateSubs2: "'aalt' Alle Alternativen zeigen 1" gbreve.sc
Substitution2: "'smcp' Gemeine nach Kapitaelchen 1" gbreve.sc
Colour: ff00ff
EndChar

StartChar: Gdotaccent
Encoding: 288 288 52
Width: 760
VWidth: 999
Flags: HW
HStem: -10 55<337.32 524.526> 602 56<309.401 496.285> 691 142<340.5 449.5>
VStem: 39 158<214.24 438.594> 320 150<711.5 812.5> 546 138<83.3557 304.327>
LayerCount: 2
Fore
SplineSet
481.967773438 762 m 0
 490.470703125 802 530.059570312 833 572.059570312 833 c 0
 614.059570312 833 640.470703125 802 631.967773438 762 c 0
 623.465820312 722 583.876953125 691 541.876953125 691 c 0
 499.876953125 691 473.465820312 722 481.967773438 762 c 0
570.869140625 117 m 2
 586.810546875 192 597.138671875 250 601.254882812 307 c 1
 603.892578125 310 l 1
 603.892578125 310 651.254882812 307 685.254882812 307 c 0
 720.254882812 307 758.892578125 310 758.892578125 310 c 1
 759.254882812 307 l 1
 739.989257812 254 729.061523438 212 713.120117188 137 c 0
 706.233398438 104.599609375 707.13671875 90.5 711.642578125 83 c 1
 711.004882812 80 l 1
 631.473632812 23.400390625 511.374023438 -10 394.874023438 -10 c 0
 312.57421875 -10 239.415039062 7.599609375 188.203125 48 c 0
 114.39453125 106.299804688 82.53125 204.799804688 104.254882812 307 c 0
 128.2734375 420 189.97265625 515.5 277.219726562 575 c 0
 357.91015625 630 451.862304688 658 551.862304688 658 c 0
 673.862304688 658 781.296875 613 781.296875 613 c 1
 782.659179688 610 l 1
 760.380859375 560.700195312 749.467773438 531 735.02734375 480 c 1
 704.814453125 479 l 1
 681.244140625 561 604.05859375 602 525.958984375 602 c 0
 390.958984375 602 300.727539062 488 266.505859375 327 c 0
 238.448242188 195 293.565429688 45 429.565429688 45 c 0
 483.565429688 45 522.840820312 51 563.642578125 83 c 1
 570.869140625 117 l 2
EndSplineSet
Position2: "'cpsp' Versalabstaende 1" dx=2 dy=0 dh=5 dv=0
Colour: ff00ff
EndChar

StartChar: gdotaccent
Encoding: 289 289 53
Width: 561
VWidth: 999
Flags: HW
HStem: -238 45<186.075 347.737> -18 77<180.026 292.771> -17 83<218.306 376.027> 141 40<204.851 304.686> 399 40<209.818 307.53> 536 142<209.5 318.5>
VStem: 32 119<-160.411 -47.0122> 54 133<213.662 359.842> 59 112<65.7191 118.083> 189 150<556.5 657.5> 326 133<216.765 354.388> 400 130<-132.575 -41.5108>
LayerCount: 2
Fore
SplineSet
318.021484375 607 m 0
 326.524414062 647 366.11328125 678 408.11328125 678 c 0
 450.11328125 678 476.524414062 647 468.021484375 607 c 0
 459.51953125 567 419.930664062 536 377.930664062 536 c 0
 335.930664062 536 309.51953125 567 318.021484375 607 c 0
520.428710938 289 m 0
 500.639648438 195.900390625 403.970703125 141 287.970703125 141 c 0
 253.870117188 141 227.833007812 146 214.80859375 152 c 1
 200.1953125 135 197.166015625 123.099609375 193.743164062 107 c 0
 184.603515625 64 213.541015625 59 241.541015625 59 c 0
 246.541015625 59 246.752929688 60 260.965820312 61 c 0
 284.603515625 64 308.028320312 66 325.028320312 66 c 0
 417.028320312 66 539.77734375 46 515.545898438 -68 c 0
 504.1953125 -121.400390625 449.046875 -171.5 383.8828125 -200.5 c 0
 317.169921875 -230.200195312 239.711914062 -238 174.411132812 -238 c 0
 85.2119140625 -238 -12.849609375 -211 5.642578125 -124 c 0
 10.9140625 -99.2001953125 22.5458984375 -68 44.22265625 -46 c 1
 71.1982421875 -32 112.659179688 -17.599609375 137.149414062 -4 c 1
 83.4560546875 4.5 65.8017578125 32 74.7294921875 74 c 0
 81.701171875 106.799804688 132.3203125 145 180.008789062 160 c 1
 183.072265625 165 l 1
 183.072265625 165 159.987304688 172.599609375 147.397460938 183 c 0
 125.5234375 201 102.67578125 229 114.579101562 285 c 0
 134.984375 381 236.3125 439 344.3125 439 c 0
 365.8125 439 398.07421875 436 414.784179688 430.400390625 c 1
 490.212890625 434.299804688 553.640625 434.900390625 602.3125 439 c 1
 604.674804688 436 l 1
 600.76171875 427 597.423828125 416 595.510742188 407 c 0
 593.59765625 398 592.684570312 389 592.771484375 380 c 1
 589.133789062 377 l 1
 554.84375 379.400390625 519.555664062 385.099609375 489.861328125 385.599609375 c 1
 516.498046875 364.599609375 527.76171875 323.5 520.428710938 289 c 0
387.215820312 288 m 0
 403.158203125 363 399.810546875 399 339.810546875 399 c 0
 287.810546875 399 262.669921875 356 248.641601562 290 c 0
 233.125 217 235.47265625 181 296.47265625 181 c 0
 344.47265625 181 372.125 217 387.215820312 288 c 0
179.598632812 -16 m 1
 147.860351562 -43 135.9296875 -70.900390625 128.89453125 -104 c 0
 114.440429688 -172 177.9765625 -193 211.9765625 -193 c 0
 297.9765625 -193 367.69140625 -152 380.657226562 -91 c 0
 395.366210938 -21.7998046875 328.38671875 -17 272.38671875 -17 c 0
 258.586914062 -17 231.673828125 -18 202.173828125 -18 c 0
 193.173828125 -18 185.829101562 -16.7998046875 179.598632812 -16 c 1
EndSplineSet
Colour: ff00ff
EndChar

StartChar: Gcommaaccent
Encoding: 290 290 54
Width: 760
VWidth: 999
Flags: HW
HStem: -243 30<309.114 389.834> -144 102<331.25 400.163> -10 55<337.32 524.526> 602 56<309.401 496.285>
VStem: 39 158<214.24 438.594> 403 65<-202.409 -145.496> 546 138<83.3557 304.327>
LayerCount: 2
Fore
SplineSet
295.381835938 -97 m 1
 296.232421875 -93 l 1
 304.758789062 -67 334.22265625 -46 371.072265625 -42 c 1
 377.072265625 -42 l 1
 398.462890625 -44.400390625 417.944335938 -50.599609375 428.333984375 -69 c 0
 439.309570312 -88.400390625 442.9609375 -117.799804688 436.75390625 -147 c 0
 421.237304688 -220 338.348632812 -243 262.348632812 -243 c 1
 256.411132812 -238 257.8125 -222 263.725585938 -213 c 1
 328.725585938 -213 360.701171875 -199 364.52734375 -181 c 0
 369.203125 -159 359.952148438 -145.599609375 344.391601562 -144 c 0
 305.2421875 -140 291.430664062 -125 295.381835938 -97 c 1
570.869140625 117 m 2
 586.810546875 192 597.138671875 250 601.254882812 307 c 1
 603.892578125 310 l 1
 603.892578125 310 651.254882812 307 685.254882812 307 c 0
 720.254882812 307 758.892578125 310 758.892578125 310 c 1
 759.254882812 307 l 1
 739.989257812 254 729.061523438 212 713.120117188 137 c 0
 706.233398438 104.599609375 707.13671875 90.5 711.642578125 83 c 1
 711.004882812 80 l 1
 631.473632812 23.400390625 511.374023438 -10 394.874023438 -10 c 0
 312.57421875 -10 239.415039062 7.599609375 188.203125 48 c 0
 114.39453125 106.299804688 82.53125 204.799804688 104.254882812 307 c 0
 128.2734375 420 189.97265625 515.5 277.219726562 575 c 0
 357.91015625 630 451.862304688 658 551.862304688 658 c 0
 673.862304688 658 781.296875 613 781.296875 613 c 1
 782.659179688 610 l 1
 760.380859375 560.700195312 749.467773438 531 735.02734375 480 c 1
 704.814453125 479 l 1
 681.244140625 561 604.05859375 602 525.958984375 602 c 0
 390.958984375 602 300.727539062 488 266.505859375 327 c 0
 238.448242188 195 293.565429688 45 429.565429688 45 c 0
 483.565429688 45 522.840820312 51 563.642578125 83 c 1
 570.869140625 117 l 2
EndSplineSet
Position2: "'cpsp' Versalabstaende 1" dx=2 dy=0 dh=5 dv=0
Colour: ff00ff
EndChar

StartChar: gcommaaccent
Encoding: 291 291 55
Width: 561
VWidth: 999
Flags: HW
HStem: -238 45<186.075 347.737> -18 77<180.026 292.771> -17 83<218.306 376.027> 141 40<204.851 304.686> 399 40<209.818 307.53> 497 113<243.626 311.5> 690 30<287.751 335.327>
VStem: 32 119<-160.411 -47.0122> 54 133<213.662 359.842> 59 112<65.7191 118.083> 178 65<571.5 655.449> 326 133<216.765 354.388> 400 130<-132.575 -41.5108>
LayerCount: 2
Fore
SplineSet
450.819335938 559 m 1
 449.96875 555 l 1
 441.442382812 529 406.491210938 501 369.640625 497 c 1
 363.640625 497 l 1
 319.703125 502 293.41796875 543 305.534179688 600 c 0
 318.712890625 662 404.915039062 710 483.041015625 720 c 1
 489.977539062 715 487.577148438 699 481.6640625 690 c 1
 412.900390625 677 381.586914062 652 377.760742188 634 c 0
 373.084960938 612 382.659179688 610 398.659179688 610 c 1
 437.383789062 604 454.770507812 587 450.819335938 559 c 1
520.428710938 289 m 0
 500.639648438 195.900390625 403.970703125 141 287.970703125 141 c 0
 253.870117188 141 227.833007812 146 214.80859375 152 c 1
 200.1953125 135 197.166015625 123.099609375 193.743164062 107 c 0
 184.603515625 64 213.541015625 59 241.541015625 59 c 0
 246.541015625 59 246.752929688 60 260.965820312 61 c 0
 284.603515625 64 308.028320312 66 325.028320312 66 c 0
 417.028320312 66 539.77734375 46 515.545898438 -68 c 0
 504.1953125 -121.400390625 449.046875 -171.5 383.8828125 -200.5 c 0
 317.169921875 -230.200195312 239.711914062 -238 174.411132812 -238 c 0
 85.2119140625 -238 -12.849609375 -211 5.642578125 -124 c 0
 10.9140625 -99.2001953125 22.5458984375 -68 44.22265625 -46 c 1
 71.1982421875 -32 112.659179688 -17.599609375 137.149414062 -4 c 1
 83.4560546875 4.5 65.8017578125 32 74.7294921875 74 c 0
 81.701171875 106.799804688 132.3203125 145 180.008789062 160 c 1
 183.072265625 165 l 1
 183.072265625 165 159.987304688 172.599609375 147.397460938 183 c 0
 125.5234375 201 102.67578125 229 114.579101562 285 c 0
 134.984375 381 236.3125 439 344.3125 439 c 0
 365.8125 439 398.07421875 436 414.784179688 430.400390625 c 1
 490.212890625 434.299804688 553.640625 434.900390625 602.3125 439 c 1
 604.674804688 436 l 1
 600.76171875 427 597.423828125 416 595.510742188 407 c 0
 593.59765625 398 592.684570312 389 592.771484375 380 c 1
 589.133789062 377 l 1
 554.84375 379.400390625 519.555664062 385.099609375 489.861328125 385.599609375 c 1
 516.498046875 364.599609375 527.76171875 323.5 520.428710938 289 c 0
387.215820312 288 m 0
 403.158203125 363 399.810546875 399 339.810546875 399 c 0
 287.810546875 399 262.669921875 356 248.641601562 290 c 0
 233.125 217 235.47265625 181 296.47265625 181 c 0
 344.47265625 181 372.125 217 387.215820312 288 c 0
179.598632812 -16 m 1
 147.860351562 -43 135.9296875 -70.900390625 128.89453125 -104 c 0
 114.440429688 -172 177.9765625 -193 211.9765625 -193 c 0
 297.9765625 -193 367.69140625 -152 380.657226562 -91 c 0
 395.366210938 -21.7998046875 328.38671875 -17 272.38671875 -17 c 0
 258.586914062 -17 231.673828125 -18 202.173828125 -18 c 0
 193.173828125 -18 185.829101562 -16.7998046875 179.598632812 -16 c 1
EndSplineSet
Colour: ff00ff
EndChar

StartChar: Hcircumflex
Encoding: 292 292 56
Width: 788
VWidth: 999
Flags: HW
HStem: -3 21<91 175 175 259 539 623 623 707> 311 52<237 563> 628 20<91 175 175 259 539 623 623 707> 745 149
VStem: 103 144<2.67992 642.32> 244 295 551 144<2.67992 642.32>
LayerCount: 2
Fore
SplineSet
703.944335938 776 m 1
 681.354492188 745 l 1
 639.180664062 763 601.006835938 781 562.2578125 801 c 1
 516.006835938 781 468.180664062 763 418.354492188 745 c 1
 408.944335938 776 l 1
 461.595703125 812 519.736328125 855 567.025390625 894 c 1
 597.025390625 894 l 1
 627.310546875 853 667.80859375 813 703.944335938 776 c 1
645.587890625 445 m 2
 661.529296875 520 671.983398438 588 676.098632812 645 c 1
 678.736328125 648 l 1
 678.736328125 648 726.098632812 645 760.098632812 645 c 0
 795.098632812 645 843.736328125 648 843.736328125 648 c 1
 844.098632812 645 l 1
 824.833007812 592 805.529296875 520 789.587890625 445 c 2
 737.51171875 200 l 2
 721.569335938 125 711.116210938 57 707 0 c 1
 704.362304688 -3 l 1
 704.362304688 -3 657 0 623 0 c 0
 588 0 539.362304688 -3 539.362304688 -3 c 1
 539 0 l 1
 558.478515625 54 577.569335938 125 593.51171875 200 c 2
 617.10546875 311 l 1
 313.10546875 311 l 1
 289.51171875 200 l 2
 273.569335938 125 263.116210938 57 259 0 c 1
 256.362304688 -3 l 1
 256.362304688 -3 209 0 175 0 c 0
 140 0 91.3623046875 -3 91.3623046875 -3 c 1
 91 0 l 1
 110.478515625 54 129.569335938 125 145.51171875 200 c 2
 197.587890625 445 l 2
 213.529296875 520 223.983398438 588 228.098632812 645 c 1
 230.736328125 648 l 1
 230.736328125 648 278.098632812 645 312.098632812 645 c 0
 347.098632812 645 395.736328125 648 395.736328125 648 c 1
 396.098632812 645 l 1
 376.833007812 592 357.529296875 520 341.587890625 445 c 2
 324.158203125 363 l 1
 628.158203125 363 l 1
 645.587890625 445 l 2
EndSplineSet
Position2: "'cpsp' Versalabstaende 1" dx=2 dy=0 dh=5 dv=0
Colour: ff00ff
EndChar

StartChar: hcircumflex
Encoding: 293 293 57
Width: 606
VWidth: 999
Flags: HW
HStem: -3 21<74 155 155 224 380 465 465 528> 362 77<304.364 434> 678 20<206.465 222.167> 745 149
VStem: 86 132<2.6647 307.95 351 659.981> 197 295 386 132<2.6647 348.673>
LayerCount: 2
Fore
SplineSet
186.751953125 474 m 2
 202.90625 550 213.3359375 619.299804688 214.712890625 662 c 1
 217.350585938 665 l 1
 258.487304688 668 340.138671875 688 367.364257812 698 c 1
 373.6640625 698 375.7265625 695 374.239257812 688 c 0
 353.508789062 626.700195312 340.219726562 575 324.278320312 500 c 2
 311.099609375 438 l 1
 288.607421875 351 l 1
 292.182617188 349 l 1
 350.72265625 408 431.3125 439 482.3125 439 c 0
 572.3125 439 598.984375 381 579.853515625 291 c 2
 556.259765625 180 l 2
 540.10546875 104 531.116210938 57 528 0 c 1
 525.362304688 -3 l 1
 525.362304688 -3 499 0 465 0 c 0
 430 0 380.362304688 -3 380.362304688 -3 c 1
 380 0 l 1
 397.265625 53 408.318359375 105 424.259765625 180 c 2
 443.177734375 269 l 2
 458.694335938 342 437.9453125 362 410.9453125 362 c 0
 374.9453125 362 326.568359375 332 277.94140625 282 c 1
 256.259765625 180 l 2
 240.10546875 104 231.116210938 57 224 0 c 1
 221.362304688 -3 l 1
 221.362304688 -3 189.299804688 0 155 0 c 0
 120 0 74.3623046875 -3 74.3623046875 -3 c 1
 74 0 l 1
 93.8720703125 53.5 108.318359375 105 124.259765625 180 c 2
 186.751953125 474 l 2
656.944335938 776 m 1
 634.354492188 745 l 1
 592.180664062 763 554.006835938 781 515.2578125 801 c 1
 469.006835938 781 421.180664062 763 371.354492188 745 c 1
 361.944335938 776 l 1
 414.595703125 812 472.736328125 855 520.025390625 894 c 1
 550.025390625 894 l 1
 580.310546875 853 620.80859375 813 656.944335938 776 c 1
EndSplineSet
Colour: ff00ff
EndChar

StartChar: Hbar
Encoding: 294 294 58
Width: 788
VWidth: 999
Flags: HW
HStem: -3 21<91 175 175 259 539 623 623 707> 311 52<237 563> 512 44<41 761> 628 20<91 175 175 259 539 623 623 707>
VStem: 103 144<2.67992 642.32> 551 144<2.67992 642.32>
LayerCount: 2
Fore
SplineSet
617.10546875 311 m 1
 313.10546875 311 l 1
 289.51171875 200 l 2
 273.569335938 125 263.116210938 57 259 0 c 1
 256.362304688 -3 l 1
 256.362304688 -3 209 0 175 0 c 0
 140 0 91.3623046875 -3 91.3623046875 -3 c 1
 91 0 l 1
 110.478515625 54 129.569335938 125 145.51171875 200 c 2
 197.587890625 445 l 2
 202.4765625 468 206.9375 490.400390625 210.728515625 512 c 1
 149.829101562 512 l 1
 159.181640625 556 l 1
 217.881835938 556 l 1
 222.662109375 587.900390625 226.095703125 617.700195312 228.098632812 645 c 1
 230.736328125 648 l 1
 230.736328125 648 278.098632812 645 312.098632812 645 c 0
 347.098632812 645 395.736328125 648 395.736328125 648 c 1
 396.098632812 645 l 1
 386.71484375 619.200195312 377.375 588.900390625 368.381835938 556 c 1
 665.881835938 556 l 1
 670.662109375 587.900390625 674.095703125 617.700195312 676.098632812 645 c 1
 678.736328125 648 l 1
 678.736328125 648 726.098632812 645 760.098632812 645 c 0
 795.098632812 645 843.736328125 648 843.736328125 648 c 1
 844.098632812 645 l 1
 834.71484375 619.200195312 825.375 588.900390625 816.381835938 556 c 1
 879.181640625 556 l 1
 869.829101562 512 l 1
 804.928710938 512 l 1
 799.595703125 490.200195312 794.43359375 467.799804688 789.587890625 445 c 2
 737.51171875 200 l 2
 721.569335938 125 711.116210938 57 707 0 c 1
 704.362304688 -3 l 1
 704.362304688 -3 657 0 623 0 c 0
 588 0 539.362304688 -3 539.362304688 -3 c 1
 539 0 l 1
 558.478515625 54 577.569335938 125 593.51171875 200 c 2
 617.10546875 311 l 1
628.158203125 363 m 1
 645.587890625 445 l 2
 650.4765625 468 654.9375 490.400390625 658.728515625 512 c 1
 356.928710938 512 l 1
 351.595703125 490.200195312 346.43359375 467.799804688 341.587890625 445 c 2
 324.158203125 363 l 1
 628.158203125 363 l 1
EndSplineSet
Position2: "'cpsp' Versalabstaende 1" dx=2 dy=0 dh=5 dv=0
Colour: ff80cc
EndChar

StartChar: hbar
Encoding: 295 295 59
Width: 606
VWidth: 999
Flags: HW
HStem: -3 21<74 155 155 224 380 465 465 528> 362 77<304.364 434> 523 51<-9 338> 678 20<206.465 222.167>
VStem: 86 132<2.6647 307.95 351 659.981> 386 132<2.6647 348.673>
LayerCount: 2
Fore
SplineSet
102.166992188 523 m 1
 113.0078125 574 l 1
 142.603515625 572.099609375 172.963867188 570.5 204.55078125 569.5 c 1
 210.373046875 606.299804688 213.974609375 638.299804688 214.712890625 662 c 1
 217.350585938 665 l 1
 258.487304688 668 340.138671875 688 367.364257812 698 c 1
 373.6640625 698 375.7265625 695 374.239257812 688 c 0
 360.466796875 647.200195312 349.987304688 610.599609375 339.759765625 568.599609375 c 1
 377.629882812 569.400390625 417.590820312 571.099609375 460.0078125 574 c 1
 449.166992188 523 l 1
 410.44140625 525.700195312 370.844726562 527.599609375 330.415039062 528.400390625 c 1
 328.380859375 519.299804688 326.361328125 509.799804688 324.278320312 500 c 2
 311.099609375 438 l 1
 288.607421875 351 l 1
 292.182617188 349 l 1
 350.72265625 408 431.3125 439 482.3125 439 c 0
 572.3125 439 598.984375 381 579.853515625 291 c 2
 556.259765625 180 l 2
 540.10546875 104 531.116210938 57 528 0 c 1
 525.362304688 -3 l 1
 525.362304688 -3 499 0 465 0 c 0
 430 0 380.362304688 -3 380.362304688 -3 c 1
 380 0 l 1
 397.265625 53 408.318359375 105 424.259765625 180 c 2
 443.177734375 269 l 2
 458.694335938 342 437.9453125 362 410.9453125 362 c 0
 374.9453125 362 326.568359375 332 277.94140625 282 c 1
 256.259765625 180 l 2
 240.10546875 104 231.116210938 57 224 0 c 1
 221.362304688 -3 l 1
 221.362304688 -3 189.299804688 0 155 0 c 0
 120 0 74.3623046875 -3 74.3623046875 -3 c 1
 74 0 l 1
 93.8720703125 53.5 108.318359375 105 124.259765625 180 c 2
 186.751953125 474 l 2
 190.663085938 492.400390625 194.2890625 510.400390625 197.465820312 527.700195312 c 1
 166.25390625 526.700195312 134.413085938 525.099609375 102.166992188 523 c 1
EndSplineSet
Colour: ff80cc
EndChar

StartChar: Itilde
Encoding: 296 296 60
Width: 351
VWidth: 999
Flags: HW
HStem: -3 21<94 178 178 262> 628 20<94 178 178 262> 714 66<185.778 272.61> 766 67<63.1606 155.179>
VStem: 17 36<722.639 752.509> 106 144<2.67992 642.32> 288 36<799.092 826.75>
LayerCount: 2
Fore
SplineSet
404.793945312 780 m 0
 425.793945312 780 444.620117188 798 465.272460938 834 c 1
 499.359375 825 l 1
 471.755859375 761 429.765625 714 378.765625 714 c 0
 340.765625 714 329.31640625 726 315.716796875 742 c 0
 302.118164062 758 282.818359375 766 264.818359375 766 c 0
 235.818359375 766 219.9921875 748 205.403320312 717 c 1
 170.890625 724 l 1
 199.494140625 788 234.059570312 833 282.059570312 833 c 0
 318.059570312 833 337.083984375 819 354.682617188 803 c 0
 372.494140625 788 385.793945312 780 404.793945312 780 c 0
200.587890625 445 m 2
 216.529296875 520 226.983398438 588 231.098632812 645 c 1
 233.736328125 648 l 1
 233.736328125 648 281.098632812 645 315.098632812 645 c 0
 350.098632812 645 398.736328125 648 398.736328125 648 c 1
 399.098632812 645 l 1
 379.833007812 592 360.529296875 520 344.587890625 445 c 2
 292.51171875 200 l 2
 276.569335938 125 266.116210938 57 262 0 c 1
 259.362304688 -3 l 1
 259.362304688 -3 212 0 178 0 c 0
 143 0 94.3623046875 -3 94.3623046875 -3 c 1
 94 0 l 1
 113.478515625 54 132.569335938 125 148.51171875 200 c 2
 200.587890625 445 l 2
EndSplineSet
Position2: "'cpsp' Versalabstaende 1" dx=2 dy=0 dh=5 dv=0
Colour: ff00ff
EndChar

StartChar: itilde
Encoding: 297 297 61
Width: 310
VWidth: 999
Flags: HW
HStem: -3 21<80 97 215 232> 412 20<80 92.2366 216.006 226> 513 66<162.6 240.749> 565 67<52.2445 135.061>
VStem: 10.7 32.4<521.639 551.509> 90 132<2.6647 421.154> 254.6 32.4<598.092 625.75>
LayerCount: 2
Fore
SplineSet
333.5703125 579 m 0
 352.470703125 579 369.795898438 597 389.1484375 633 c 1
 419.635742188 624 l 1
 393.431640625 560 354.641601562 513 308.741210938 513 c 0
 274.541992188 513 264.4921875 525 252.592773438 541 c 0
 240.694335938 557 223.494140625 565 207.294921875 565 c 0
 181.194335938 565 166.568359375 547 152.779296875 516 c 1
 121.8671875 523 l 1
 148.970703125 587 181.036132812 632 224.235351562 632 c 0
 256.635742188 632 273.459960938 618 288.958984375 602 c 0
 304.670898438 587 316.470703125 579 333.5703125 579 c 0
139.951171875 235 m 2
 155.892578125 310 169.833984375 385 170.974609375 428 c 1
 174.82421875 432 l 1
 193.217773438 431.5 219.186523438 429 245.186523438 429 c 0
 273.186523438 429 300.909179688 432.400390625 315.25 434 c 0
 321.25 434 323.612304688 431 322.124023438 424 c 0
 304.158203125 363 290.23046875 321 274.2890625 246 c 2
 260.259765625 180 l 2
 244.10546875 104 236.116210938 57 232 0 c 1
 229.362304688 -3 l 1
 199.787109375 -1 190 0 156 0 c 0
 121 0 111.787109375 -1 81.3623046875 -3 c 1
 80 0 l 1
 99.478515625 54 112.318359375 105 128.259765625 180 c 2
 139.951171875 235 l 2
EndSplineSet
Colour: ff00ff
EndChar

StartChar: Imacron
Encoding: 298 298 62
Width: 351
VWidth: 999
Flags: HW
HStem: -3 21<94 178 178 262> 628 20<94 178 178 262> 744 60<16.837 324.084>
VStem: 13 315<744.849 803.524> 106 144<2.67992 642.32>
LayerCount: 2
Fore
SplineSet
460.141601562 744 m 2
 186.141601562 744 l 2
 175.141601562 744 174.118164062 758 176.03125 767 c 0
 178.58203125 779 195.895507812 804 208.895507812 804 c 2
 484.895507812 804 l 2
 494.895507812 804 495.919921875 790 494.21875 782 c 0
 491.456054688 769 474.141601562 744 460.141601562 744 c 2
200.587890625 445 m 2
 216.529296875 520 226.983398438 588 231.098632812 645 c 1
 233.736328125 648 l 1
 233.736328125 648 281.098632812 645 315.098632812 645 c 0
 350.098632812 645 398.736328125 648 398.736328125 648 c 1
 399.098632812 645 l 1
 379.833007812 592 360.529296875 520 344.587890625 445 c 2
 292.51171875 200 l 2
 276.569335938 125 266.116210938 57 262 0 c 1
 259.362304688 -3 l 1
 259.362304688 -3 212 0 178 0 c 0
 143 0 94.3623046875 -3 94.3623046875 -3 c 1
 94 0 l 1
 113.478515625 54 132.569335938 125 148.51171875 200 c 2
 200.587890625 445 l 2
EndSplineSet
Position2: "'cpsp' Versalabstaende 1" dx=2 dy=0 dh=5 dv=0
Colour: ff00ff
EndChar

StartChar: imacron
Encoding: 299 299 63
Width: 310
VWidth: 999
Flags: HW
HStem: -3 21<80 97 215 232> 412 20<80 92.2366 216.006 226> 530 60<23.5533 300.076>
VStem: 20.1 283.5<530.849 589.524> 90 132<2.6647 421.154>
LayerCount: 2
Fore
SplineSet
392.854492188 530 m 2
 146.254882812 530 l 2
 136.354492188 530 135.73046875 544 137.643554688 553 c 0
 140.194335938 565 156.30859375 590 168.008789062 590 c 2
 416.408203125 590 l 2
 425.408203125 590 426.032226562 576 424.33203125 568 c 0
 421.569335938 555 405.455078125 530 392.854492188 530 c 2
139.951171875 235 m 2
 155.892578125 310 169.833984375 385 170.974609375 428 c 1
 174.82421875 432 l 1
 193.217773438 431.5 219.186523438 429 245.186523438 429 c 0
 273.186523438 429 300.909179688 432.400390625 315.25 434 c 0
 321.25 434 323.612304688 431 322.124023438 424 c 0
 304.158203125 363 290.23046875 321 274.2890625 246 c 2
 260.259765625 180 l 2
 244.10546875 104 236.116210938 57 232 0 c 1
 229.362304688 -3 l 1
 199.787109375 -1 190 0 156 0 c 0
 121 0 111.787109375 -1 81.3623046875 -3 c 1
 80 0 l 1
 99.478515625 54 112.318359375 105 128.259765625 180 c 2
 139.951171875 235 l 2
EndSplineSet
Colour: ff00ff
EndChar

StartChar: Ibreve
Encoding: 300 300 64
Width: 351
VWidth: 999
Flags: HW
HStem: -3 21<94 178 178 262> 628 20<94 178 178 262> 705 80<100.019 256.064>
VStem: 29 31<817.906 834.806> 106 144<2.67992 642.32> 298 30<819.862 834.867>
LayerCount: 2
Fore
SplineSet
505.059570312 833 m 1
 482.967773438 762 401.852539062 705 328.852539062 705 c 0
 248.852539062 705 197.180664062 763 206.059570312 833 c 1
 238.759765625 841 l 1
 240.533203125 807 287.856445312 785 345.856445312 785 c 0
 399.856445312 785 461.533203125 807 476.759765625 841 c 1
 505.059570312 833 l 1
200.587890625 445 m 2
 216.529296875 520 226.983398438 588 231.098632812 645 c 1
 233.736328125 648 l 1
 233.736328125 648 281.098632812 645 315.098632812 645 c 0
 350.098632812 645 398.736328125 648 398.736328125 648 c 1
 399.098632812 645 l 1
 379.833007812 592 360.529296875 520 344.587890625 445 c 2
 292.51171875 200 l 2
 276.569335938 125 266.116210938 57 262 0 c 1
 259.362304688 -3 l 1
 259.362304688 -3 212 0 178 0 c 0
 143 0 94.3623046875 -3 94.3623046875 -3 c 1
 94 0 l 1
 113.478515625 54 132.569335938 125 148.51171875 200 c 2
 200.587890625 445 l 2
EndSplineSet
Position2: "'cpsp' Versalabstaende 1" dx=2 dy=0 dh=5 dv=0
Colour: ff00ff
EndChar

StartChar: ibreve
Encoding: 301 301 65
Width: 310
VWidth: 999
Flags: HW
HStem: -3 21<80 97 215 232> 412 20<80 92.2366 216.006 226> 497 70<78.3453 206.719>
VStem: 17.2 29.7<607.075 643.182> 90 132<2.6647 421.154> 240.4 28.8<608.158 643.281>
LayerCount: 2
Fore
SplineSet
186.125 655 m 1
 176.446289062 601 207.919921875 567 264.619140625 567 c 0
 306.919921875 567 363.321289062 591 379.625 655 c 1
 405.236328125 640 l 1
 373.91796875 535 295.640625 497 249.740234375 497 c 0
 176.840820312 497 142.319335938 559 153.236328125 640 c 1
 186.125 655 l 1
139.951171875 235 m 2
 155.892578125 310 169.833984375 385 170.974609375 428 c 1
 174.82421875 432 l 1
 193.217773438 431.5 219.186523438 429 245.186523438 429 c 0
 273.186523438 429 300.909179688 432.400390625 315.25 434 c 0
 321.25 434 323.612304688 431 322.124023438 424 c 0
 304.158203125 363 290.23046875 321 274.2890625 246 c 2
 260.259765625 180 l 2
 244.10546875 104 236.116210938 57 232 0 c 1
 229.362304688 -3 l 1
 199.787109375 -1 190 0 156 0 c 0
 121 0 111.787109375 -1 81.3623046875 -3 c 1
 80 0 l 1
 99.478515625 54 112.318359375 105 128.259765625 180 c 2
 139.951171875 235 l 2
EndSplineSet
Colour: ff00ff
EndChar

StartChar: Iogonek
Encoding: 302 302 66
Width: 351
VWidth: 999
Flags: HW
HStem: -193 44<191.48 258.62> -3 21<94 178 178 262> 628 20<94 178 178 262>
VStem: 101 86<-146.871 -45.1739> 106 144<2.67992 642.32>
LayerCount: 2
Fore
SplineSet
262.029296875 -141 m 1
 228.015625 -174 188.9765625 -193 154.9765625 -193 c 0
 132.176757812 -193 109.0390625 -188 95.3779296875 -177 c 0
 80.1923828125 -164.700195312 70.3916015625 -144 76.130859375 -117 c 0
 88.5869140625 -58.400390625 124.72265625 -25.2998046875 183.299804688 0 c 1
 181.5 0 179.700195312 0 178 0 c 0
 143 0 94.3623046875 -3 94.3623046875 -3 c 1
 94 0 l 1
 113.478515625 54 132.569335938 125 148.51171875 200 c 2
 200.587890625 445 l 2
 216.529296875 520 226.983398438 588 231.098632812 645 c 1
 233.736328125 648 l 1
 233.736328125 648 281.098632812 645 315.098632812 645 c 0
 350.098632812 645 398.736328125 648 398.736328125 648 c 1
 399.098632812 645 l 1
 379.833007812 592 360.529296875 520 344.587890625 445 c 2
 292.51171875 200 l 2
 276.760742188 125.900390625 266.35546875 58.599609375 262.125 2 c 1
 263.212890625 1 l 2
 262.8125 1 262.512695312 1 262.112304688 1 c 1
 262.048828125 0.7001953125 262.063476562 0.2998046875 262 0 c 2
 259.362304688 -3 l 1
 259.362304688 -3 252.147460938 -2.599609375 241.375 -2 c 1
 193.854492188 -14.7998046875 173.013671875 -65.7998046875 165.744140625 -100 c 0
 161.280273438 -121 161.329101562 -149 187.329101562 -149 c 0
 204.329101562 -149 228.155273438 -131 245.34375 -116 c 1
 248.130859375 -117 l 1
 262.029296875 -141 l 1
EndSplineSet
Position2: "'cpsp' Versalabstaende 1" dx=2 dy=0 dh=5 dv=0
Colour: ff80cc
EndChar

StartChar: iogonek
Encoding: 303 303 67
Width: 310
VWidth: 999
Flags: HW
HStem: -193 44<161.48 228.62> -3 21<80 97 215 232> 412 20<80 92.2366 216.006 226> 536 142<101.5 210.5>
VStem: 71 86<-146.871 -45.1739> 90 132<2.6647 421.154>
LayerCount: 2
Fore
SplineSet
232.029296875 -141 m 1
 198.015625 -174 158.9765625 -193 124.9765625 -193 c 0
 102.176757812 -193 79.0390625 -188 65.3779296875 -177 c 0
 50.1923828125 -164.700195312 40.3916015625 -144 46.130859375 -117 c 0
 58.5869140625 -58.400390625 94.80078125 -25.400390625 153.400390625 0 c 1
 120.5 0 110.965820312 -1.099609375 81.3623046875 -3 c 1
 80 0 l 1
 99.478515625 54 112.318359375 105 128.259765625 180 c 2
 139.951171875 235 l 2
 155.892578125 310 169.833984375 385 170.974609375 428 c 1
 174.82421875 432 l 1
 193.217773438 431.5 219.186523438 429 245.186523438 429 c 0
 273.186523438 429 300.909179688 432.400390625 315.25 434 c 0
 321.25 434 323.612304688 431 322.124023438 424 c 0
 304.158203125 363 290.23046875 321 274.2890625 246 c 2
 260.259765625 180 l 2
 244.296875 104.900390625 236.25 58.099609375 232.125 2 c 1
 233.212890625 1 l 2
 232.8125 1 232.512695312 1 232.112304688 1 c 1
 232.048828125 0.7001953125 232.063476562 0.2998046875 232 0 c 2
 229.362304688 -3 l 1
 222.747070312 -2.599609375 217.153320312 -2.099609375 212.017578125 -1.7998046875 c 1
 164.060546875 -14.2998046875 143.03515625 -65.7001953125 135.744140625 -100 c 0
 131.280273438 -121 131.329101562 -149 157.329101562 -149 c 0
 174.329101562 -149 198.155273438 -131 215.34375 -116 c 1
 218.130859375 -117 l 1
 232.029296875 -141 l 1
210.021484375 607 m 0
 218.524414062 647 258.11328125 678 300.11328125 678 c 0
 342.11328125 678 368.524414062 647 360.021484375 607 c 0
 351.51953125 567 311.930664062 536 269.930664062 536 c 0
 227.930664062 536 201.51953125 567 210.021484375 607 c 0
EndSplineSet
Colour: ff80cc
EndChar

StartChar: Idotaccent
Encoding: 304 304 68
Width: 351
VWidth: 999
Flags: HW
HStem: -3 21<94 178 178 262> 628 20<94 178 178 262> 691 142<123.5 232.5>
VStem: 103 150<711.5 812.5> 106 144<2.67992 642.32>
LayerCount: 2
Fore
SplineSet
264.967773438 762 m 0
 273.470703125 802 313.059570312 833 355.059570312 833 c 0
 397.059570312 833 423.470703125 802 414.967773438 762 c 0
 406.465820312 722 366.876953125 691 324.876953125 691 c 0
 282.876953125 691 256.465820312 722 264.967773438 762 c 0
200.587890625 445 m 2
 216.529296875 520 226.983398438 588 231.098632812 645 c 1
 233.736328125 648 l 1
 233.736328125 648 281.098632812 645 315.098632812 645 c 0
 350.098632812 645 398.736328125 648 398.736328125 648 c 1
 399.098632812 645 l 1
 379.833007812 592 360.529296875 520 344.587890625 445 c 2
 292.51171875 200 l 2
 276.569335938 125 266.116210938 57 262 0 c 1
 259.362304688 -3 l 1
 259.362304688 -3 212 0 178 0 c 0
 143 0 94.3623046875 -3 94.3623046875 -3 c 1
 94 0 l 1
 113.478515625 54 132.569335938 125 148.51171875 200 c 2
 200.587890625 445 l 2
EndSplineSet
Substitution2: "'c2sc' Versale nach Kapitaelchen 1" idotaccent.sc
Position2: "'cpsp' Versalabstaende 1" dx=2 dy=0 dh=5 dv=0
Colour: ff00ff
EndChar

StartChar: afii10057
Encoding: 1032 1032 69
Width: 385
VWidth: 999
Flags: HW
HStem: -10 60<57.8935 169.935> 628 20G<200 253 253 306>
VStem: 210 86<132.814 642.32>
AnchorPoint: "top_akzent" 423.32 806 basechar 0
AnchorPoint: "top_punkt" 404.679 723 basechar 0
LayerCount: 2
Fore
SplineSet
264.83984375 258 m 2
 304.587890625 445 l 2
 320.529296875 520 332.983398438 588 337.098632812 645 c 1
 339.736328125 648 l 1
 339.736328125 648 356.098632812 645 390.098632812 645 c 0
 425.098632812 645 442.736328125 648 442.736328125 648 c 1
 443.098632812 645 l 1
 423.833007812 592 406.529296875 520 390.587890625 445 c 2
 355.515625 280 l 2
 331.177734375 165.5 314.6953125 135 247.028320312 66 c 0
 194.55078125 12 135.874023438 -10 72.8740234375 -10 c 0
 53.8740234375 -10 36.724609375 -6 29.787109375 -1 c 1
 29.4248046875 2 l 1
 44.4638671875 21 62.1162109375 57 74.8544921875 84 c 1
 86.0673828125 85 l 1
 92.81640625 65 107.627929688 50 136.627929688 50 c 0
 215.627929688 50 246.134765625 170 264.83984375 258 c 2
EndSplineSet
EndChar

StartChar: afii10061
Encoding: 1036 1036 70
Width: 632
VWidth: 999
Flags: HW
HStem: -4 21<443 478.5 586.5 596> -3 21<94 178 178 262> 312 45<187 249.712> 569 89<450.534 559.69> 628 20<94 178 178 262> 822 148
VStem: 106 144<2.67992 642.32> 275 214
LayerCount: 2
Fore
SplineSet
200.587890625 445 m 2
 216.529296875 520 226.983398438 588 231.098632812 645 c 1
 233.736328125 648 l 1
 233.736328125 648 281.098632812 645 315.098632812 645 c 0
 350.098632812 645 398.736328125 648 398.736328125 648 c 1
 399.098632812 645 l 1
 379.833007812 592 360.529296875 520 344.587890625 445 c 2
 330.0703125 376.700195312 l 1
 374.810546875 407 402.576171875 468 459.8671875 531 c 0
 516.3671875 593.099609375 588.862304688 658 666.862304688 658 c 0
 693.862304688 658 697.224609375 655 721.736328125 648 c 1
 725.4609375 642 l 1
 677.119140625 551 l 1
 664.481445312 548 l 1
 647.45703125 562 631.944335938 569 603.944335938 569 c 0
 580.944335938 569 540.90625 550 494.703125 502 c 0
 437.719726562 442.799804688 404.520507812 360 357.26953125 340 c 1
 356.631835938 337 l 1
 426.081054688 325 440.12890625 297 479.375976562 237 c 0
 543.7578125 140 530.91796875 89 596 0 c 1
 592.149414062 -4 l 1
 579.575195312 -2 541 0 516 0 c 0
 490 0 489.575195312 -2 466.149414062 -4 c 1
 434.516601562 73 423.869140625 117 406.921875 169 c 0
 387.045898438 229.799804688 371.997070312 278.5 313.831054688 300.299804688 c 1
 292.51171875 200 l 2
 276.569335938 125 266.116210938 57 262 0 c 1
 259.362304688 -3 l 1
 259.362304688 -3 212 0 178 0 c 0
 143 0 94.3623046875 -3 94.3623046875 -3 c 1
 94 0 l 1
 113.478515625 54 132.569335938 125 148.51171875 200 c 2
 200.587890625 445 l 2
638.1796875 970 m 1
 661.60546875 951.299804688 675.126953125 918 677.962890625 889 c 1
 668.0078125 875.099609375 l 1
 506.634765625 831 l 2
 483.07421875 824.599609375 473.821289062 822 465.721679688 822 c 0
 457.62109375 822 453.122070312 838 455.03515625 847 c 0
 456.5234375 854 459.981445312 861.799804688 475.13671875 871 c 2
 638.1796875 970 l 1
EndSplineSet
LCarets2: 1 0 
Colour: ff00ff
EndChar

StartChar: uni040D
Encoding: 1037 1037 71
Width: 700
VWidth: 999
Flags: HW
HStem: -3 21<94 178 178 262 500 584 584 668> 628 20<94 178 178 262 500 584 584 668> 822 148
VStem: 106 144<2.67992 642.32> 230 214 512 144<2.67992 642.32>
DStem2: 187 134 187 78 0.608002 0.793935<0 493.367>
LayerCount: 2
Fore
SplineSet
493.1796875 970 m 1
 614.13671875 871 l 2
 625.380859375 861.799804688 625.5234375 854 624.03515625 847 c 0
 622.122070312 838 610.821289062 822 602.721679688 822 c 0
 594.62109375 822 586.474609375 824.599609375 565.634765625 831 c 2
 423.0078125 875.099609375 l 1
 418.962890625 889 l 1
 434.126953125 918 461.8046875 951.299804688 493.1796875 970 c 1
200.587890625 445 m 2
 216.529296875 520 226.983398438 588 231.098632812 645 c 1
 233.736328125 648 l 1
 233.736328125 648 281.098632812 645 315.098632812 645 c 0
 350.098632812 645 398.736328125 648 398.736328125 648 c 1
 399.098632812 645 l 1
 379.833007812 592 360.529296875 520 344.587890625 445 c 2
 295.975585938 216.299804688 l 1
 626.620117188 554.299804688 l 1
 631.528320312 586.799804688 635.08984375 617.200195312 637.098632812 645 c 1
 639.736328125 648 l 1
 639.736328125 648 687.098632812 645 721.098632812 645 c 0
 756.098632812 645 804.736328125 648 804.736328125 648 c 1
 805.098632812 645 l 1
 785.833007812 592 766.529296875 520 750.587890625 445 c 2
 698.51171875 200 l 2
 682.569335938 125 672.116210938 57 668 0 c 1
 665.362304688 -3 l 1
 665.362304688 -3 618 0 584 0 c 0
 549 0 500.362304688 -3 500.362304688 -3 c 1
 500 0 l 1
 519.478515625 54 538.569335938 125 554.51171875 200 c 2
 606.587890625 445 l 2
 610.690429688 464.299804688 614.385742188 483.099609375 617.775390625 501.400390625 c 1
 284.579101562 160.799804688 l 1
 273.131835938 101.299804688 265.369140625 46.900390625 262 0 c 1
 259.362304688 -3 l 1
 259.362304688 -3 212 0 178 0 c 0
 143 0 94.3623046875 -3 94.3623046875 -3 c 1
 94 0 l 1
 113.478515625 54 132.569335938 125 148.51171875 200 c 2
 200.587890625 445 l 2
EndSplineSet
LCarets2: 1 0 
Colour: ff00ff
EndChar

StartChar: afii10062
Encoding: 1038 1038 72
Width: 580
VWidth: 999
Flags: HW
HStem: -22 67<133 228.079> 628 20<54.5 65.8588 152.5 165.28 462.421 482 552.006 555> 714 41<263.963 356.037>
VStem: 180 80<761.847 827.403> 361 79<761.847 827.796>
DStem2: 278.595 138.281 342 161 0.410131 0.912027<-105.377 13.9628 113.393 328.053>
LayerCount: 2
Fore
SplineSet
376.221679688 161 m 2
 305.399414062 54.099609375 239.32421875 -22 149.32421875 -22 c 0
 107.32421875 -22 66.212890625 1 73.0146484375 33 c 0
 78.9658203125 61 98.8544921875 84 130.854492188 84 c 0
 144.854492188 84 165.3671875 77 172.81640625 65 c 0
 177.903320312 56 190.565429688 45 204.565429688 45 c 0
 247.264648438 45 271.138671875 81.099609375 307.99609375 138.299804688 c 1
 264.547851562 339.900390625 206.389648438 567.799804688 183.736328125 648 c 1
 200.098632812 645 226.098632812 645 243.098632812 645 c 0
 260.098632812 645 281.098632812 645 298.736328125 648 c 1
 300.959960938 618 324.022460938 470.099609375 374.745117188 242.5 c 1
 466.637695312 386.900390625 564.940429688 546.400390625 613.736328125 648 c 1
 625.098632812 645 652.098632812 645 663.098632812 645 c 0
 674.098632812 645 686.098632812 645 698.736328125 648 c 1
 376.221679688 161 l 2
470.48046875 755 m 0
 503.48046875 755 525.09375 772 528.70703125 789 c 0
 529.76953125 794 530.044921875 800 530.470703125 802 c 0
 533.659179688 817 556.846679688 832 579.846679688 832 c 0
 606.846679688 832 613.87109375 818 609.833007812 799 c 0
 598.779296875 747 527.765625 714 461.765625 714 c 0
 395.765625 714 338.779296875 747 349.833007812 799 c 0
 353.87109375 818 366.846679688 832 393.846679688 832 c 0
 416.846679688 832 433.659179688 817 430.470703125 802 c 0
 430.044921875 800 427.76953125 794 426.70703125 789 c 0
 423.09375 772 437.48046875 755 470.48046875 755 c 0
EndSplineSet
LCarets2: 1 0 
Colour: ff00ff
EndChar

StartChar: afii10020
Encoding: 1043 1043 73
Width: 563
VWidth: 999
Flags: HW
HStem: -3 21<92 173 173 257> 564 81<251.435 501.657>
VStem: 103 144<2.67992 562.332>
LayerCount: 2
Fore
SplineSet
339.461914062 435 m 2
 289.51171875 200 l 2
 273.569335938 125 260.265625 53 257 0 c 1
 255.362304688 -3 l 1
 255.362304688 -3 208 0 173 0 c 0
 139 0 93.3623046875 -3 93.3623046875 -3 c 1
 92 0 l 1
 112.116210938 57 129.569335938 125 145.51171875 200 c 2
 197.587890625 445 l 2
 213.529296875 520 226.62109375 591 230.098632812 645 c 1
 231.736328125 648 l 1
 231.736328125 648 280.098632812 645 314.098632812 645 c 2
 618.098632812 645 l 2
 639.098632812 645 662.311523438 646 678.736328125 648 c 1
 680.098632812 645 l 1
 676.123046875 631 671.296875 613 669.171875 603 c 0
 667.045898438 593 659.755859375 554 659.055664062 546 c 1
 656.206054688 542 l 1
 656.206054688 542 508.881835938 564 374.881835938 564 c 1
 362.780273438 540 343.075195312 452 339.461914062 435 c 2
EndSplineSet
Colour: ff00ff
EndChar

StartChar: afii10021
Encoding: 1044 1044 74
Width: 708
VWidth: 999
Flags: HW
HStem: 0 44<192.009 452.856> 601 44<276.411 452.674>
VStem: 39 36<-138 -59.5127> 461 86<60.1801 586.818> 570 36<-138 -59.5127>
LayerCount: 2
Fore
SplineSet
434.352539062 44 m 2
 452.352539062 44 460.627929688 50 465.541015625 59 c 0
 477.642578125 83 499.897460938 183 503.51171875 200 c 2
 555.587890625 445 l 2
 559.201171875 462 579.881835938 564 577.983398438 588 c 1
 572.896484375 597 569.74609375 601 554.74609375 601 c 2
 440.74609375 601 l 2
 413.74609375 601 401.62109375 591 394.306640625 566 c 0
 364.838867188 465 327.733398438 361 301.279296875 293 c 0
 254.41015625 176 208.3671875 77 203.903320312 56 c 0
 201.352539062 44 214.352539062 44 228.352539062 44 c 2
 434.352539062 44 l 2
178 0 m 2
 98 0 72.18359375 -65 45.6669921875 -138 c 1
 43.029296875 -141 l 1
 11.029296875 -141 l 1
 9.6669921875 -138 l 1
 29.337890625 11 l 2
 31.4638671875 21 38.1640625 29 63.8017578125 32 c 0
 84.412109375 34.400390625 104.801757812 32 121.990234375 47 c 0
 153.516601562 73 186.8203125 145 251.979492188 301 c 1
 298.2109375 415 332.104492188 518 345.495117188 581 c 0
 350.171875 603 351.84765625 625 353.098632812 645 c 1
 354.736328125 648 l 1
 354.736328125 648 381.098632812 645 415.098632812 645 c 2
 641.098632812 645 l 2
 675.098632812 645 693.736328125 648 693.736328125 648 c 1
 694.098632812 645 l 1
 674.62109375 591 657.529296875 520 641.587890625 445 c 2
 589.51171875 200 l 2
 566.129882812 90 561.439453125 35 594.801757812 32 c 0
 619.376953125 30 622.463867188 21 620.337890625 11 c 2
 576.666992188 -138 l 1
 574.029296875 -141 l 1
 542.029296875 -141 l 1
 540.666992188 -138 l 1
 545.18359375 -65 547 0 467 0 c 2
 178 0 l 2
EndSplineSet
EndChar

StartChar: afii10024
Encoding: 1046 1046 75
Width: 924
VWidth: 999
Flags: HW
HStem: -4 21G<35 44.5 147 181 743 777 879.5 889> -3 21<407 491 491 575> 312 45<364.57 424 500 559.43> 569 89<70.0289 172.306 751.694 853.971> 628 20<407 491 491 575>
VStem: 419 144<2.67992 642.32>
LayerCount: 2
Fore
SplineSet
284.921875 169 m 0
 247.869140625 117 219.516601562 73 157.149414062 -4 c 1
 135.575195312 -2 136 0 111 0 c 0
 88 0 50.5751953125 -2 37.1494140625 -4 c 1
 35 0 l 1
 133.91796875 89 142.7578125 140 244.375976562 237 c 0
 307.12890625 297 331.081054688 325 402.631835938 337 c 1
 403.26953125 340 l 1
 366.520507812 360 369.162109375 443 339.703125 502 c 0
 315.90625 550 285.944335938 569 263.944335938 569 c 0
 236.944335938 569 219.45703125 562 197.481445312 548 c 1
 187.119140625 551 l 1
 178.4609375 642 l 1
 184.736328125 648 l 1
 211.224609375 655 214.862304688 658 240.862304688 658 c 0
 314.862304688 658 357.045898438 593 384.8671875 531 c 0
 424.2109375 443.700195312 411.383789062 360.299804688 494.904296875 357.099609375 c 1
 513.587890625 445 l 2
 529.529296875 520 539.983398438 588 544.098632812 645 c 1
 546.736328125 648 l 1
 546.736328125 648 594.098632812 645 628.098632812 645 c 0
 663.098632812 645 711.736328125 648 711.736328125 648 c 1
 712.098632812 645 l 1
 692.833007812 592 673.529296875 520 657.587890625 445 c 2
 643.686523438 379.599609375 l 1
 684.197265625 410.700195312 711.379882812 469.900390625 764.8671875 531 c 0
 819.045898438 593 888.862304688 658 962.862304688 658 c 0
 988.862304688 658 991.224609375 655 1014.73632812 648 c 1
 1018.4609375 642 l 1
 971.119140625 551 l 1
 959.481445312 548 l 1
 943.45703125 562 928.944335938 569 901.944335938 569 c 0
 879.944335938 569 841.90625 550 797.703125 502 c 0
 743.162109375 443 710.520507812 360 665.26953125 340 c 1
 664.631835938 337 l 1
 731.081054688 325 743.12890625 297 780.375976562 237 c 0
 840.7578125 140 827.91796875 89 889 0 c 1
 885.149414062 -4 l 1
 872.575195312 -2 836 0 813 0 c 0
 788 0 787.575195312 -2 765.149414062 -4 c 1
 735.516601562 73 725.869140625 117 710.921875 169 c 0
 693.01171875 228.700195312 679.014648438 276.700195312 626.575195312 299.099609375 c 1
 605.51171875 200 l 2
 589.569335938 125 579.116210938 57 575 0 c 1
 572.362304688 -3 l 1
 572.362304688 -3 525 0 491 0 c 0
 456 0 407.362304688 -3 407.362304688 -3 c 1
 407 0 l 1
 426.478515625 54 445.569335938 125 461.51171875 200 c 2
 485.232421875 311.599609375 l 1
 381.526367188 303.099609375 340.646484375 245.799804688 284.921875 169 c 0
EndSplineSet
Colour: ff80cc
EndChar

StartChar: afii10025
Encoding: 1047 1047 76
Width: 542
VWidth: 999
Flags: HW
HStem: -12 37<172.536 324.196> 336 37<158.005 306.843> 469 21G<49 91> 624 34<165.85 309.892>
VStem: 49 30<470.533 513.383> 375 80<432.684 569.184> 405 92<100.605 254.446>
LayerCount: 2
Fore
SplineSet
253.313476562 25 m 0
 323.313476562 25 419.454101562 68 442.41015625 176 c 0
 453.25 227 437.418945312 336 320.418945312 336 c 2
 247.418945312 336 l 2
 236.418945312 336 230.907226562 343 233.245117188 354 c 0
 235.583007812 365 244.283203125 373 255.283203125 373 c 2
 302.283203125 373 l 2
 421.283203125 373 470.86328125 451 482.553710938 506 c 0
 496.794921875 573 443.635742188 624 381.635742188 624 c 0
 258.635742188 624 219.90625 550 178.689453125 469 c 1
 149.114257812 471 l 1
 206.311523438 646 l 1
 293.311523438 646 330.862304688 658 390.862304688 658 c 0
 483.862304688 658 584.872070312 611 564.678710938 516 c 0
 547.887695312 437 494.259765625 387 416.520507812 360 c 1
 483.26953125 340 560.5546875 299 537.810546875 192 c 0
 505.71484375 41 360.44921875 -12 242.44921875 -12 c 0
 161.44921875 -12 119.0390625 19 93.1396484375 43 c 0
 70.603515625 64 55.3427734375 91 61.08203125 118 c 0
 66.6083984375 144 82.072265625 165 105.072265625 165 c 0
 133.072265625 165 140.30859375 152 144.506835938 120 c 0
 152.541015625 59 177.313476562 25 253.313476562 25 c 0
EndSplineSet
EndChar

StartChar: afii10026
Encoding: 1048 1048 77
Width: 700
VWidth: 999
Flags: HW
HStem: -3 21<94 178 178 262 500 584 584 668> 628 20<94 178 178 262 500 584 584 668>
VStem: 106 144<2.67992 642.32> 512 144<2.67992 642.32>
DStem2: 187 134 187 78 0.608002 0.793935<0 493.367>
LayerCount: 2
Fore
SplineSet
200.587890625 445 m 2
 216.529296875 520 226.983398438 588 231.098632812 645 c 1
 233.736328125 648 l 1
 233.736328125 648 281.098632812 645 315.098632812 645 c 0
 350.098632812 645 398.736328125 648 398.736328125 648 c 1
 399.098632812 645 l 1
 379.833007812 592 360.529296875 520 344.587890625 445 c 2
 295.975585938 216.299804688 l 1
 626.620117188 554.299804688 l 1
 631.528320312 586.799804688 635.08984375 617.200195312 637.098632812 645 c 1
 639.736328125 648 l 1
 639.736328125 648 687.098632812 645 721.098632812 645 c 0
 756.098632812 645 804.736328125 648 804.736328125 648 c 1
 805.098632812 645 l 1
 785.833007812 592 766.529296875 520 750.587890625 445 c 2
 698.51171875 200 l 2
 682.569335938 125 672.116210938 57 668 0 c 1
 665.362304688 -3 l 1
 665.362304688 -3 618 0 584 0 c 0
 549 0 500.362304688 -3 500.362304688 -3 c 1
 500 0 l 1
 519.478515625 54 538.569335938 125 554.51171875 200 c 2
 606.587890625 445 l 2
 610.690429688 464.299804688 614.385742188 483.099609375 617.775390625 501.400390625 c 1
 284.579101562 160.799804688 l 1
 273.131835938 101.299804688 265.369140625 46.900390625 262 0 c 1
 259.362304688 -3 l 1
 259.362304688 -3 212 0 178 0 c 0
 143 0 94.3623046875 -3 94.3623046875 -3 c 1
 94 0 l 1
 113.478515625 54 132.569335938 125 148.51171875 200 c 2
 200.587890625 445 l 2
EndSplineSet
EndChar

StartChar: afii10027
Encoding: 1049 1049 78
Width: 700
VWidth: 999
Flags: HW
HStem: -3 21<94 178 178 262 500 584 584 668> 628 20<94 178 178 262 500 584 584 668> 714 41<303.963 396.037>
VStem: 106 144<2.67992 642.32> 220 80<761.847 827.403> 401 79<761.847 827.796> 512 144<2.67992 642.32>
DStem2: 187 134 187 78 0.608002 0.793935<0 493.367>
LayerCount: 2
Fore
SplineSet
200.587890625 445 m 2
 216.529296875 520 226.983398438 588 231.098632812 645 c 1
 233.736328125 648 l 1
 233.736328125 648 281.098632812 645 315.098632812 645 c 0
 350.098632812 645 398.736328125 648 398.736328125 648 c 1
 399.098632812 645 l 1
 379.833007812 592 360.529296875 520 344.587890625 445 c 2
 295.975585938 216.299804688 l 1
 626.620117188 554.299804688 l 1
 631.528320312 586.799804688 635.08984375 617.200195312 637.098632812 645 c 1
 639.736328125 648 l 1
 639.736328125 648 687.098632812 645 721.098632812 645 c 0
 756.098632812 645 804.736328125 648 804.736328125 648 c 1
 805.098632812 645 l 1
 785.833007812 592 766.529296875 520 750.587890625 445 c 2
 698.51171875 200 l 2
 682.569335938 125 672.116210938 57 668 0 c 1
 665.362304688 -3 l 1
 665.362304688 -3 618 0 584 0 c 0
 549 0 500.362304688 -3 500.362304688 -3 c 1
 500 0 l 1
 519.478515625 54 538.569335938 125 554.51171875 200 c 2
 606.587890625 445 l 2
 610.690429688 464.299804688 614.385742188 483.099609375 617.775390625 501.400390625 c 1
 284.579101562 160.799804688 l 1
 273.131835938 101.299804688 265.369140625 46.900390625 262 0 c 1
 259.362304688 -3 l 1
 259.362304688 -3 212 0 178 0 c 0
 143 0 94.3623046875 -3 94.3623046875 -3 c 1
 94 0 l 1
 113.478515625 54 132.569335938 125 148.51171875 200 c 2
 200.587890625 445 l 2
510.48046875 755 m 0
 543.48046875 755 565.09375 772 568.70703125 789 c 0
 569.76953125 794 570.044921875 800 570.470703125 802 c 0
 573.659179688 817 596.846679688 832 619.846679688 832 c 0
 646.846679688 832 653.87109375 818 649.833007812 799 c 0
 638.779296875 747 567.765625 714 501.765625 714 c 0
 435.765625 714 378.779296875 747 389.833007812 799 c 0
 393.87109375 818 406.846679688 832 433.846679688 832 c 0
 456.846679688 832 473.659179688 817 470.470703125 802 c 0
 470.044921875 800 467.76953125 794 466.70703125 789 c 0
 463.09375 772 477.48046875 755 510.48046875 755 c 0
EndSplineSet
LCarets2: 1 0 
Colour: ff00ff
EndChar

StartChar: afii10033
Encoding: 1055 1055 79
Width: 804
VWidth: 999
Flags: HW
HStem: -3 21<90 174 174 255 549 642 642 714> 585 60<253.326 550.674>
VStem: 101 144<2.67992 570.83> 559 144<2.67992 570.83>
LayerCount: 2
Fore
SplineSet
779.098632812 645 m 2
 813.098632812 645 849.736328125 648 849.736328125 648 c 1
 850.098632812 645 l 1
 830.62109375 591 813.529296875 520 797.587890625 445 c 2
 745.51171875 200 l 2
 729.569335938 125 718.116210938 57 714 0 c 1
 711.362304688 -3 l 1
 711.362304688 -3 676 0 642 0 c 0
 607 0 549.362304688 -3 549.362304688 -3 c 1
 549 0 l 1
 568.265625 53 585.569335938 125 601.51171875 200 c 2
 653.587890625 445 l 2
 657.201171875 462 674.481445312 548 672.58203125 572 c 1
 667.495117188 581 664.345703125 585 649.345703125 585 c 2
 403.345703125 585 l 2
 388.345703125 585 383.495117188 581 374.58203125 572 c 1
 362.481445312 548 343.201171875 462 339.587890625 445 c 2
 287.51171875 200 l 2
 271.569335938 125 258.265625 53 255 0 c 1
 253.362304688 -3 l 1
 253.362304688 -3 209 0 174 0 c 0
 140 0 91.3623046875 -3 91.3623046875 -3 c 1
 90 0 l 1
 110.116210938 57 127.569335938 125 143.51171875 200 c 2
 195.587890625 445 l 2
 211.529296875 520 224.62109375 591 228.098632812 645 c 1
 229.736328125 648 l 1
 229.736328125 648 277.098632812 645 311.098632812 645 c 2
 779.098632812 645 l 2
EndSplineSet
Colour: ff00ff
EndChar

StartChar: afii10034
Encoding: 1056 1056 80
Width: 598
VWidth: 999
Flags: HW
HStem: -3 21<81 165 165 247> 274 51<235.835 380.582> 604 48<202.526 387.538>
VStem: 93 142<2.67993 284 329.159 597.193> 422 151<399.424 566.15>
LayerCount: 2
Fore
SplineSet
354.03125 560 m 2
 306.206054688 335 l 1
 317.71875 328 358.081054688 325 383.081054688 325 c 0
 447.180664062 325 500.0078125 367 521.4765625 468 c 0
 546.770507812 587 502.383789062 604 443.383789062 604 c 0
 371.383789062 604 360.196289062 589 354.03125 560 c 2
187.587890625 445 m 2
 203.529296875 520 213.983398438 588 218.098632812 645 c 1
 220.736328125 648 l 1
 220.736328125 648 268.098632812 645 302.098632812 645 c 0
 332.098632812 645 454.586914062 652 480.586914062 652 c 0
 551.686523438 652 604.2890625 642.599609375 634.360351562 618 c 0
 682.0703125 579 684.018554688 522.299804688 676.302734375 486 c 0
 658.235351562 401 565.240234375 274 383.240234375 274 c 0
 348.240234375 274 315.877929688 277 295.366210938 284 c 1
 277.51171875 200 l 2
 261.569335938 125 251.116210938 57 247 0 c 1
 244.362304688 -3 l 1
 244.362304688 -3 199 0 165 0 c 0
 130 0 81.3623046875 -3 81.3623046875 -3 c 1
 81 0 l 1
 100.478515625 54 119.569335938 125 135.51171875 200 c 2
 187.587890625 445 l 2
EndSplineSet
Colour: ff00ff
EndChar

StartChar: afii10035
Encoding: 1057 1057 81
Width: 691
VWidth: 999
Flags: HW
HStem: -10 60<329.73 503.017> 602 56<312.155 487.312>
VStem: 37 163<216.639 441.231>
LayerCount: 2
Fore
SplineSet
545.862304688 658 m 0
 667.862304688 658 754.296875 613 754.296875 613 c 1
 755.659179688 610 l 1
 733.380859375 560.700195312 722.467773438 531 708.02734375 480 c 1
 677.814453125 479 l 1
 654.244140625 561 609.958984375 602 519.958984375 602 c 0
 437.958984375 602 314.142578125 537 270.994140625 334 c 0
 241.0234375 193 302.627929688 50 411.627929688 50 c 0
 504.627929688 50 553.241210938 67 643.544921875 139 c 1
 660.318359375 105 l 1
 557.826171875 18 469.07421875 -10 379.874023438 -10 c 0
 295.07421875 -10 222.831054688 15.2001953125 175.903320312 56 c 0
 103.909179688 118.599609375 83.2314453125 217.5 103.955078125 315 c 0
 127.315429688 424.900390625 193.118164062 522.299804688 285.1328125 584 c 0
 358.005859375 632.799804688 454.862304688 658 545.862304688 658 c 0
EndSplineSet
Colour: ff00ff
EndChar

StartChar: afii10036
Encoding: 1058 1058 82
Width: 602
VWidth: 999
Flags: HW
HStem: -3 21<219 301 301 383> 567 78<17.7551 224.565 377.435 584.245>
VStem: 229 144<2.67992 565.827>
LayerCount: 2
Fore
SplineSet
321.674804688 436 m 2
 325.288085938 453 343.41796875 543 341.51953125 567 c 1
 207.51953125 567 132.84375 545 132.84375 545 c 1
 131.693359375 549 l 1
 136.881835938 564 148.147460938 617 152.098632812 645 c 1
 154.736328125 648 l 1
 170.311523438 646 193.098632812 645 214.098632812 645 c 2
 662.098632812 645 l 2
 683.098632812 645 706.311523438 646 722.736328125 648 c 1
 724.098632812 645 l 1
 716.147460938 617 704.881835938 564 703.693359375 549 c 1
 700.84375 545 l 1
 700.84375 545 635.51953125 567 501.51953125 567 c 1
 489.41796875 543 469.288085938 453 465.674804688 436 c 2
 415.51171875 200 l 2
 399.569335938 125 387.116210938 57 383 0 c 1
 380.362304688 -3 l 1
 380.362304688 -3 335 0 301 0 c 0
 266 0 219.362304688 -3 219.362304688 -3 c 1
 219 0 l 1
 238.478515625 54 255.569335938 125 271.51171875 200 c 2
 321.674804688 436 l 2
EndSplineSet
Colour: ff00ff
EndChar

StartChar: afii10037
Encoding: 1059 1059 83
Width: 580
VWidth: 999
Flags: HW
HStem: -22 67<133 228.079> 628 20G<54.5 65.8588 152.5 165.28 462.421 482 552.006 555>
DStem2: 278.595 138.281 342 161 0.410131 0.912027<-105.377 13.9628 113.393 328.053>
LayerCount: 2
Fore
SplineSet
376.221679688 161 m 2
 305.399414062 54.099609375 239.32421875 -22 149.32421875 -22 c 0
 107.32421875 -22 66.212890625 1 73.0146484375 33 c 0
 78.9658203125 61 98.8544921875 84 130.854492188 84 c 0
 144.854492188 84 165.3671875 77 172.81640625 65 c 0
 177.903320312 56 190.565429688 45 204.565429688 45 c 0
 247.264648438 45 271.138671875 81.099609375 307.99609375 138.299804688 c 1
 264.547851562 339.900390625 206.389648438 567.799804688 183.736328125 648 c 1
 200.098632812 645 226.098632812 645 243.098632812 645 c 0
 260.098632812 645 281.098632812 645 298.736328125 648 c 1
 300.959960938 618 324.022460938 470.099609375 374.745117188 242.5 c 1
 466.637695312 386.900390625 564.940429688 546.400390625 613.736328125 648 c 1
 625.098632812 645 652.098632812 645 663.098632812 645 c 0
 674.098632812 645 686.098632812 645 698.736328125 648 c 1
 376.221679688 161 l 2
EndSplineSet
EndChar

StartChar: afii10039
Encoding: 1061 1061 84
Width: 643
VWidth: 999
Flags: HW
HStem: -2 28<4 61 169 190 398 420 570 617> 586 27<411 444 538 597>
DStem2: 122 99 155 73 0.593199 0.805056<-35.2356 230.04 328.87 586.289> 191 543 249 326 0.578967 -0.815351<-35.4928 216.477 291.97 559.314>
LayerCount: 2
Fore
SplineSet
605.362304688 -3 m 1
 588 0 545 0 527 0 c 0
 509 0 446 0 427.362304688 -3 c 1
 400.899414062 82.7998046875 377.497070312 154.299804688 348.153320312 233.599609375 c 1
 284.66015625 159.299804688 219.619140625 79.599609375 157.362304688 -3 c 1
 147 0 118 0 106 0 c 0
 95 0 54 0 42.3623046875 -3 c 1
 164.452148438 134.799804688 253.110351562 233.400390625 319.982421875 307.599609375 c 1
 284.727539062 397.200195312 240.088867188 502.400390625 175.736328125 648 c 1
 192.098632812 645 255.098632812 645 272.098632812 645 c 0
 289.098632812 645 332.098632812 645 350.736328125 648 c 1
 365.280273438 594.099609375 389.327148438 529.400390625 429.608398438 429.099609375 c 1
 512.220703125 520.900390625 544.861328125 559.200195312 611.736328125 648 c 1
 622.098632812 645 663.098632812 645 674.098632812 645 c 0
 685.098632812 645 715.098632812 645 726.736328125 648 c 1
 672.559570312 589.299804688 572.772460938 486.799804688 457.986328125 358.900390625 c 1
 495.237304688 267.400390625 543.33203125 150.700195312 605.362304688 -3 c 1
EndSplineSet
Colour: ff00ff
EndChar

StartChar: afii10040
Encoding: 1062 1062 85
Width: 639
VWidth: 999
Flags: HW
HStem: 0 44<183.144 451.533> 628 20G<78 132 132 185 448 501 501 555>
VStem: 89 86<60.1801 642.32> 458 86<46.9378 642.32> 566 36<-138 -59.6869>
LayerCount: 2
Fore
SplineSet
586.51171875 200 m 2
 563.129882812 90 557.639648438 35 590.801757812 32 c 0
 615.234375 29.7998046875 618.400390625 20.7001953125 616.337890625 11 c 2
 572.666992188 -138 l 1
 570.029296875 -141 l 1
 538.029296875 -141 l 1
 536.666992188 -138 l 1
 541.19921875 -65.400390625 542.700195312 0 463 0 c 2
 132 0 l 2
 98 0 79.3623046875 -3 79.3623046875 -3 c 1
 79 0 l 1
 98.478515625 54 115.569335938 125 131.51171875 200 c 2
 183.587890625 445 l 2
 199.529296875 520 210.983398438 588 215.098632812 645 c 1
 217.736328125 648 l 1
 217.736328125 648 235.098632812 645 269.098632812 645 c 0
 304.098632812 645 321.736328125 648 321.736328125 648 c 1
 322.098632812 645 l 1
 302.833007812 592 285.529296875 520 269.587890625 445 c 2
 217.51171875 200 l 2
 213.897460938 183 193.642578125 83 195.541015625 59 c 0
 196.627929688 50 202.352539062 44 220.352539062 44 c 2
 431.352539062 44 l 2
 449.352539062 44 457.627929688 50 462.541015625 59 c 0
 474.642578125 83 496.897460938 183 500.51171875 200 c 2
 552.587890625 445 l 2
 568.529296875 520 581.833007812 592 585.098632812 645 c 1
 586.736328125 648 l 1
 586.736328125 648 603.098632812 645 638.098632812 645 c 0
 672.098632812 645 690.736328125 648 690.736328125 648 c 1
 692.098632812 645 l 1
 671.983398438 588 654.529296875 520 638.587890625 445 c 2
 586.51171875 200 l 2
EndSplineSet
EndChar

StartChar: afii10041
Encoding: 1063 1063 86
Width: 633
VWidth: 999
Flags: HW
HStem: -3 21<434 518 518 602> 244 64<213.903 364.049> 628 20G<84 137 137 190 434 518 518 602>
VStem: 94 86<340.66 642.32> 446 144<2.67992 642.32>
LayerCount: 2
Fore
SplineSet
274.587890625 445 m 2
 268.635742188 417 l 2
 251.206054688 335 285.467773438 308 357.467773438 308 c 0
 385.967773438 308 449.296875 311.900390625 521.032226562 353 c 1
 540.587890625 445 l 2
 556.529296875 520 566.983398438 588 571.098632812 645 c 1
 573.736328125 648 l 1
 573.736328125 648 621.098632812 645 655.098632812 645 c 0
 690.098632812 645 738.736328125 648 738.736328125 648 c 1
 739.098632812 645 l 1
 719.833007812 592 700.529296875 520 684.587890625 445 c 2
 632.51171875 200 l 2
 616.569335938 125 606.116210938 57 602 0 c 1
 599.362304688 -3 l 1
 599.362304688 -3 552 0 518 0 c 0
 483 0 434.362304688 -3 434.362304688 -3 c 1
 434 0 l 1
 453.478515625 54 472.569335938 125 488.51171875 200 c 2
 511.659179688 308.900390625 l 1
 429.258789062 259.5 359.063476562 244 301.864257812 244 c 0
 187.864257812 244 162.65625 323 183.69921875 422 c 2
 188.587890625 445 l 2
 204.529296875 520 216.983398438 588 221.098632812 645 c 1
 223.736328125 648 l 1
 223.736328125 648 240.098632812 645 274.098632812 645 c 0
 309.098632812 645 326.736328125 648 326.736328125 648 c 1
 327.098632812 645 l 1
 307.833007812 592 290.529296875 520 274.587890625 445 c 2
EndSplineSet
EndChar

StartChar: afii10042
Encoding: 1064 1064 87
Width: 960
VWidth: 999
Flags: HW
HStem: 0 44<197.144 430.533 531.144 766.533> 628 20G<92 146 146 199 426 480 480 533 763 816 816 870>
VStem: 103 86<60.1801 642.32> 437 86<60.1801 642.32> 773 86<47.6754 642.32>
LayerCount: 2
Fore
SplineSet
901.51171875 200 m 2
 885.869140625 125 873.116210938 57 869 0 c 1
 866.362304688 -3 l 1
 866.362304688 -3 850 0 816 0 c 2
 147 0 l 2
 112 0 93.3623046875 -3 93.3623046875 -3 c 1
 93 0 l 1
 112.478515625 54 129.569335938 125 145.51171875 200 c 2
 197.587890625 445 l 2
 213.529296875 520 224.983398438 588 229.098632812 645 c 1
 231.736328125 648 l 1
 231.736328125 648 249.098632812 645 283.098632812 645 c 0
 318.098632812 645 335.736328125 648 335.736328125 648 c 1
 336.098632812 645 l 1
 316.833007812 592 299.529296875 520 283.587890625 445 c 2
 231.51171875 200 l 2
 227.897460938 183 207.642578125 83 209.541015625 59 c 0
 210.627929688 50 216.352539062 44 234.352539062 44 c 2
 410.352539062 44 l 2
 428.352539062 44 436.627929688 50 441.541015625 59 c 0
 453.642578125 83 475.897460938 183 479.51171875 200 c 2
 531.587890625 445 l 2
 547.529296875 520 558.983398438 588 563.098632812 645 c 1
 565.736328125 648 l 1
 565.736328125 648 583.098632812 645 617.098632812 645 c 0
 652.098632812 645 669.736328125 648 669.736328125 648 c 1
 670.098632812 645 l 1
 650.833007812 592 633.529296875 520 617.587890625 445 c 2
 565.51171875 200 l 2
 561.897460938 183 541.642578125 83 543.541015625 59 c 0
 544.627929688 50 550.352539062 44 568.352539062 44 c 2
 746.352539062 44 l 2
 764.352539062 44 772.627929688 50 777.541015625 59 c 0
 789.642578125 83 811.897460938 183 815.51171875 200 c 2
 867.587890625 445 l 2
 883.529296875 520 896.833007812 592 900.098632812 645 c 1
 901.736328125 648 l 1
 901.736328125 648 918.098632812 645 953.098632812 645 c 0
 987.098632812 645 1005.73632812 648 1005.73632812 648 c 1
 1007.09863281 645 l 1
 986.983398438 588 969.529296875 520 953.587890625 445 c 2
 901.51171875 200 l 2
EndSplineSet
EndChar

StartChar: afii10043
Encoding: 1065 1065 88
Width: 948
VWidth: 999
Flags: HW
HStem: 0 44<197.144 430.533 531.144 766.533> 628 20G<92 146 146 199 426 480 480 533 763 816 816 870>
VStem: 103 86<60.1801 642.32> 437 86<60.1801 642.32> 773 86<46.9378 642.32> 881 36<-138 -59.6869>
LayerCount: 2
Fore
SplineSet
147 0 m 2
 112 0 93.3623046875 -3 93.3623046875 -3 c 1
 93 0 l 1
 112.478515625 54 129.569335938 125 145.51171875 200 c 2
 197.587890625 445 l 2
 213.529296875 520 224.983398438 588 229.098632812 645 c 1
 231.736328125 648 l 1
 231.736328125 648 249.098632812 645 283.098632812 645 c 0
 318.098632812 645 335.736328125 648 335.736328125 648 c 1
 336.098632812 645 l 1
 316.833007812 592 299.529296875 520 283.587890625 445 c 2
 231.51171875 200 l 2
 227.897460938 183 207.642578125 83 209.541015625 59 c 0
 210.627929688 50 216.352539062 44 234.352539062 44 c 2
 410.352539062 44 l 2
 428.352539062 44 436.627929688 50 441.541015625 59 c 0
 453.642578125 83 475.897460938 183 479.51171875 200 c 2
 531.587890625 445 l 2
 547.529296875 520 558.983398438 588 563.098632812 645 c 1
 565.736328125 648 l 1
 565.736328125 648 583.098632812 645 617.098632812 645 c 0
 652.098632812 645 669.736328125 648 669.736328125 648 c 1
 670.098632812 645 l 1
 650.833007812 592 633.529296875 520 617.587890625 445 c 2
 565.51171875 200 l 2
 561.897460938 183 541.642578125 83 543.541015625 59 c 0
 544.627929688 50 550.352539062 44 568.352539062 44 c 2
 746.352539062 44 l 2
 764.352539062 44 772.627929688 50 777.541015625 59 c 0
 789.642578125 83 811.897460938 183 815.51171875 200 c 2
 867.587890625 445 l 2
 883.529296875 520 896.833007812 592 900.098632812 645 c 1
 901.736328125 648 l 1
 901.736328125 648 918.098632812 645 953.098632812 645 c 0
 987.098632812 645 1005.73632812 648 1005.73632812 648 c 1
 1007.09863281 645 l 1
 986.983398438 588 969.529296875 520 953.587890625 445 c 2
 901.51171875 200 l 2
 878.129882812 90 872.639648438 35 905.801757812 32 c 0
 930.234375 29.7998046875 933.400390625 20.7001953125 931.337890625 11 c 2
 887.666992188 -138 l 1
 885.029296875 -141 l 1
 853.029296875 -141 l 1
 851.666992188 -138 l 1
 856.19921875 -65.400390625 857.700195312 0 778 0 c 2
 147 0 l 2
EndSplineSet
EndChar

StartChar: afii10044
Encoding: 1066 1066 89
Width: 717
VWidth: 999
Flags: HW
HStem: -2 35<330.629 502.725> 329 44<348 522.728> 569 21G<50 254> 581 64<52.7551 257.32>
VStem: 262 86<37.7419 329 373 578.197> 587 94<103.061 266.903>
LayerCount: 2
Fore
SplineSet
417.930664062 329 m 1
 365.854492188 84 l 2
 358.840820312 51 357.014648438 33 412.014648438 33 c 0
 564.014648438 33 612.719726562 121 625.897460938 183 c 0
 638.651367188 243 630.930664062 329 502.930664062 329 c 2
 417.930664062 329 l 1
439.098632812 645 m 2
 477.098632812 645 494.736328125 648 494.736328125 648 c 1
 495.098632812 645 l 1
 475.833007812 592 460.629882812 520 442.587890625 445 c 1
 427.283203125 373 l 1
 485.283203125 373 l 2
 731.283203125 373 738.815429688 272 719.897460938 183 c 0
 684.401367188 16 523.575195312 -2 402.575195312 -2 c 0
 366.575195312 -2 336 0 307 0 c 0
 273 0 252.362304688 -3 252.362304688 -3 c 1
 252 0 l 1
 271.478515625 54 288.569335938 125 304.51171875 200 c 2
 356.587890625 445 l 2
 360.000976562 462 379.393554688 557 377.495117188 581 c 1
 243.495117188 581 172.944335938 569 172.944335938 569 c 1
 171.794921875 573 l 1
 176.983398438 588 183.147460938 617 187.098632812 645 c 1
 189.736328125 648 l 1
 205.311523438 646 228.098632812 645 249.098632812 645 c 2
 439.098632812 645 l 2
EndSplineSet
EndChar

StartChar: afii10045
Encoding: 1067 1067 90
Width: 786
VWidth: 999
Flags: HW
HStem: -2 21<586 670 670 754> -2 35<171.629 343.725> 329 44<189 363.728> 628 20<92 146 146 199> 629 20<586 670 670 754>
VStem: 103 86<37.7419 329 373 642.32> 428 94<103.061 266.903> 598 144<3.67992 643.32>
LayerCount: 2
Fore
SplineSet
692.799804688 446 m 2
 708.7421875 521 719.196289062 589 723.311523438 646 c 1
 725.94921875 649 l 1
 725.94921875 649 773.311523438 646 807.311523438 646 c 0
 842.311523438 646 890.94921875 649 890.94921875 649 c 1
 891.311523438 646 l 1
 872.045898438 593 852.7421875 521 836.799804688 446 c 2
 784.723632812 201 l 2
 768.782226562 126 758.328125 58 754.212890625 1 c 1
 751.575195312 -2 l 1
 751.575195312 -2 704.212890625 1 670.212890625 1 c 0
 635.212890625 1 586.575195312 -2 586.575195312 -2 c 1
 586.212890625 1 l 1
 605.690429688 55 624.782226562 126 640.723632812 201 c 2
 692.799804688 446 l 2
148 0 m 0
 114 0 93.3623046875 -3 93.3623046875 -3 c 1
 93 0 l 1
 112.478515625 54 129.569335938 125 145.51171875 200 c 2
 197.587890625 445 l 2
 213.529296875 520 224.983398438 588 229.098632812 645 c 1
 231.736328125 648 l 1
 231.736328125 648 249.098632812 645 283.098632812 645 c 0
 318.098632812 645 335.736328125 648 335.736328125 648 c 1
 336.098632812 645 l 1
 316.833007812 592 299.529296875 520 283.587890625 445 c 2
 268.283203125 373 l 1
 326.283203125 373 l 2
 572.283203125 373 579.815429688 272 560.897460938 183 c 0
 525.401367188 16 364.575195312 -2 243.575195312 -2 c 0
 207.575195312 -2 177 0 148 0 c 0
258.930664062 329 m 1
 206.854492188 84 l 2
 199.840820312 51 198.014648438 33 253.014648438 33 c 0
 405.014648438 33 453.719726562 121 466.897460938 183 c 0
 479.651367188 243 471.930664062 329 343.930664062 329 c 2
 258.930664062 329 l 1
EndSplineSet
Colour: ff00ff
EndChar

StartChar: afii10046
Encoding: 1068 1068 91
Width: 558
VWidth: 999
Flags: HW
HStem: -2 35<171.629 343.725> 329 44<189 363.728> 628 20G<92 146 146 199>
VStem: 103 86<37.7419 329 373 642.32> 428 94<103.061 266.903>
LayerCount: 2
Fore
SplineSet
148 0 m 0
 114 0 93.3623046875 -3 93.3623046875 -3 c 1
 93 0 l 1
 112.478515625 54 129.569335938 125 145.51171875 200 c 2
 197.587890625 445 l 2
 213.529296875 520 224.983398438 588 229.098632812 645 c 1
 231.736328125 648 l 1
 231.736328125 648 249.098632812 645 283.098632812 645 c 0
 318.098632812 645 335.736328125 648 335.736328125 648 c 1
 336.098632812 645 l 1
 316.833007812 592 299.529296875 520 283.587890625 445 c 2
 268.283203125 373 l 1
 326.283203125 373 l 2
 572.283203125 373 579.815429688 272 560.897460938 183 c 0
 525.401367188 16 364.575195312 -2 243.575195312 -2 c 0
 207.575195312 -2 177 0 148 0 c 0
258.930664062 329 m 1
 206.854492188 84 l 2
 199.840820312 51 198.014648438 33 253.014648438 33 c 0
 405.014648438 33 453.719726562 121 466.897460938 183 c 0
 479.651367188 243 471.930664062 329 343.930664062 329 c 2
 258.930664062 329 l 1
EndSplineSet
EndChar

StartChar: afii10047
Encoding: 1069 1069 92
Width: 604
VWidth: 999
Flags: HMW
HStem: -12 34<194 359> 273 56<309 422> 311 49<155 284> 621 37<189 346>
VStem: 472 89<186 307 344 460>
LayerCount: 2
Fore
SplineSet
537.254882812 307 m 1
 475.028320312 273 431.028320312 273 418.028320312 273 c 0
 356.028320312 273 321.10546875 311 262.10546875 311 c 0
 224.10546875 311 204.704101562 295 196.704101562 295 c 0
 192.704101562 295 188.341796875 298 190.254882812 307 c 0
 195.568359375 332 264.520507812 360 323.520507812 360 c 0
 389.520507812 360 411.930664062 329 469.930664062 329 c 0
 498.930664062 329 523.206054688 335 544.119140625 344 c 1
 577.90625 550 483.998046875 621 402.998046875 621 c 0
 307.998046875 621 212.780273438 540 168.500976562 454 c 1
 139.350585938 458 l 1
 161.616210938 511 179.606445312 558 193.296875 613 c 1
 251.934570312 616 313.862304688 658 418.862304688 658 c 0
 583.862304688 658 677.90625 550 631.78125 333 c 0
 585.018554688 113 442.44921875 -12 272.44921875 -12 c 0
 186.44921875 -12 137.0390625 19 111.139648438 43 c 0
 88.603515625 64 74.193359375 95 79.931640625 122 c 0
 85.4580078125 148 101.072265625 165 119.072265625 165 c 0
 148.072265625 165 157.30859375 152 160.506835938 120 c 0
 169.203125 48 218.463867188 21 290.463867188 21 c 0
 417.463867188 21 506.921875 169 537.254882812 307 c 1
EndSplineSet
EndChar

StartChar: afii10048
Encoding: 1070 1070 93
Width: 905
VWidth: 999
Flags: HW
HStem: -12 39<517.224 661.561> -3 21<94 178 178 262> 302 44<187 285> 619 39<495.321 644.165> 628 20<94 178 178 262>
VStem: 106 144<2.67992 642.32> 285 96<193.326 302 346 446.919> 770 96<190.805 458.298>
LayerCount: 2
Fore
SplineSet
693.572265625 619 m 0
 609.572265625 619 495.142578125 537 450.505859375 327 c 0
 409.6953125 135 489.739257812 27 597.739257812 27 c 0
 700.739257812 27 797.844726562 131 835.892578125 310 c 0
 880.104492188 518 818.572265625 619 693.572265625 619 c 0
200.587890625 445 m 2
 216.529296875 520 226.983398438 588 231.098632812 645 c 1
 233.736328125 648 l 1
 233.736328125 648 281.098632812 645 315.098632812 645 c 0
 350.098632812 645 398.736328125 648 398.736328125 648 c 1
 399.098632812 645 l 1
 379.833007812 592 360.529296875 520 344.587890625 445 c 2
 323.544921875 346 l 1
 359.544921875 346 l 1
 410.591796875 525 556.862304688 658 712.862304688 658 c 0
 880.862304688 658 978.017578125 527 935.930664062 329 c 0
 893.419921875 129 749.44921875 -12 571.44921875 -12 c 0
 413.44921875 -12 309.956054688 108 349.192382812 302 c 1
 314.192382812 302 l 1
 292.51171875 200 l 2
 276.569335938 125 266.116210938 57 262 0 c 1
 259.362304688 -3 l 1
 259.362304688 -3 212 0 178 0 c 0
 143 0 94.3623046875 -3 94.3623046875 -3 c 1
 94 0 l 1
 113.478515625 54 132.569335938 125 148.51171875 200 c 2
 200.587890625 445 l 2
EndSplineSet
EndChar

StartChar: afii10049
Encoding: 1071 1071 94
Width: 561
VWidth: 999
Flags: HW
HStem: -3 21G<0 12 112.5 127.5 370 423 423 476> 286 44<273.038 380> 613 39<216.656 397.701>
VStem: 71 97<391.218 564.52> 380 86<2.67992 286 330 603.161>
LayerCount: 2
Fore
SplineSet
427.296875 613 m 0
 366.296875 613 294.68359375 596 269.6015625 478 c 0
 243.032226562 353 305.143554688 330 402.143554688 330 c 2
 450.143554688 330 l 1
 500.944335938 569 l 2
 507.108398438 598 498.296875 613 427.296875 613 c 0
282.966796875 300 m 1
 263.850585938 305.099609375 250.268554688 311.299804688 238.592773438 318 c 0
 190.33203125 345 155.384765625 397 172.814453125 479 c 0
 183.442382812 529 209.157226562 570 252.383789062 604 c 0
 309.94921875 649 373.586914062 652 436.586914062 652 c 0
 461.586914062 652 530.098632812 645 560.098632812 645 c 0
 594.098632812 645 611.736328125 648 611.736328125 648 c 1
 613.098632812 645 l 1
 592.983398438 588 576.529296875 520 560.587890625 445 c 2
 508.51171875 200 l 2
 492.569335938 125 479.478515625 54 476 0 c 1
 474.362304688 -3 l 1
 474.362304688 -3 458 0 423 0 c 0
 389 0 371.362304688 -3 371.362304688 -3 c 1
 370 0 l 1
 390.116210938 57 406.569335938 125 422.51171875 200 c 2
 440.791015625 286 l 1
 415.891601562 286 394.119140625 286.599609375 375.03125 287.599609375 c 1
 339.538085938 254.700195312 302.078125 214.900390625 266.41015625 176 c 0
 200.10546875 104 139.588867188 31 121.362304688 -3 c 1
 103 0 73 0 54 0 c 0
 34 0 22 0 1.3623046875 -3 c 1
 0 0 l 1
 62.15234375 56.7001953125 201.291015625 215.900390625 282.966796875 300 c 1
EndSplineSet
EndChar

StartChar: afii10089
Encoding: 1095 1095 95
Width: 510
VWidth: 999
Flags: HW
HStem: -3 21<318 335 453 470> 137 44<162.252 301.419> 412 20G<57 107 107 157 318 330.237 454.006 464>
VStem: 68 80<195.691 426.366> 328 132<2.6647 421.154>
LayerCount: 2
Fore
SplineSet
129.853515625 291 m 0
 145.90234375 366.5 144.920898438 376 148.186523438 429 c 1
 149.82421875 432 l 1
 149.82421875 432 163.186523438 429 198.186523438 429 c 0
 232.186523438 429 246.82421875 432 246.82421875 432 c 1
 248.186523438 429 l 1
 228.071289062 372 226.220703125 368 210.279296875 293 c 0
 193.69921875 215 193.47265625 181 255.47265625 181 c 0
 300.97265625 181 338.26171875 191.299804688 374.421875 218.400390625 c 1
 377.951171875 235 l 2
 393.892578125 310 407.833984375 385 408.974609375 428 c 1
 412.82421875 432 l 1
 431.217773438 431.5 457.186523438 429 483.186523438 429 c 0
 511.186523438 429 538.909179688 432.400390625 553.25 434 c 0
 559.25 434 561.612304688 431 560.124023438 424 c 0
 542.158203125 363 528.23046875 321 512.2890625 246 c 2
 498.259765625 180 l 2
 482.10546875 104 474.116210938 57 470 0 c 1
 467.362304688 -3 l 1
 437.787109375 -1 428 0 394 0 c 0
 359 0 349.787109375 -1 319.362304688 -3 c 1
 318 0 l 1
 337.0234375 52.7998046875 349.729492188 102.700195312 365.17578125 174.900390625 c 1
 323.755859375 149.400390625 289.520507812 137 233.120117188 137 c 0
 135.120117188 137 107.323242188 185 129.853515625 291 c 0
EndSplineSet
EndChar

StartChar: afii10090
Encoding: 1096 1096 96
Width: 807
VWidth: 999
Flags: HW
HStem: 0 41<185.326 354.674 451.326 622.533> 412 20G<87 137 137 187 353 403 403 453 619 670 670 720>
VStem: 97 80<55.1837 426.335> 363 80<55.1837 426.335> 629 80<43.5547 426.335>
CounterMasks: 1 38
LayerCount: 2
Fore
SplineSet
751.51171875 200 m 2
 735.67578125 125.5 722.478515625 54 719 0 c 1
 717.362304688 -3 l 1
 717.362304688 -3 700 0 666 0 c 2
 140 0 l 2
 106 0 87.3623046875 -3 87.3623046875 -3 c 1
 87 0 l 1
 106.478515625 54 123.569335938 125 139.51171875 200 c 2
 150.138671875 250 l 2
 166.081054688 325 175.071289062 372 178.186523438 429 c 1
 180.82421875 432 l 1
 180.82421875 432 194.186523438 429 228.186523438 429 c 0
 263.186523438 429 277.82421875 432 277.82421875 432 c 1
 278.186523438 429 l 1
 257.708984375 375 245.868164062 324 230.138671875 250 c 2
 219.51171875 200 l 2
 215.897460938 183 194.579101562 78 196.478515625 54 c 1
 201.565429688 45 204.71484375 41 219.71484375 41 c 2
 337.71484375 41 l 2
 352.71484375 41 357.565429688 45 366.478515625 54 c 1
 378.579101562 78 401.897460938 183 405.51171875 200 c 2
 416.138671875 250 l 2
 432.081054688 325 441.071289062 372 444.186523438 429 c 1
 446.82421875 432 l 1
 446.82421875 432 460.186523438 429 494.186523438 429 c 0
 529.186523438 429 543.82421875 432 543.82421875 432 c 1
 544.186523438 429 l 1
 523.708984375 375 511.868164062 324 496.138671875 250 c 2
 485.51171875 200 l 2
 481.897460938 183 460.579101562 78 462.478515625 54 c 1
 467.565429688 45 470.71484375 41 485.71484375 41 c 2
 617.71484375 41 l 2
 632.71484375 41 623.565429688 45 632.478515625 54 c 1
 644.579101562 78 667.897460938 183 671.51171875 200 c 2
 681.926757812 249 l 2
 698.081054688 325 706.571289062 372 710.186523438 429 c 1
 712.82421875 432 l 1
 712.82421875 432 726.88671875 429 761.186523438 429 c 0
 796.186523438 429 810.82421875 432 810.82421875 432 c 1
 811.186523438 429 l 1
 791.315429688 375.5 777.889648438 324.099609375 761.926757812 249 c 2
 751.51171875 200 l 2
EndSplineSet
EndChar

StartChar: afii10091
Encoding: 1097 1097 97
Width: 813
VWidth: 999
Flags: HW
HStem: 0 41<185.326 354.674 451.326 622.533> 412 20G<87 137 137 187 353 403 403 453 619 670 670 720>
VStem: 97 80<55.1837 426.335> 363 80<55.1837 426.335> 629 80<41.465 426.335> 731 36<-125 -51.0881>
LayerCount: 2
Fore
SplineSet
140 0 m 2
 106 0 87.3623046875 -3 87.3623046875 -3 c 1
 87 0 l 1
 106.478515625 54 123.569335938 125 139.51171875 200 c 2
 150.138671875 250 l 2
 166.081054688 325 175.071289062 372 178.186523438 429 c 1
 180.82421875 432 l 1
 180.82421875 432 194.186523438 429 228.186523438 429 c 0
 263.186523438 429 277.82421875 432 277.82421875 432 c 1
 278.186523438 429 l 1
 257.708984375 375 245.868164062 324 230.138671875 250 c 2
 219.51171875 200 l 2
 215.897460938 183 194.579101562 78 196.478515625 54 c 1
 201.565429688 45 204.71484375 41 219.71484375 41 c 2
 337.71484375 41 l 2
 352.71484375 41 357.565429688 45 366.478515625 54 c 1
 378.579101562 78 401.897460938 183 405.51171875 200 c 2
 416.138671875 250 l 2
 432.081054688 325 441.071289062 372 444.186523438 429 c 1
 446.82421875 432 l 1
 446.82421875 432 460.186523438 429 494.186523438 429 c 0
 529.186523438 429 543.82421875 432 543.82421875 432 c 1
 544.186523438 429 l 1
 523.708984375 375 511.868164062 324 496.138671875 250 c 2
 485.51171875 200 l 2
 481.897460938 183 460.579101562 78 462.478515625 54 c 1
 467.565429688 45 470.71484375 41 485.71484375 41 c 2
 617.71484375 41 l 2
 632.71484375 41 623.565429688 45 632.478515625 54 c 1
 644.579101562 78 667.897460938 183 671.51171875 200 c 2
 681.926757812 249 l 2
 698.081054688 325 706.571289062 372 710.186523438 429 c 1
 712.82421875 432 l 1
 712.82421875 432 726.88671875 429 761.186523438 429 c 0
 796.186523438 429 810.82421875 432 810.82421875 432 c 1
 811.186523438 429 l 1
 791.315429688 375.5 777.889648438 324.099609375 761.926757812 249 c 2
 751.51171875 200 l 2
 728.129882812 90 722.639648438 35 755.801757812 32 c 0
 780.234375 29.7998046875 783.400390625 20.7001953125 781.337890625 11 c 2
 740.430664062 -125 l 1
 737.79296875 -128 l 1
 705.79296875 -128 l 1
 704.430664062 -125 l 1
 708.961914062 -52.400390625 707.700195312 0 628 0 c 2
 140 0 l 2
EndSplineSet
EndChar

StartChar: afii10092
Encoding: 1098 1098 98
Width: 539
VWidth: 999
Flags: HW
HStem: -2 36<257.183 402.245> 219 37<273 402.262> 374 55<34.7075 190>
VStem: 193 80<40.3429 219 256 372.311> 428 80<60.92 197.087>
LayerCount: 2
Fore
SplineSet
454.782226562 126 m 0
 466.047851562 179 457.549804688 219 386.549804688 219 c 2
 319.549804688 219 l 1
 289.791992188 79 l 2
 282.352539062 44 297.2265625 34 343.2265625 34 c 0
 393.2265625 34 437.352539062 44 454.782226562 126 c 0
246.138671875 250 m 2
 261.23046875 321 269.49609375 374 269.49609375 374 c 1
 144.49609375 374 111.158203125 363 111.158203125 363 c 1
 109.795898438 366 l 1
 114.771484375 380 119.66015625 403 123.186523438 429 c 1
 125.612304688 431 l 1
 140.399414062 430 161.186523438 429 180.186523438 429 c 2
 324.186523438 429 l 2
 358.186523438 429 372.82421875 432 372.82421875 432 c 1
 374.186523438 429 l 1
 353.071289062 372 343.994140625 334 328.051757812 259 c 2
 327.4140625 256 l 1
 384.4140625 256 l 2
 480.4140625 256 556.887695312 230 536.907226562 136 c 0
 519.052734375 52 445.575195312 -2 334.575195312 -2 c 0
 294.774414062 -2 272.799804688 0 233 0 c 0
 198 0 183.362304688 -3 183.362304688 -3 c 1
 183 0 l 1
 203.478515625 54 215.318359375 105 231.047851562 179 c 2
 246.138671875 250 l 2
EndSplineSet
EndChar

StartChar: afii10093
Encoding: 1099 1099 99
Width: 681
VWidth: 999
Flags: HW
HStem: -3 21<491 508 626 643> -2 36<165.183 310.245> 219 37<181 310.262> 412 20<91 141 141 191 491 503.237 627.006 637>
VStem: 101 80<40.3429 219 256 426.342> 336 80<60.92 197.087> 501 132<2.6647 421.154>
LayerCount: 2
Fore
SplineSet
550.951171875 235 m 2
 566.892578125 310 580.833984375 385 581.974609375 428 c 1
 585.82421875 432 l 1
 604.217773438 431.5 630.186523438 429 656.186523438 429 c 0
 684.186523438 429 711.909179688 432.400390625 726.25 434 c 0
 732.25 434 734.612304688 431 733.124023438 424 c 0
 715.158203125 363 701.23046875 321 685.2890625 246 c 2
 671.259765625 180 l 2
 655.10546875 104 647.116210938 57 643 0 c 1
 640.362304688 -3 l 1
 610.787109375 -1 601 0 567 0 c 0
 532 0 522.787109375 -1 492.362304688 -3 c 1
 491 0 l 1
 510.478515625 54 523.318359375 105 539.259765625 180 c 2
 550.951171875 235 l 2
362.782226562 126 m 0
 374.047851562 179 365.549804688 219 294.549804688 219 c 2
 227.549804688 219 l 1
 197.791992188 79 l 2
 190.352539062 44 205.2265625 34 251.2265625 34 c 0
 301.2265625 34 345.352539062 44 362.782226562 126 c 0
236.051757812 259 m 2
 235.4140625 256 l 1
 292.4140625 256 l 2
 388.4140625 256 464.887695312 230 444.907226562 136 c 0
 427.052734375 52 353.575195312 -2 242.575195312 -2 c 0
 202.774414062 -2 180.799804688 0 141 0 c 0
 106 0 91.3623046875 -3 91.3623046875 -3 c 1
 91 0 l 1
 111.478515625 54 123.318359375 105 139.047851562 179 c 2
 154.138671875 250 l 2
 169.23046875 321 179.708984375 375 182.186523438 429 c 1
 183.82421875 432 l 1
 183.82421875 432 197.186523438 429 232.186523438 429 c 0
 266.186523438 429 280.82421875 432 280.82421875 432 c 1
 282.186523438 429 l 1
 261.071289062 372 251.994140625 334 236.051757812 259 c 2
EndSplineSet
Colour: ff00ff
EndChar

StartChar: afii10094
Encoding: 1100 1100 100
Width: 447
VWidth: 999
Flags: HW
HStem: -2 36<165.183 310.245> 219 37<181 310.262> 412 20G<91 141 141 191>
VStem: 101 80<40.3429 219 256 426.342> 336 80<60.92 197.087>
LayerCount: 2
Fore
SplineSet
362.782226562 126 m 0
 374.047851562 179 365.549804688 219 294.549804688 219 c 2
 227.549804688 219 l 1
 197.791992188 79 l 2
 190.352539062 44 205.2265625 34 251.2265625 34 c 0
 301.2265625 34 345.352539062 44 362.782226562 126 c 0
236.051757812 259 m 2
 235.4140625 256 l 1
 292.4140625 256 l 2
 388.4140625 256 464.887695312 230 444.907226562 136 c 0
 427.052734375 52 353.575195312 -2 242.575195312 -2 c 0
 202.774414062 -2 180.799804688 0 141 0 c 0
 106 0 91.3623046875 -3 91.3623046875 -3 c 1
 91 0 l 1
 111.478515625 54 123.318359375 105 139.047851562 179 c 2
 154.138671875 250 l 2
 169.23046875 321 179.708984375 375 182.186523438 429 c 1
 183.82421875 432 l 1
 183.82421875 432 197.186523438 429 232.186523438 429 c 0
 266.186523438 429 280.82421875 432 280.82421875 432 c 1
 282.186523438 429 l 1
 261.071289062 372 251.994140625 334 236.051757812 259 c 2
EndSplineSet
EndChar

StartChar: afii10095
Encoding: 1101 1101 101
Width: 434
VWidth: 999
Flags: HMW
HStem: -10 31<133.489 237.744> 180 49<160.832 302.074> 207 41<92.6331 188.46> 408 31<122.738 236.146>
VStem: 314 77<116.594 208 230.421 318.818>
LayerCount: 2
Fore
SplineSet
363.163085938 236 m 1
 371.6796875 309 358.72265625 408 268.72265625 408 c 0
 188.72265625 408 155.607421875 351 128.641601562 290 c 1
 102.491210938 294 l 1
 117.84375 338 128.071289062 372 141.76171875 427 c 1
 211.76171875 427 214.3125 439 285.3125 439 c 0
 408.3125 439 462.206054688 335 438.825195312 225 c 0
 405.454101562 68 281.874023438 -10 175.874023438 -10 c 0
 93.8740234375 -10 44.2265625 34 55.2802734375 86 c 0
 58.255859375 100 73.4443359375 115 91.4443359375 115 c 0
 102.444335938 115 123.59375 111 121.579101562 78 c 0
 120.352539062 44 146.463867188 21 189.463867188 21 c 0
 283.463867188 21 341.6328125 130 358.211914062 208 c 1
 333.661132812 196 297.259765625 180 266.259765625 180 c 0
 222.259765625 180 198.999023438 207 163.999023438 207 c 0
 151.999023438 207 140.936523438 202 132.936523438 202 c 0
 126.936523438 202 127.849609375 211 128.69921875 215 c 0
 131.887695312 230 180.713867188 248 223.713867188 248 c 0
 268.713867188 248 281.67578125 229 319.67578125 229 c 0
 335.67578125 229 350.100585938 231 363.163085938 236 c 1
EndSplineSet
EndChar

StartChar: afii10096
Encoding: 1102 1102 102
Width: 686
VWidth: 999
Flags: HW
HStem: -10 40<417.354 526.87> -3 21<78 95 213 230> 198 39<171 268> 401 38<398.927 505.267> 412 20<78 90.2366 214.006 224>
VStem: 88 132<2.6647 421.154> 268 85<110.436 198 237 323.327> 564 85<107.458 329.038>
LayerCount: 2
Fore
SplineSet
534.235351562 401 m 0
 460.235351562 401 419.530273438 313 401.038085938 226 c 0
 384.670898438 149 387.376953125 30 481.376953125 30 c 0
 522.376953125 30 575.265625 53 603.323242188 185 c 0
 634.356445312 331 612.235351562 401 534.235351562 401 c 0
137.951171875 235 m 2
 153.892578125 310 167.833984375 385 168.974609375 428 c 1
 172.82421875 432 l 1
 191.217773438 431.5 217.186523438 429 243.186523438 429 c 0
 271.186523438 429 298.909179688 432.400390625 313.25 434 c 0
 319.25 434 321.612304688 431 320.124023438 424 c 0
 302.158203125 363 288.23046875 321 272.2890625 246 c 2
 270.375976562 237 l 1
 319.375976562 237 l 1
 354.669921875 356 437.3125 439 552.3125 439 c 0
 696.3125 439 717.23046875 321 695.125 217 c 0
 673.869140625 117 594.874023438 -10 455.874023438 -10 c 0
 327.874023438 -10 290.618164062 97 310.0859375 198 c 1
 262.0859375 198 l 1
 258.259765625 180 l 2
 242.10546875 104 234.116210938 57 230 0 c 1
 227.362304688 -3 l 1
 197.787109375 -1 188 0 154 0 c 0
 119 0 109.787109375 -1 79.3623046875 -3 c 1
 78 0 l 1
 97.478515625 54 110.318359375 105 126.259765625 180 c 2
 137.951171875 235 l 2
EndSplineSet
EndChar

StartChar: afii10097
Encoding: 1103 1103 103
Width: 429
VWidth: 999
Flags: HW
HStem: -3 30<10 25> 195 35<206.934 268> 204 26<157.163 165> 402 30<151.259 285.062>
VStem: 38 85<253.842 371.816> 268 80<2.65817 195 230 398.777>
LayerCount: 2
Fore
SplineSet
316.887695312 230 m 1
 345.795898438 366 l 2
 352.59765625 398 338.447265625 402 299.447265625 402 c 0
 225.447265625 402 201.220703125 368 191.23046875 321 c 0
 180.602539062 271 194.887695312 230 251.887695312 230 c 2
 316.887695312 230 l 1
401.3515625 251 m 2
 385.834960938 178 l 2
 370.956054688 108 360.478515625 54 358 0 c 1
 356.362304688 -3 l 1
 356.362304688 -3 343 0 308 0 c 0
 274 0 259.362304688 -3 259.362304688 -3 c 1
 258 0 l 1
 279.116210938 57 288.193359375 95 303.921875 169 c 2
 309.448242188 195 l 1
 284.448242188 195 l 2
 244.448242188 195 209.8203125 145 176.854492188 84 c 0
 154.139648438 43 118.212890625 1 83 0 c 2
 9.3623046875 -3 l 1
 7 0 l 1
 11.0390625 19 l 2
 12.5263671875 26 18.7392578125 27 22.7392578125 27 c 2
 30.951171875 28 l 2
 58.5888671875 31 106.830078125 98 128.907226562 136 c 0
 153.622070312 177 179.0859375 198 208.361328125 204 c 1
 153.361328125 204 88.80078125 239 103.892578125 310 c 0
 110.056640625 339 147.82421875 432 308.82421875 432 c 0
 345.82421875 432 363.186523438 429 399.186523438 429 c 0
 434.186523438 429 448.82421875 432 448.82421875 432 c 1
 449.186523438 429 l 1
 428.708984375 375 416.868164062 324 401.3515625 251 c 2
EndSplineSet
EndChar

StartChar: uni04AE
Encoding: 1198 1198 104
Width: 653
VWidth: 999
Flags: HW
HStem: -3 21<251.856 257 406 411.839> 628 20<24.5 35.9923 183.5 217.394 497.341 527 570.247 619.5>
VStem: 256 150.2<2.08823 307.334>
LayerCount: 2
Fore
SplineSet
470.859375 304.200195312 m 1
 450.495117188 205.099609375 419.90234375 48 413.362304688 -3 c 1
 398 0 346 0 331 0 c 0
 316 0 265 0 248.362304688 -3 c 1
 265.859375 52.5 293.528320312 177.5 314.474609375 275.099609375 c 1
 290.211914062 340.200195312 180.983398438 588 153.736328125 648 c 1
 170.098632812 645 234.098632812 645 251.098632812 645 c 0
 268.098632812 645 312.098632812 645 329.736328125 648 c 1
 359.344726562 548.299804688 395.420898438 458.799804688 433.189453125 357.5 c 1
 506.909179688 445.099609375 590.541992188 549.700195312 658.736328125 648 c 1
 670.098632812 645 703.098632812 645 716.098632812 645 c 0
 728.098632812 645 750.098632812 645 763.736328125 648 c 1
 615.99609375 477.5 528.962890625 380.900390625 470.859375 304.200195312 c 1
EndSplineSet
Colour: ff00ff
EndChar

StartChar: uni04C0
Encoding: 1216 1216 105
Width: 351
VWidth: 999
Flags: HW
HStem: -3 21<94 178 178 262> 628 20<94 178 178 262>
VStem: 106 144<2.67992 642.32>
LayerCount: 2
Fore
SplineSet
200.587890625 445 m 2
 216.529296875 520 226.983398438 588 231.098632812 645 c 1
 233.736328125 648 l 1
 233.736328125 648 281.098632812 645 315.098632812 645 c 0
 350.098632812 645 398.736328125 648 398.736328125 648 c 1
 399.098632812 645 l 1
 379.833007812 592 360.529296875 520 344.587890625 445 c 2
 292.51171875 200 l 2
 276.569335938 125 266.116210938 57 262 0 c 1
 259.362304688 -3 l 1
 259.362304688 -3 212 0 178 0 c 0
 143 0 94.3623046875 -3 94.3623046875 -3 c 1
 94 0 l 1
 113.478515625 54 132.569335938 125 148.51171875 200 c 2
 200.587890625 445 l 2
EndSplineSet
Colour: ff00ff
EndChar

StartChar: uni04D0
Encoding: 1232 1232 106
Width: 701
VWidth: 999
Flags: HW
HStem: -3 21<26 70.5 115 128.893 503.999 515.5 654 670.5> 221 53<223.642 411.509> 638 20<267 451> 715 41<282.963 375.037>
VStem: 199 80<762.847 828.403> 380 79<762.847 828.796>
DStem2: 20 -3 200.278 219.172 0.407548 0.913184<44.0152 286.317 337.696 574.92> 405 658 323.043 494 0.382928 -0.923778<120.116 356.239>
LayerCount: 2
Fore
SplineSet
489.692382812 756 m 0
 522.692382812 756 544.306640625 773 547.919921875 790 c 0
 548.982421875 795 549.2578125 801 549.682617188 803 c 0
 552.87109375 818 576.059570312 833 599.059570312 833 c 0
 626.059570312 833 633.083984375 819 629.044921875 800 c 0
 617.9921875 748 546.977539062 715 480.977539062 715 c 0
 414.977539062 715 357.9921875 748 369.044921875 800 c 0
 373.083984375 819 386.059570312 833 413.059570312 833 c 0
 436.059570312 833 452.87109375 818 449.682617188 803 c 0
 449.2578125 801 446.982421875 795 445.919921875 790 c 0
 442.306640625 773 456.692382812 756 489.692382812 756 c 0
469.974609375 275.099609375 m 1
 459.14453125 338 446.060546875 411 428.002929688 494 c 1
 422.102539062 494 l 1
 282.244140625 275.900390625 l 1
 313.346679688 274.5 357.340820312 274 386.240234375 274 c 0
 409.940429688 274 441.446289062 274.5 469.974609375 275.099609375 c 1
246.892578125 219.200195312 m 1
 194.916015625 135.099609375 148.74609375 56.2001953125 120.362304688 -3 c 1
 109 0 87 0 76 0 c 0
 65 0 32 0 19.3623046875 -3 c 1
 167.336914062 218 311.674804688 436 454.862304688 658 c 1
 544.862304688 658 l 1
 584.3125 439 649.830078125 98 678.362304688 -3 c 1
 662 0 605 0 588 0 c 0
 571 0 524 0 506.362304688 -3 c 1
 504.974609375 18.7001953125 499.216796875 93.7001953125 479.198242188 219.700195312 c 1
 446.647460938 220.400390625 412.075195312 221 379.974609375 221 c 0
 344.275390625 221 285.083984375 220.099609375 246.892578125 219.200195312 c 1
EndSplineSet
LCarets2: 1 0 
Colour: ff00ff
EndChar

StartChar: uni04D1
Encoding: 1233 1233 107
Width: 516
VWidth: 999
Flags: HW
HStem: -10 60<136 258.155 437.552 489.224> 385 54<176.375 291.887> 498 41<167.718 248.739>
VStem: 34 134<62.0884 164.206> 82 83<542.682 622.64> 251 83<542.363 622.388> 311 130<84.3444 222 271.049 367.104>
DStem2: 188 240 231 201 0.966645 0.25612<-22.5783 114.287>
LayerCount: 2
Fore
SplineSet
358.1875 222 m 1
 273.723632812 201 l 2
 220.717773438 187.799804688 198.416992188 143.099609375 190.743164062 107 c 0
 185.004882812 80 200.627929688 50 230.627929688 50 c 0
 258.627929688 50 283.965820312 61 311.854492188 84 c 0
 320.463867188 91.099609375 333.65625 116 336.419921875 129 c 2
 358.1875 222 l 1
454.004882812 80 m 0
 446.990234375 47 467.352539062 44 507.352539062 44 c 1
 512.290039062 39 513.438476562 31.7001953125 512.888671875 23 c 1
 478 0 425.974609375 -10 386.874023438 -10 c 0
 343.874023438 -10 325.48828125 7 320.203125 48 c 1
 318.203125 48 l 1
 263.637695312 3 207.974609375 -10 168.874023438 -10 c 0
 98.8740234375 -10 40.1640625 29 54.830078125 98 c 0
 69.2841796875 166 138.125 217 239.013671875 240 c 1
 362.602539062 271 l 2
 365.815429688 272 369.666015625 276 371.153320312 283 c 0
 387.541992188 360.099609375 367.833984375 385 323.833984375 385 c 0
 278.833984375 385 228.669921875 356 184.041992188 306 c 1
 151.254882812 307 l 1
 147.196289062 382 l 1
 151.046875 386 l 1
 179.510742188 407 272.3125 439 344.3125 439 c 0
 392.540039062 439.599609375 460.16796875 427.5 485.831054688 399.099609375 c 0
 508.16015625 374.299804688 512.65234375 337.099609375 499.877929688 277 c 0
 497.540039062 266 460.168945312 109 454.004882812 80 c 0
459.408203125 590 m 0
 447.717773438 535 376.853515625 498 312.853515625 498 c 0
 247.853515625 498 195.930664062 536 207.408203125 590 c 0
 212.084960938 612 236.485351562 628 259.485351562 628 c 0
 281.485351562 628 294.447265625 609 291.045898438 593 c 0
 290.408203125 590 289.983398438 588 288.345703125 585 c 0
 286.708007812 582 286.0703125 579 285.645507812 577 c 0
 280.96875 555 292.568359375 539 322.568359375 539 c 0
 351.568359375 539 370.755859375 554 375.432617188 576 c 0
 376.0703125 579 376.708007812 582 376.345703125 585 c 0
 375.770507812 587 376.196289062 589 376.833007812 592 c 0
 380.447265625 609 406.485351562 628 424.485351562 628 c 0
 448.485351562 628 464.934570312 616 459.408203125 590 c 0
EndSplineSet
LCarets2: 1 0 
Colour: ff00ff
EndChar

StartChar: uni04D2
Encoding: 1234 1234 108
Width: 701
VWidth: 999
Flags: HW
HStem: -3 21<26 70.5 115 128.893 503.999 515.5 654 670.5> 221 53<223.642 411.509> 638 20<267 451> 694 125<192.107 285.707 401.293 494.893>
VStem: 177 124<709.537 803.707> 386 124<709.537 803.707>
DStem2: 20 -3 200.278 219.172 0.407548 0.913184<44.0152 286.317 337.696 574.92> 405 658 323.043 494 0.382928 -0.923778<120.116 356.239>
LayerCount: 2
Fore
SplineSet
546.692382812 756 m 0
 554.131835938 791 588.083984375 819 623.083984375 819 c 0
 656.083984375 819 678.131835938 791 670.692382812 756 c 0
 663.678710938 723 629.514648438 694 596.514648438 694 c 0
 561.514648438 694 539.678710938 723 546.692382812 756 c 0
337.692382812 756 m 0
 345.131835938 791 379.083984375 819 412.083984375 819 c 0
 447.083984375 819 469.131835938 791 461.692382812 756 c 0
 454.678710938 723 420.514648438 694 385.514648438 694 c 0
 352.514648438 694 330.678710938 723 337.692382812 756 c 0
469.974609375 275.099609375 m 1
 459.14453125 338 446.060546875 411 428.002929688 494 c 1
 422.102539062 494 l 1
 282.244140625 275.900390625 l 1
 313.346679688 274.5 357.340820312 274 386.240234375 274 c 0
 409.940429688 274 441.446289062 274.5 469.974609375 275.099609375 c 1
246.892578125 219.200195312 m 1
 194.916015625 135.099609375 148.74609375 56.2001953125 120.362304688 -3 c 1
 109 0 87 0 76 0 c 0
 65 0 32 0 19.3623046875 -3 c 1
 167.336914062 218 311.674804688 436 454.862304688 658 c 1
 544.862304688 658 l 1
 584.3125 439 649.830078125 98 678.362304688 -3 c 1
 662 0 605 0 588 0 c 0
 571 0 524 0 506.362304688 -3 c 1
 504.974609375 18.7001953125 499.216796875 93.7001953125 479.198242188 219.700195312 c 1
 446.647460938 220.400390625 412.075195312 221 379.974609375 221 c 0
 344.275390625 221 285.083984375 220.099609375 246.892578125 219.200195312 c 1
EndSplineSet
LCarets2: 1 0 
Colour: ff00ff
EndChar

StartChar: uni04D3
Encoding: 1235 1235 109
Width: 516
VWidth: 999
Flags: HW
HStem: -10 60<136 258.155 437.552 489.224> 385 54<176.375 291.887> 511 125<95.1072 188.707 304.293 397.893>
VStem: 34 134<62.0884 164.206> 80 124<526.537 620.707> 289 124<526.537 620.707> 311 130<84.3444 222 271.049 367.104>
DStem2: 188 240 231 201 0.966645 0.25612<-22.5783 114.287>
LayerCount: 2
Fore
SplineSet
410.794921875 573 m 0
 418.234375 608 452.185546875 636 487.185546875 636 c 0
 520.185546875 636 542.234375 608 534.794921875 573 c 0
 527.780273438 540 493.616210938 511 460.616210938 511 c 0
 425.616210938 511 403.780273438 540 410.794921875 573 c 0
201.794921875 573 m 0
 209.234375 608 243.185546875 636 276.185546875 636 c 0
 311.185546875 636 333.234375 608 325.794921875 573 c 0
 318.780273438 540 284.616210938 511 249.616210938 511 c 0
 216.616210938 511 194.780273438 540 201.794921875 573 c 0
358.1875 222 m 1
 273.723632812 201 l 2
 220.717773438 187.799804688 198.416992188 143.099609375 190.743164062 107 c 0
 185.004882812 80 200.627929688 50 230.627929688 50 c 0
 258.627929688 50 283.965820312 61 311.854492188 84 c 0
 320.463867188 91.099609375 333.65625 116 336.419921875 129 c 2
 358.1875 222 l 1
454.004882812 80 m 0
 446.990234375 47 467.352539062 44 507.352539062 44 c 1
 512.290039062 39 513.438476562 31.7001953125 512.888671875 23 c 1
 478 0 425.974609375 -10 386.874023438 -10 c 0
 343.874023438 -10 325.48828125 7 320.203125 48 c 1
 318.203125 48 l 1
 263.637695312 3 207.974609375 -10 168.874023438 -10 c 0
 98.8740234375 -10 40.1640625 29 54.830078125 98 c 0
 69.2841796875 166 138.125 217 239.013671875 240 c 1
 362.602539062 271 l 2
 365.815429688 272 369.666015625 276 371.153320312 283 c 0
 387.541992188 360.099609375 367.833984375 385 323.833984375 385 c 0
 278.833984375 385 228.669921875 356 184.041992188 306 c 1
 151.254882812 307 l 1
 147.196289062 382 l 1
 151.046875 386 l 1
 179.510742188 407 272.3125 439 344.3125 439 c 0
 392.540039062 439.599609375 460.16796875 427.5 485.831054688 399.099609375 c 0
 508.16015625 374.299804688 512.65234375 337.099609375 499.877929688 277 c 0
 497.540039062 266 460.168945312 109 454.004882812 80 c 0
EndSplineSet
LCarets2: 1 0 
Colour: ff00ff
EndChar

StartChar: uni04D4
Encoding: 1236 1236 110
Width: 842
VWidth: 999
Flags: HW
HStem: 0 70.6<492.929 757.492> 215 54<209.525 463.333> 311 62<492 718.397> 574.3 70.7<519.047 781.245>
LayerCount: 2
Fore
SplineSet
250.538085938 213.299804688 m 1
 192.501953125 130.799804688 141.44140625 54.2998046875 107.362304688 -3 c 1
 96 0 74 0 63 0 c 0
 52 0 11 0 -1.6376953125 -3 c 1
 147.51171875 200 299.447265625 402 494.672851562 647.700195312 c 1
 529.141601562 645.200195312 l 1
 577.141601562 645.200195312 l 1
 615.19921875 645 l 1
 859.098632812 645 l 2
 880.098632812 645 903.311523438 646 919.736328125 648 c 1
 921.098632812 645 l 1
 917.123046875 631 912.084960938 612 910.383789062 604 c 0
 908.470703125 595 905.432617188 576 904.732421875 568 c 1
 901.881835938 564 l 1
 901.881835938 564 776.771484375 574.299804688 671.071289062 574.299804688 c 0
 659.37109375 574.299804688 649.150390625 574.200195312 640.20703125 574 c 1
 628.8515625 515.400390625 614.666015625 444.900390625 600.405273438 373.099609375 c 1
 699.075195312 373.900390625 751.53125 378.400390625 806.409179688 383 c 1
 808.771484375 380 l 1
 804.858398438 371 800.669921875 356 798.756835938 347 c 0
 796.84375 338 792.530273438 313 792.6171875 304 c 1
 788.979492188 301 l 1
 733.012695312 306.799804688 644.25 309.799804688 588.141601562 310.700195312 c 1
 570.559570312 221.400390625 554.15234375 134.799804688 544.149414062 70.7998046875 c 1
 646.53515625 74.5 811.342773438 91 811.342773438 91 c 2
 812.4921875 87 l 1
 809.791992188 79 803.478515625 54 801.352539062 44 c 0
 799.2265625 34 795.975585938 14 794 0 c 1
 791.362304688 -3 l 1
 775.787109375 -1 753 0 732 0 c 2
 535 0 l 1
 523.5 0 l 1
 440 0 l 2
 423 0 402 0 384.362304688 -3 c 1
 389.8671875 22.900390625 408.596679688 109.599609375 431.256835938 214.799804688 c 1
 419.278320312 214.900390625 407.299804688 215 395.69921875 215 c 0
 362.299804688 215 291.629882812 214.200195312 250.538085938 213.299804688 c 1
442.94140625 269.299804688 m 1
 461.946289062 357.299804688 482.481445312 452.5 499.8984375 533.5 c 1
 487.8984375 533.5 l 1
 425.23046875 453.200195312 355.684570312 360.299804688 291.338867188 270.700195312 c 1
 326.533203125 270.200195312 376.578125 269 402.177734375 269 c 0
 414.27734375 269 428.298828125 269.099609375 442.94140625 269.299804688 c 1
EndSplineSet
Colour: ff00ff
EndChar

StartChar: uni04D5
Encoding: 1237 1237 111
Width: 771
VWidth: 999
Flags: HW
HStem: -10 50<166.273 273.917> -10 60<512.767 652.361> 208 50<200.98 311 450 614.659> 394 45<163.569 283.81 494.687 594.967>
VStem: 23 129<52.3757 165.935> 311 138<117.749 208 258 339.479> 621 123<263.568 366.599>
LayerCount: 2
Fore
SplineSet
355.63671875 210 m 1
 207.0859375 198 185.37109375 157 174.53125 106 c 0
 164.965820312 61 188.202148438 40 216.501953125 40 c 0
 256.501953125 40 301.965820312 61 325.255859375 100 c 0
 336.08203125 118 345.008789062 160 355.63671875 210 c 1
504.83984375 258 m 1
 660.540039062 266 673.076171875 245 686.041992188 306 c 0
 692.84375 338 682.747070312 394 629.747070312 394 c 0
 566.647460938 394 521.23046875 321 504.83984375 258 c 1
302.747070312 394 m 0
 253.747070312 394 194.26953125 340 155.704101562 295 c 1
 125.916992188 296 l 1
 125.283203125 373 l 1
 129.133789062 377 l 1
 160.384765625 397 242.3125 439 322.3125 439 c 0
 361.3125 439 462.186523438 429 469.095703125 358 c 1
 513.935546875 409 587.3125 439 650.3125 439 c 0
 700.412109375 439 742.6484375 430.700195312 768.1484375 410 c 0
 806.280273438 379.099609375 814.016601562 329.400390625 809.6796875 309 c 0
 803.090820312 278 793.501953125 247 772.25 227 c 1
 728.999023438 207 643.69921875 215 493.211914062 208 c 1
 470.680664062 102 527.627929688 50 586.627929688 50 c 0
 645.627929688 50 692.303710938 72 732.743164062 107 c 1
 742.971679688 102.900390625 751.095703125 93.599609375 754.854492188 84 c 1
 711.376953125 30 630.874023438 -10 557.874023438 -10 c 0
 457.874023438 -10 421.2265625 34 404.541015625 59 c 1
 356.55078125 12 261.874023438 -10 201.874023438 -10 c 0
 85.8740234375 -10 30.0146484375 33 44.4677734375 101 c 0
 54.24609375 147 88.083984375 186.700195312 155.487304688 214 c 0
 209.763671875 236 280.553710938 249.599609375 365.202148438 255 c 1
 384.182617188 349 382.747070312 394 302.747070312 394 c 0
EndSplineSet
Colour: ff00ff
EndChar

StartChar: uni04D6
Encoding: 1238 1238 112
Width: 584
VWidth: 999
Flags: HW
HStem: 0 73<244.435 487.022> 311 61<240 463.736> 577 68<244.435 479.755> 715 41<227.963 320.037>
VStem: 96 144<74.1699 311 372 575.826> 144 80<762.847 828.403> 325 79<762.847 828.796>
LayerCount: 2
Fore
SplineSet
434.692382812 756 m 0
 467.692382812 756 489.306640625 773 492.919921875 790 c 0
 493.982421875 795 494.2578125 801 494.682617188 803 c 0
 497.87109375 818 521.059570312 833 544.059570312 833 c 0
 571.059570312 833 578.083984375 819 574.044921875 800 c 0
 562.9921875 748 491.977539062 715 425.977539062 715 c 0
 359.977539062 715 302.9921875 748 314.044921875 800 c 0
 318.083984375 819 331.059570312 833 358.059570312 833 c 0
 381.059570312 833 397.87109375 818 394.682617188 803 c 0
 394.2578125 801 391.982421875 795 390.919921875 790 c 0
 387.306640625 773 401.692382812 756 434.692382812 756 c 0
282.51171875 200 m 2
 278.897460938 183 261.618164062 97 263.516601562 73 c 1
 397.516601562 73 554.193359375 95 554.193359375 95 c 1
 555.342773438 91 l 1
 552.642578125 83 543.77734375 46 541.65234375 36 c 0
 539.526367188 26 537.975585938 14 536 0 c 1
 533.362304688 -3 l 1
 517.787109375 -1 495 0 474 0 c 2
 170 0 l 2
 135 0 84.3623046875 -3 84.3623046875 -3 c 1
 84 0 l 1
 103.478515625 54 122.569335938 125 138.51171875 200 c 2
 190.587890625 445 l 2
 206.529296875 520 216.983398438 588 221.098632812 645 c 1
 223.736328125 648 l 1
 223.736328125 648 273.098632812 645 307.098632812 645 c 2
 601.098632812 645 l 2
 622.098632812 645 645.311523438 646 661.736328125 648 c 1
 663.098632812 645 l 1
 659.123046875 631 655.360351562 618 653.659179688 610 c 0
 651.74609375 601 647.645507812 577 646.944335938 569 c 1
 644.094726562 565 l 1
 644.094726562 565 504.645507812 577 370.645507812 577 c 1
 358.543945312 553 338.201171875 462 334.587890625 445 c 2
 319.071289062 372 l 1
 437.071289062 372 488.133789062 377 548.196289062 382 c 1
 550.55859375 379 l 1
 546.645507812 370 541.607421875 351 539.694335938 342 c 0
 537.78125 333 534.530273438 313 534.6171875 304 c 1
 530.979492188 301 l 1
 463.467773438 308 354.10546875 311 306.10546875 311 c 1
 282.51171875 200 l 2
EndSplineSet
LCarets2: 1 0 
Colour: ff00ff
EndChar

StartChar: uni04D7
Encoding: 1239 1239 113
Width: 500
VWidth: 999
Flags: HW
HStem: -10 76<219.536 361.445> 230 45<172 326> 394 50<209.436 302.919> 498 41<185.718 266.739>
VStem: 40 128<118.935 230 275 309.906> 100 83<542.682 622.64> 269 83<542.363 622.388> 326 127<259 359.972>
LayerCount: 2
Fore
SplineSet
230.453125 275 m 1
 382.453125 275 l 1
 384.877929688 277 387.641601562 290 388.916992188 296 c 0
 405.920898438 376 367.747070312 394 340.747070312 394 c 0
 329.447265625 394 301.541992188 388.799804688 280.583007812 365 c 0
 262.66796875 344.700195312 238.892578125 310 230.453125 275 c 1
469.419921875 129 m 1
 479.419921875 129 480.59375 111 477.830078125 98 c 1
 412.313476562 25 336.874023438 -10 267.874023438 -10 c 0
 196.774414062 -10 145.854492188 5.900390625 115.501953125 40 c 0
 80.94921875 78.7998046875 70.501953125 143.5 82.9365234375 202 c 0
 115.458007812 355 243.275390625 444 357.375 444 c 0
 504.375 444 527.607421875 351 509.540039062 266 c 0
 506.564453125 252 496.887695312 230 472.887695312 230 c 2
 216.887695312 230 l 1
 215.825195312 225 214.974609375 221 213.487304688 214 c 0
 187.342773438 91 245.028320312 66 323.028320312 66 c 0
 361.028320312 66 419.4921875 87 469.419921875 129 c 1
477.408203125 590 m 0
 465.717773438 535 394.853515625 498 330.853515625 498 c 0
 265.853515625 498 213.930664062 536 225.408203125 590 c 0
 230.084960938 612 254.485351562 628 277.485351562 628 c 0
 299.485351562 628 312.447265625 609 309.045898438 593 c 0
 308.408203125 590 307.983398438 588 306.345703125 585 c 0
 304.708007812 582 304.0703125 579 303.645507812 577 c 0
 298.96875 555 310.568359375 539 340.568359375 539 c 0
 369.568359375 539 388.755859375 554 393.432617188 576 c 0
 394.0703125 579 394.708007812 582 394.345703125 585 c 0
 393.770507812 587 394.196289062 589 394.833007812 592 c 0
 398.447265625 609 424.485351562 628 442.485351562 628 c 0
 466.485351562 628 482.934570312 616 477.408203125 590 c 0
EndSplineSet
LCarets2: 1 0 
Colour: ff00ff
EndChar

StartChar: uni04D8
Encoding: 1240 1240 114
Width: 644
VWidth: 999
Flags: HW
HStem: -12 34<246.269 393.278> 216 44<122 511> 624 34<207.892 368.818>
VStem: 521 90<221.919 443.038>
LayerCount: 2
Fore
SplineSet
208.166992188 523 m 1
 190.268554688 547 l 1
 284.998046875 621 339.862304688 658 449.862304688 658 c 0
 664.862304688 658 714.08984375 485 680.29296875 326 c 0
 638.844726562 131 506.44921875 -12 313.44921875 -12 c 0
 121.44921875 -12 78.08203125 118 97.2646484375 260 c 1
 575.264648438 260 l 1
 578.602539062 271 581.153320312 283 584.12890625 297 c 0
 623.665039062 483 561.635742188 624 426.635742188 624 c 0
 333.635742188 624 272.219726562 575 208.166992188 523 c 1
167.912109375 216 m 1
 171.280273438 86 229.67578125 22 327.67578125 22 c 0
 433.67578125 22 517.65625 116 556.912109375 216 c 1
 167.912109375 216 l 1
EndSplineSet
Colour: ff00ff
EndChar

StartChar: afii10846
Encoding: 1241 1241 115
Width: 450
VWidth: 999
Flags: HW
HStem: -16 50<195.081 288.564> 153 45<172 326> 362 76<136.555 278.464>
VStem: 45 127<68.028 169> 330 128<118.094 153 198 309.065>
LayerCount: 2
Fore
SplineSet
358.521484375 153 m 1
 206.521484375 153 l 1
 204.095703125 151 201.333007812 138 200.057617188 132 c 0
 183.052734375 52 221.2265625 34 248.2265625 34 c 0
 259.52734375 34 287.432617188 39.2001953125 308.390625 63 c 0
 326.305664062 83.2998046875 350.08203125 118 358.521484375 153 c 1
119.5546875 299 m 1
 109.5546875 299 108.380859375 317 111.143554688 330 c 1
 176.66015625 403 252.099609375 438 321.099609375 438 c 0
 392.200195312 438 443.120117188 422.099609375 473.471679688 388 c 0
 508.024414062 349.200195312 518.47265625 284.5 506.038085938 226 c 0
 473.516601562 73 345.69921875 -16 231.598632812 -16 c 0
 84.5986328125 -16 61.3671875 77 79.4345703125 162 c 0
 82.41015625 176 92.0859375 198 116.0859375 198 c 2
 372.0859375 198 l 1
 373.149414062 203 373.999023438 207 375.487304688 214 c 0
 401.631835938 337 343.9453125 362 265.9453125 362 c 0
 227.9453125 362 169.481445312 341 119.5546875 299 c 1
EndSplineSet
Colour: ff00ff
EndChar

StartChar: uni04DA
Encoding: 1242 1242 116
Width: 644
VWidth: 999
Flags: HW
HStem: -12 34<246.269 393.278> 216 44<122 511> 624 34<207.892 368.818> 711 125<168.293 263.707 388.293 483.37>
VStem: 153 126<726.2 820.707> 373 126<727.191 819.706> 521 90<221.919 443.038>
LayerCount: 2
Fore
SplineSet
208.166992188 523 m 1
 190.268554688 547 l 1
 284.998046875 621 339.862304688 658 449.862304688 658 c 0
 664.862304688 658 714.08984375 485 680.29296875 326 c 0
 638.844726562 131 506.44921875 -12 313.44921875 -12 c 0
 121.44921875 -12 78.08203125 118 97.2646484375 260 c 1
 575.264648438 260 l 1
 578.602539062 271 581.153320312 283 584.12890625 297 c 0
 623.665039062 483 561.635742188 624 426.635742188 624 c 0
 333.635742188 624 272.219726562 575 208.166992188 523 c 1
167.912109375 216 m 1
 171.280273438 86 229.67578125 22 327.67578125 22 c 0
 433.67578125 22 517.65625 116 556.912109375 216 c 1
 167.912109375 216 l 1
537.306640625 773 m 0
 544.74609375 808 578.697265625 836 613.697265625 836 c 0
 647.697265625 836 670.74609375 808 663.306640625 773 c 0
 656.079101562 739 621.127929688 711 587.127929688 711 c 0
 552.127929688 711 530.079101562 739 537.306640625 773 c 0
317.306640625 773 m 0
 324.74609375 808 358.697265625 836 393.697265625 836 c 0
 428.697265625 836 450.74609375 808 443.306640625 773 c 0
 436.079101562 739 402.127929688 711 367.127929688 711 c 0
 332.127929688 711 310.079101562 739 317.306640625 773 c 0
EndSplineSet
LCarets2: 1 0 
Colour: ff00ff
EndChar

StartChar: uni04DB
Encoding: 1243 1243 117
Width: 450
VWidth: 999
Flags: HW
HStem: -16 50<195.081 288.564> 153 45<172 326> 362 76<136.555 278.464> 509 125<74.1072 167.707 283.293 376.893>
VStem: 45 127<68.028 169> 59 124<524.537 618.707> 268 124<524.537 618.707> 330 128<118.094 153 198 309.065>
LayerCount: 2
Fore
SplineSet
358.521484375 153 m 1
 206.521484375 153 l 1
 204.095703125 151 201.333007812 138 200.057617188 132 c 0
 183.052734375 52 221.2265625 34 248.2265625 34 c 0
 259.52734375 34 287.432617188 39.2001953125 308.390625 63 c 0
 326.305664062 83.2998046875 350.08203125 118 358.521484375 153 c 1
119.5546875 299 m 1
 109.5546875 299 108.380859375 317 111.143554688 330 c 1
 176.66015625 403 252.099609375 438 321.099609375 438 c 0
 392.200195312 438 443.120117188 422.099609375 473.471679688 388 c 0
 508.024414062 349.200195312 518.47265625 284.5 506.038085938 226 c 0
 473.516601562 73 345.69921875 -16 231.598632812 -16 c 0
 84.5986328125 -16 61.3671875 77 79.4345703125 162 c 0
 82.41015625 176 92.0859375 198 116.0859375 198 c 2
 372.0859375 198 l 1
 373.149414062 203 373.999023438 207 375.487304688 214 c 0
 401.631835938 337 343.9453125 362 265.9453125 362 c 0
 227.9453125 362 169.481445312 341 119.5546875 299 c 1
389.370117188 571 m 0
 396.809570312 606 430.760742188 634 465.760742188 634 c 0
 498.760742188 634 520.809570312 606 513.370117188 571 c 0
 506.35546875 538 472.19140625 509 439.19140625 509 c 0
 404.19140625 509 382.35546875 538 389.370117188 571 c 0
180.370117188 571 m 0
 187.809570312 606 221.760742188 634 254.760742188 634 c 0
 289.760742188 634 311.809570312 606 304.370117188 571 c 0
 297.35546875 538 263.19140625 509 228.19140625 509 c 0
 195.19140625 509 173.35546875 538 180.370117188 571 c 0
EndSplineSet
LCarets2: 1 0 
Colour: ff00ff
EndChar

StartChar: uni04E0
Encoding: 1248 1248 118
Width: 608
VWidth: 999
Flags: HW
HStem: -211 37<215 357> 605 39<141 167 167 446>
VStem: 475 89<-42 146>
DStem2: 250 252 367 288 0.48636 0.873758<88.8042 404.592>
LayerCount: 2
Fore
SplineSet
304.098632812 645 m 2
 659.098632812 645 l 2
 680.098632812 645 685.823242188 639 684.123046875 631 c 0
 681.998046875 621 672.596679688 605 660.408203125 590 c 2
 428.215820312 288 l 1
 556.477539062 261 598.434570312 162 574.840820312 51 c 0
 545.294921875 -88 387.150390625 -211 227.150390625 -211 c 0
 147.150390625 -211 4.58984375 -176 18.619140625 -110 c 0
 23.5078125 -87 39.2470703125 -60 73.2470703125 -60 c 0
 100.247070312 -60 125.270507812 -74 133.806640625 -95 c 0
 155.391601562 -144 199.015625 -174 254.015625 -174 c 0
 341.015625 -174 463.734375 -53 483.927734375 42 c 0
 517.723632812 201 414.202148438 255 345.202148438 255 c 0
 329.202148438 255 318.202148438 255 303.564453125 252 c 1
 574.596679688 605 l 1
 325.596679688 605 l 1
 251.383789062 604 204.7421875 521 191.389648438 477 c 1
 165.814453125 479 l 1
 226.775390625 667 l 1
 248.712890625 662 280.098632812 645 304.098632812 645 c 2
EndSplineSet
Colour: ff00ff
EndChar

StartChar: uni04E1
Encoding: 1249 1249 119
Width: 416
VWidth: 999
Flags: HW
HStem: -235 35<149 244> 103 34<216 268> 395 34<107 295>
VStem: 40 27<303 337> 312 81<-120 61>
DStem2: 127 107 216 137 0.505072 0.863077<70.4402 332.658>
LayerCount: 2
Fore
SplineSet
149.743164062 107 m 1
 378.959960938 395 l 1
 233.959960938 395 l 2
 203.959960938 395 165.49609375 374 129.979492188 301 c 1
 104.6171875 304 l 1
 123.032226562 353 138.384765625 397 148.950195312 442 c 1
 173.950195312 442 l 1
 174.674804688 436 182.186523438 429 197.186523438 429 c 2
 400.186523438 429 l 2
 429.186523438 429 466.461914062 435 468.461914062 435 c 0
 475.461914062 435 481.037109375 433 480.186523438 429 c 0
 479.336914062 425 470.998046875 414 449.259765625 387 c 2
 245.120117188 137 l 1
 341.120117188 137 410.854492188 84 388.32421875 -22 c 0
 363.029296875 -141 258.048828125 -235 135.048828125 -235 c 0
 50.048828125 -235 5.015625 -174 11.8173828125 -142 c 0
 15.642578125 -124 29.46875 -106 51.46875 -106 c 0
 74.46875 -106 85.34375 -116 88.2421875 -140 c 0
 91.5654296875 -162 110.48828125 -200 150.48828125 -200 c 0
 200.48828125 -200 280.966796875 -146 303.922851562 -38 c 0
 325.390625 63 302.893554688 103 224.893554688 103 c 0
 213.893554688 103 182.405273438 96 163.555664062 92 c 1
 149.743164062 107 l 1
EndSplineSet
Colour: ff00ff
EndChar

StartChar: uni04E6
Encoding: 1254 1254 120
Width: 799
VWidth: 999
Flags: HW
HStem: -10 53<328.503 500.597> 605 53<306.043 483.294> 711 125<194.293 289.707 414.293 509.37>
VStem: 52 161<195.236 434.595> 179 126<726.2 820.707> 399 126<727.191 819.706> 586 161<199.265 453.564>
LayerCount: 2
Fore
SplineSet
512.596679688 605 m 0
 416.596679688 605 327.142578125 537 282.505859375 327 c 0
 241.6953125 135 307.139648438 43 427.139648438 43 c 0
 541.139648438 43 613.844726562 131 651.892578125 310 c 0
 696.104492188 518 653.596679688 605 512.596679688 605 c 0
816.930664062 329 m 0
 774.419921875 129 609.974609375 -10 395.874023438 -10 c 0
 197.874023438 -10 77.931640625 122 117.892578125 310 c 0
 159.553710938 506 333.862304688 658 536.862304688 658 c 0
 749.862304688 658 859.017578125 527 816.930664062 329 c 0
563.306640625 773 m 0
 570.74609375 808 604.697265625 836 639.697265625 836 c 0
 673.697265625 836 696.74609375 808 689.306640625 773 c 0
 682.079101562 739 647.127929688 711 613.127929688 711 c 0
 578.127929688 711 556.079101562 739 563.306640625 773 c 0
343.306640625 773 m 0
 350.74609375 808 384.697265625 836 419.697265625 836 c 0
 454.697265625 836 476.74609375 808 469.306640625 773 c 0
 462.079101562 739 428.127929688 711 393.127929688 711 c 0
 358.127929688 711 336.079101562 739 343.306640625 773 c 0
EndSplineSet
LCarets2: 1 0 
Colour: ff00ff
EndChar

StartChar: uni04E7
Encoding: 1255 1255 121
Width: 566
VWidth: 999
Flags: HW
HStem: -10 50<234.308 349.488> 389 50<221.27 336.971> 511 125<115.107 208.707 324.293 417.893>
VStem: 41 142<105.349 313.203> 100 124<526.537 620.707> 309 124<526.537 620.707> 383 142<109.544 320.837>
LayerCount: 2
Fore
SplineSet
430.794921875 573 m 0
 438.234375 608 472.185546875 636 507.185546875 636 c 0
 540.185546875 636 562.234375 608 554.794921875 573 c 0
 547.780273438 540 513.616210938 511 480.616210938 511 c 0
 445.616210938 511 423.780273438 540 430.794921875 573 c 0
221.794921875 573 m 0
 229.234375 608 263.185546875 636 296.185546875 636 c 0
 331.185546875 636 353.234375 608 345.794921875 573 c 0
 338.780273438 540 304.616210938 511 269.616210938 511 c 0
 236.616210938 511 214.780273438 540 221.794921875 573 c 0
84.57421875 205 m 0
 117.520507812 360 235.482421875 439.799804688 378.3125 439 c 0
 547.3125 439 597.26953125 340 570.487304688 214 c 0
 541.111328125 75.7998046875 433.874023438 -10 280.874023438 -10 c 0
 131.874023438 -10 56.3037109375 72 84.57421875 205 c 0
360.684570312 389 m 0
 274.684570312 389 249.955078125 315 231.462890625 228 c 0
 215.095703125 151 201.501953125 40 305.501953125 40 c 0
 350.501953125 40 398.303710938 72 422.748046875 187 c 0
 452.29296875 326 445.684570312 389 360.684570312 389 c 0
EndSplineSet
LCarets2: 1 0 
Colour: ff00ff
EndChar

StartChar: uni04E8
Encoding: 1256 1256 122
Width: 799
VWidth: 999
Flags: HW
HStem: -10 53<328.503 500.597> 266 57<397.324 544.392> 312 58<187.336 350.102> 605 53<306.043 483.294>
VStem: 52 161<195.236 434.595> 110 15<267.333 271.234> 586 161<199.265 453.564>
LayerCount: 2
Fore
SplineSet
816.930664062 329 m 0
 774.419921875 129 609.974609375 -10 395.874023438 -10 c 0
 197.874023438 -10 77.931640625 122 117.892578125 310 c 0
 159.553710938 506 333.862304688 658 536.862304688 658 c 0
 749.862304688 658 859.017578125 527 816.930664062 329 c 0
661.0078125 359 m 1
 688.31640625 531.700195312 641.997070312 605 512.596679688 605 c 0
 421.596679688 605 336.509765625 543.900390625 289.823242188 358.599609375 c 1
 316.759765625 366.299804688 342.74609375 370 361.645507812 370 c 0
 459.645507812 370 479.65625 323 542.65625 323 c 0
 574.456054688 323 623.534179688 335.599609375 661.0078125 359 c 1
653.231445312 316.299804688 m 1
 603.005859375 277.599609375 550.440429688 266 512.540039062 266 c 0
 420.540039062 266 406.317382812 312 331.317382812 312 c 0
 317.817382812 312 298.883789062 310.900390625 278.661132812 307.5 c 1
 246.27734375 128.799804688 311.240234375 43 427.139648438 43 c 0
 541.139648438 43 613.844726562 131 651.892578125 310 c 0
 652.338867188 312.099609375 652.78515625 314.200195312 653.231445312 316.299804688 c 1
EndSplineSet
Colour: ff00ff
EndChar

StartChar: uni04E9
Encoding: 1257 1257 123
Width: 566
VWidth: 999
Flags: HMW
HStem: -12 36<202 328> 179 49<204 349> 207 42<118 238> 409 33<183 304>
VStem: 44 79<124 320> 377 79<113 318>
AnchorPoint: "unten_punkt" 223.257 -107 basechar 0
AnchorPoint: "top_punkt" 361.906 550 basechar 0
AnchorPoint: "top_akzent" 373.099 645 basechar 0
LayerCount: 2
Fore
SplineSet
426.549804688 219 m 1
 404.787109375 206 353.047851562 179 312.047851562 179 c 0
 277.84765625 179 253.130859375 196.799804688 226.76171875 204 c 1
 213.611328125 129.900390625 211.90234375 40 305.501953125 40 c 0
 350.501953125 40 398.303710938 72 422.748046875 187 c 0
 452.29296875 326 445.684570312 389 360.684570312 389 c 0
 280.784179688 389 253.823242188 325.200195312 235.57421875 246.400390625 c 1
 246.334960938 248.099609375 256.7265625 249 265.926757812 249 c 0
 310.926757812 249 328.67578125 229 366.67578125 229 c 0
 388.67578125 229 412.375976562 237 428.864257812 244 c 1
 426.549804688 219 l 1
84.57421875 205 m 0
 117.520507812 360 235.482421875 439.799804688 378.3125 439 c 0
 547.3125 439 597.26953125 340 570.487304688 214 c 0
 541.111328125 75.7998046875 433.874023438 -10 280.874023438 -10 c 0
 131.874023438 -10 56.3037109375 72 84.57421875 205 c 0
EndSplineSet
Colour: ff80cc
EndChar

StartChar: uni04EA
Encoding: 1258 1258 124
Width: 799
VWidth: 999
Flags: HW
HStem: -10 53<328.503 500.597> 266 57<397.324 544.392> 312 58<187.336 350.102> 605 53<306.043 483.294> 713 125<191.293 286.707 411.293 506.37>
VStem: 52 161<195.236 434.595> 110 15<267.333 271.234> 176 126<728.2 822.707> 396 126<729.191 821.706> 586 161<199.265 453.564>
LayerCount: 2
Fore
SplineSet
816.930664062 329 m 0
 774.419921875 129 609.974609375 -10 395.874023438 -10 c 0
 197.874023438 -10 77.931640625 122 117.892578125 310 c 0
 159.553710938 506 333.862304688 658 536.862304688 658 c 0
 749.862304688 658 859.017578125 527 816.930664062 329 c 0
560.731445312 775 m 0
 568.170898438 810 602.122070312 838 637.122070312 838 c 0
 671.122070312 838 694.170898438 810 686.731445312 775 c 0
 679.504882812 741 644.552734375 713 610.552734375 713 c 0
 575.552734375 713 553.504882812 741 560.731445312 775 c 0
340.731445312 775 m 0
 348.170898438 810 382.122070312 838 417.122070312 838 c 0
 452.122070312 838 474.170898438 810 466.731445312 775 c 0
 459.504882812 741 425.552734375 713 390.552734375 713 c 0
 355.552734375 713 333.504882812 741 340.731445312 775 c 0
661.0078125 359 m 1
 688.31640625 531.700195312 641.997070312 605 512.596679688 605 c 0
 421.596679688 605 336.509765625 543.900390625 289.823242188 358.599609375 c 1
 316.759765625 366.299804688 342.74609375 370 361.645507812 370 c 0
 459.645507812 370 479.65625 323 542.65625 323 c 0
 574.456054688 323 623.534179688 335.599609375 661.0078125 359 c 1
653.231445312 316.299804688 m 1
 603.005859375 277.599609375 550.440429688 266 512.540039062 266 c 0
 420.540039062 266 406.317382812 312 331.317382812 312 c 0
 317.817382812 312 298.883789062 310.900390625 278.661132812 307.5 c 1
 246.27734375 128.799804688 311.240234375 43 427.139648438 43 c 0
 541.139648438 43 613.844726562 131 651.892578125 310 c 0
 652.338867188 312.099609375 652.78515625 314.200195312 653.231445312 316.299804688 c 1
EndSplineSet
LCarets2: 1 0 
Colour: ff00ff
EndChar

StartChar: uni04EB
Encoding: 1259 1259 125
Width: 566
VWidth: 999
Flags: HW
HStem: -12 36<202 328> 179 49<204 349> 207 42<118 238> 409 33<183 304> 509 125<117.107 210.707 326.293 419.893>
VStem: 44 79<124 320> 102 124<524.537 618.707> 311 124<524.537 618.707> 377 79<113 318>
LayerCount: 2
Fore
SplineSet
432.370117188 571 m 0
 439.809570312 606 473.760742188 634 508.760742188 634 c 0
 541.760742188 634 563.809570312 606 556.370117188 571 c 0
 549.35546875 538 515.19140625 509 482.19140625 509 c 0
 447.19140625 509 425.35546875 538 432.370117188 571 c 0
223.370117188 571 m 0
 230.809570312 606 264.760742188 634 297.760742188 634 c 0
 332.760742188 634 354.809570312 606 347.370117188 571 c 0
 340.35546875 538 306.19140625 509 271.19140625 509 c 0
 238.19140625 509 216.35546875 538 223.370117188 571 c 0
426.549804688 219 m 1
 404.787109375 206 353.047851562 179 312.047851562 179 c 0
 277.84765625 179 253.130859375 196.799804688 226.76171875 204 c 1
 213.611328125 129.900390625 211.90234375 40 305.501953125 40 c 0
 350.501953125 40 398.303710938 72 422.748046875 187 c 0
 452.29296875 326 445.684570312 389 360.684570312 389 c 0
 280.784179688 389 253.823242188 325.200195312 235.57421875 246.400390625 c 1
 246.334960938 248.099609375 256.7265625 249 265.926757812 249 c 0
 310.926757812 249 328.67578125 229 366.67578125 229 c 0
 388.67578125 229 412.375976562 237 428.864257812 244 c 1
 426.549804688 219 l 1
84.57421875 205 m 0
 117.520507812 360 235.482421875 439.799804688 378.3125 439 c 0
 547.3125 439 597.26953125 340 570.487304688 214 c 0
 541.111328125 75.7998046875 433.874023438 -10 280.874023438 -10 c 0
 131.874023438 -10 56.3037109375 72 84.57421875 205 c 0
EndSplineSet
LCarets2: 1 0 
Colour: ff00ff
EndChar

StartChar: uni04EF
Encoding: 1263 1263 126
Width: 555
VWidth: 999
Flags: HW
HStem: -237 21<119 136.595 222 246> 412 20<35 47.4194 172.5 195.732 405.038 426 510.5 522> 530 60<118.837 426.084>
VStem: 115 315<530.849 589.524>
LayerCount: 2
Fore
SplineSet
516.655273438 530 m 2
 242.655273438 530 l 2
 231.655273438 530 230.630859375 544 232.543945312 553 c 0
 235.094726562 565 252.408203125 590 265.408203125 590 c 2
 541.408203125 590 l 2
 551.408203125 590 552.432617188 576 550.732421875 568 c 0
 547.96875 555 530.655273438 530 516.655273438 530 c 2
119.82421875 432 m 1
 133.186523438 429 194.186523438 429 207.186523438 429 c 0
 221.186523438 429 257.186523438 429 270.82421875 432 c 1
 282.6015625 329.799804688 301.887695312 230 323.569335938 125 c 1
 332.357421875 124 l 1
 395.762695312 220 459.647460938 331.900390625 512.82421875 432 c 1
 522.186523438 429 565.186523438 429 575.186523438 429 c 0
 585.186523438 429 608.186523438 429 618.82421875 432 c 1
 571.583007812 365 241.193359375 -112 176.624023438 -237 c 1
 167.26171875 -234 138.686523438 -232 128.686523438 -232 c 0
 118.686523438 -232 74.26171875 -234 63.6240234375 -237 c 1
 124.830078125 -161.700195312 163.862304688 -93.7998046875 211.740234375 -19.099609375 c 1
 210.649414062 -12 l 2
 193.954101562 88.7001953125 140.216796875 345.400390625 119.82421875 432 c 1
EndSplineSet
LCarets2: 1 0 
Colour: ff00ff
EndChar

